# Blender v3.0.0 OBJ File: 'world.blend'
# www.blender.org
mtllib bodyHalf_Back.mtl
o Plane.004
v 0.642767 0.395311 -0.063978
v 0.460399 1.514556 -0.067913
v 0.471232 1.407494 -0.657383
v 0.564219 0.996805 -0.804658
v 0.510980 1.222667 -0.779138
v 0.653515 0.404100 -0.357573
v 0.448281 1.580303 -0.068860
v 0.446239 1.586944 -0.362216
v 0.454918 1.572639 -0.587714
v 0.466334 1.345041 -1.172779
v 0.489587 1.093511 -1.396679
v 0.489587 0.491930 -1.777665
v 0.597233 0.908928 -0.887907
v 0.578519 0.949905 -1.051419
v 0.560350 0.927008 -1.235330
v 0.526460 0.780892 -1.526452
v 0.629072 0.771479 -0.804954
v 0.688909 0.414526 -0.693464
v 0.580360 1.012651 -0.886032
v 0.548107 1.031820 -1.043267
v 0.527880 1.014594 -1.241811
v 0.506165 1.047749 -1.342438
v 0.604488 0.862940 -0.906659
v 0.584280 0.900988 -1.055191
v 0.571097 0.880801 -1.230460
v 0.489587 0.491922 -1.753021
v 0.489587 0.771017 -1.603895
v 0.549401 0.747936 -1.501659
v 0.564830 0.491336 -1.720115
v 0.733393 0.419249 -0.780580
v 0.730961 0.711939 -0.846607
v 0.713964 0.803793 -0.935638
v 0.706448 0.830670 -1.057617
v 0.707440 0.809028 -1.216372
v 0.697907 0.692304 -1.442815
v 0.665824 0.475087 -1.630626
v 0.753938 0.718735 -1.053298
v 0.772756 0.438390 -1.059500
v 0.751954 0.707105 -1.210377
v 0.744155 0.628372 -1.378340
v 0.744809 0.464608 -1.486467
v 0.777084 0.446762 -1.221924
v 0.483025 1.304725 -1.111056
v 0.471522 1.491678 -0.594695
v 0.512352 1.227548 -0.857778
v 0.489587 1.151580 -1.356396
v 0.501003 1.107134 -1.305806
v 0.417328 1.582748 -0.069928
v 0.431819 1.154345 -1.361714
v 0.425357 1.108983 -1.385926
v 0.409544 1.589849 -0.364176
v 0.411541 1.576031 -0.590665
v 0.440170 0.772332 -1.610590
v 0.409186 1.343092 -1.181862
v 0.440170 0.492341 -1.784923
v -0.000000 0.415667 -1.786201
v -0.000000 0.492518 -1.788053
v -0.000000 0.772899 -1.613477
v 0.392713 1.096662 -1.404719
v 0.419328 0.772899 -1.613477
v 0.419328 0.492518 -1.788053
v 0.486583 1.417917 -0.723190
v 0.456043 1.479231 -0.979216
v 0.454908 1.525541 -0.856209
v 0.474572 1.415865 -0.962538
v 0.473616 1.457911 -0.841287
v 0.408882 1.482531 -0.983407
v 0.411532 1.528807 -0.859919
v 0.642767 0.351262 -0.063978
v 0.652977 0.367622 -0.651544
v 0.653515 0.360050 -0.357573
v 0.489587 0.415444 -1.776277
v 0.688909 0.370476 -0.693464
v 0.489587 0.415441 -1.751654
v 0.564830 0.415220 -1.719247
v 0.733393 0.375199 -0.780580
v 0.665824 0.401231 -1.630453
v 0.772756 0.381002 -1.059500
v 0.744809 0.395460 -1.486467
v 0.777084 0.385618 -1.221924
v -0.000000 1.096780 -1.405021
v 0.440170 0.415600 -1.783221
v 0.415906 0.415667 -1.786201
v 0.554970 1.036045 -0.800224
v 0.568953 1.052710 -0.882826
v 0.517621 1.097647 -1.196538
v 0.541005 1.068669 -1.039793
v 0.495760 1.260403 -1.049457
v 0.482192 1.367317 -0.934999
v 0.481232 1.402991 -0.850845
v 0.509769 1.231546 -0.958498
v 0.578112 1.011630 -0.064351
v 0.596363 0.825990 -0.063604
v 0.652977 0.411672 -0.651544
v 0.598490 0.815209 -0.764091
v 0.519267 1.258234 -0.064101
v 0.455440 1.505560 -0.369179
v 0.571285 1.003670 -0.434203
v 0.597182 0.820573 -0.413855
v 0.567889 1.054474 -0.064307
v 0.559237 1.054352 -0.431356
v 0.473137 1.459096 -0.067089
v 0.644689 0.396883 -0.116472
v 0.468361 1.448050 -0.380379
v 0.518533 1.254932 -0.127903
v 0.565070 0.997632 -0.760047
v 0.598333 0.815855 -0.721915
v 0.653041 0.410760 -0.616144
v 0.511483 1.224726 -0.736003
v 0.551250 1.056199 -0.753846
v 0.483805 1.357521 -0.611888
v 0.596509 0.825021 -0.126227
v 0.576892 1.010207 -0.130479
v 0.459304 1.512570 -0.134429
v 0.566753 1.052724 -0.130032
v 0.472082 1.456657 -0.136259
v 0.492625 1.322634 -0.779243
v 0.482938 1.373088 -0.779243
v 0.492625 1.322634 -0.918952
v 0.482938 1.373088 -0.918952
v 0.494481 1.312969 -0.849097
v 0.481082 1.382753 -0.849097
v 0.515934 1.317088 -0.849097
v 0.514079 1.326753 -0.779243
v 0.504392 1.377207 -0.779243
v 0.502536 1.386872 -0.849097
v 0.504392 1.377208 -0.918952
v 0.514079 1.326753 -0.918952
vt 0.000000 0.000000
vt 0.000000 0.000000
vt 0.000000 0.000000
vt 0.000000 0.000000
vt 0.000000 0.000000
vt 0.000000 0.000000
vt 0.000000 0.000000
vt 0.000000 0.000000
vt 0.000000 0.000000
vt 0.000000 0.000000
vt 0.000000 0.000000
vt 0.000000 0.000000
vt 0.000000 0.000000
vt 0.000000 0.000000
vt 0.000000 0.000000
vt 0.000000 0.000000
vt 0.000000 0.000000
vt 0.000000 0.000000
vt 0.000000 0.000000
vt 0.000000 0.000000
vt 0.000000 0.000000
vt 0.000000 0.000000
vt 0.000000 0.000000
vt 0.000000 0.000000
vt 0.000000 0.000000
vt 0.000000 0.000000
vt 0.000000 0.000000
vt 0.000000 0.000000
vt 0.000000 0.000000
vt 0.000000 0.000000
vt 0.000000 0.000000
vt 0.000000 0.000000
vt 0.000000 0.000000
vt 0.000000 0.000000
vt 0.000000 0.000000
vt 0.000000 0.000000
vt 0.000000 0.000000
vt 0.000000 0.000000
vt 0.000000 0.000000
vt 0.000000 0.000000
vt 0.000000 0.000000
vt 0.000000 0.000000
vt 0.000000 0.000000
vt 0.000000 0.000000
vt 0.000000 0.000000
vt 0.000000 0.000000
vt 0.000000 0.000000
vt 0.000000 0.000000
vt 0.000000 0.000000
vt 0.000000 0.000000
vt 0.000000 0.000000
vt 0.000000 0.000000
vt 0.000000 0.000000
vt 0.000000 0.000000
vt 0.000000 0.000000
vt 0.000000 0.000000
vt 0.000000 0.000000
vt 0.000000 0.000000
vt 0.000000 0.000000
vt 0.000000 0.000000
vt 0.000000 0.000000
vt 0.000000 0.000000
vt 0.000000 0.000000
vt 0.000000 0.000000
vt 0.000000 0.000000
vt 0.000000 0.000000
vt 0.000000 0.000000
vt 0.000000 0.000000
vt 0.000000 0.000000
vt 0.000000 0.000000
vt 0.000000 0.000000
vt 0.000000 0.000000
vt 0.000000 0.000000
vt 0.000000 0.000000
vt 0.000000 0.000000
vt 0.000000 0.000000
vt 0.000000 0.000000
vt 0.000000 0.000000
vt 0.000000 0.000000
vt 0.000000 0.000000
vt 0.000000 0.000000
vt 0.000000 0.000000
vt 0.000000 0.000000
vt 0.000000 0.000000
vt 0.000000 0.000000
vt 0.000000 0.000000
vt 0.000000 0.000000
vt 0.000000 0.000000
vt 0.000000 0.000000
vt 0.000000 0.000000
vt 0.000000 0.000000
vt 0.000000 0.000000
vt 0.000000 0.000000
vt 0.000000 0.000000
vt 0.000000 0.000000
vt 0.000000 0.000000
vt 0.000000 0.000000
vt 0.000000 0.000000
vt 0.000000 0.000000
vt 0.000000 0.000000
vt 0.000000 0.000000
vt 0.000000 0.000000
vt 0.000000 0.000000
vt 0.000000 0.000000
vt 0.000000 0.000000
vt 0.000000 0.000000
vt 0.000000 0.000000
vt 0.000000 0.000000
vt 0.000000 0.000000
vt 0.000000 0.000000
vt 0.000000 0.000000
vt 0.000000 0.000000
vt 0.000000 0.500000
vt 1.000000 1.000000
vt 1.000000 0.500000
vt 0.000000 0.000000
vt 1.000000 0.000000
vt 0.000000 0.500000
vt 0.000000 0.000000
vt 1.000000 0.500000
vt 1.000000 0.000000
vt 0.000000 1.000000
vt 1.000000 1.000000
vt 0.000000 0.000000
vt 0.000000 0.000000
vt 0.000000 0.000000
vt 0.000000 0.000000
vt 0.000000 1.000000
vn 0.9845 0.1696 0.0444
vn 0.9744 0.1994 0.1041
vn 0.9645 0.2329 0.1243
vn 0.6804 0.7327 -0.0086
vn 0.9804 0.1964 -0.0141
vn 0.9871 0.1603 -0.0015
vn 0.8715 0.3174 -0.3738
vn 0.6177 0.4625 -0.6360
vn 0.9663 0.2012 -0.1604
vn 0.9546 0.2539 -0.1558
vn 0.9655 0.2347 -0.1130
vn 0.9727 0.2279 0.0438
vn 0.5540 0.4339 -0.7105
vn 0.8855 0.1283 -0.4466
vn 0.7003 0.1930 -0.6872
vn 0.7610 0.4388 0.4778
vn 0.9411 0.1137 0.3182
vn 0.8039 0.1266 0.5812
vn 0.8493 0.5022 0.1625
vn 0.8517 0.5208 -0.0575
vn 0.8029 0.5463 -0.2384
vn 0.7338 0.5215 -0.4353
vn 0.5281 0.2825 -0.8008
vn 0.7290 0.6844 0.0073
vn 0.7499 0.6109 0.2538
vn 0.7177 0.6608 -0.2195
vn 0.6989 0.5366 -0.4729
vn 0.7491 0.2245 -0.6232
vn 0.8237 0.3248 0.4648
vn 0.9487 0.0408 0.3134
vn 0.9739 0.2250 0.0297
vn 0.9964 0.0338 0.0775
vn 0.9608 0.2589 -0.0993
vn 0.9452 0.2369 -0.2247
vn 0.9408 0.1004 -0.3238
vn 0.9980 0.0459 -0.0430
vn 0.9544 0.2742 -0.1180
vn 0.9519 0.2755 -0.1338
vn 0.9724 0.2018 -0.1173
vn 0.9682 0.2177 -0.1228
vn 0.6235 0.6162 -0.4812
vn 0.0994 0.8798 -0.4648
vn 0.6194 0.7040 -0.3474
vn 0.9761 0.2038 -0.0749
vn 0.9770 0.1995 -0.0756
vn 0.9738 0.2045 -0.0993
vn 0.9678 0.2361 0.0871
vn 0.9616 0.2717 0.0383
vn 0.1016 0.5778 -0.8098
vn 0.6676 0.4790 -0.5699
vn 0.9759 0.2120 -0.0520
vn 0.9896 0.1277 0.0666
vn 0.9854 0.1618 -0.0527
vn 0.9767 0.1755 -0.1235
vn 0.1273 0.5330 -0.8365
vn 0.6299 0.7516 -0.1958
vn 0.9951 0.0891 0.0425
vn 0.0851 0.5409 -0.8367
vn 0.6633 0.7456 -0.0641
vn 0.0800 0.9966 -0.0206
vn 0.0779 0.9967 0.0220
vn 0.6839 0.7295 0.0117
vn 0.0594 -0.0267 -0.9979
vn 0.0000 0.2633 -0.9647
vn 0.0718 0.2601 -0.9629
vn 0.0666 0.5358 -0.8417
vn 0.0002 0.5351 -0.8448
vn 0.1409 0.5477 -0.8247
vn 0.1440 0.2618 -0.9543
vn 0.9931 0.0436 0.1084
vn 0.9819 0.1885 0.0164
vn 0.0946 0.9592 -0.2663
vn 0.0854 0.9893 -0.1181
vn 0.8286 0.0000 0.5598
vn 0.1338 -0.0237 -0.9907
vn 0.9979 0.0526 0.0381
vn 0.9998 0.0000 0.0177
vn 0.9978 0.0635 0.0159
vn 0.7854 -0.0013 -0.6190
vn 0.9524 0.0000 0.3048
vn 0.8329 -0.0082 -0.5533
vn 0.9964 0.0000 0.0842
vn 0.9413 0.0000 0.3374
vn 0.9989 0.0000 -0.0458
vn 0.5402 -0.0085 -0.8415
vn 0.7590 -0.0118 -0.6510
vn 0.9532 0.0000 -0.3023
vn 0.9839 0.1708 -0.0523
vn 0.9765 0.2150 0.0117
vn 0.9702 0.2328 -0.0661
vn 0.9883 0.1527 -0.0030
vn 0.9785 0.2052 -0.0216
vn 0.9937 0.1124 0.0038
vn 0.9910 0.1335 -0.0027
vn 0.9852 0.1705 -0.0173
vn 0.9818 0.1890 -0.0181
vn 0.9723 0.2324 -0.0228
vn 0.9724 0.2321 -0.0230
vn 0.9725 0.2318 -0.0227
vn 0.9736 0.2270 -0.0222
vn 0.9742 0.2244 -0.0228
vn 0.9744 0.2234 -0.0227
vn 0.9909 0.1343 0.0016
vn 0.9734 0.2278 -0.0229
vn 0.9734 0.2276 -0.0230
vn 0.9859 0.1660 -0.0218
vn 0.9942 0.1075 -0.0002
vn 0.9932 0.1100 0.0378
vn 0.9745 0.2234 -0.0226
vn 0.8036 -0.5951 0.0000
vn 0.4743 0.6327 -0.6121
vn 0.5261 0.8504 0.0000
vn 0.6749 -0.4121 0.6121
vn 0.4743 0.6327 0.6121
vn 0.1885 -0.9821 0.0000
vn 0.1237 -0.6442 0.7548
vn -0.1885 0.9821 0.0000
vn -0.1237 0.6442 0.7548
vn 0.1237 -0.6442 -0.7548
vn -0.1237 0.6442 -0.7548
vn 0.0008 0.5412 -0.8409
vn 0.0779 0.7541 -0.6521
vn 0.0000 -0.0241 -0.9997
vn 0.9993 0.0000 0.0366
vn 0.6749 -0.4121 -0.6121
usemtl red
s 1
f 13/1/1 4/2/2 95/3/3
f 8/4/4 2/5/5 97/6/6
f 16/7/7 11/8/8 22/9/9
f 22/9/9 15/10/10 16/7/7
f 14/11/11 19/12/12 13/1/1
f 27/13/13 26/14/14 12/15/15
f 17/16/16 94/17/17 18/18/18
f 95/3/3 23/19/19 13/1/1
f 13/1/1 24/20/20 14/11/11
f 15/10/10 24/20/20 25/21/21
f 16/7/7 25/21/21 28/22/22
f 29/23/23 16/7/7 28/22/22
f 33/24/24 23/19/19 32/25/25
f 24/20/20 34/26/26 25/21/21
f 25/21/21 35/27/27 28/22/22
f 28/22/22 36/28/28 29/23/23
f 32/25/25 17/16/16 31/29/29
f 31/29/29 18/18/18 30/30/30
f 32/25/25 37/31/31 33/24/24
f 38/32/32 31/29/29 30/30/30
f 34/26/26 37/31/31 39/33/33
f 35/27/27 39/33/33 40/34/34
f 35/27/27 41/35/35 36/28/28
f 38/32/32 39/33/33 37/31/31
f 42/36/36 40/34/34 39/33/33
f 14/11/11 21/37/37 20/38/38
f 20/38/38 86/39/39 87/40/40
f 10/41/41 67/42/42 63/43/43
f 65/44/44 88/45/45 43/46/46
f 84/47/47 19/12/12 85/48/48
f 49/49/49 10/41/41 46/50/50
f 66/51/51 62/52/52 90/53/53
f 47/54/54 11/8/8 46/50/50
f 12/15/15 53/55/55 27/13/13
f 10/41/41 65/44/44 43/46/46
f 64/56/56 44/57/57 66/51/51
f 11/8/8 53/55/55 50/58/58
f 9/59/59 51/60/60 8/4/4
f 8/4/4 48/61/61 7/62/62
f 47/54/54 21/37/37 22/9/9
f 83/63/63 57/64/64 61/65/65
f 60/66/66 57/64/64 58/67/67
f 88/45/45 87/40/40 86/39/39
f 46/50/50 50/58/58 49/49/49
f 53/55/55 59/68/68 50/58/58
f 55/69/69 60/66/66 53/55/55
f 9/59/59 97/6/6 44/57/57
f 44/57/57 3/70/70 62/52/52
f 5/71/71 62/52/52 3/70/70
f 66/51/51 63/43/43 64/56/56
f 63/43/43 68/72/72 64/56/56
f 64/56/56 52/73/73 9/59/59
f 10/41/41 47/54/54 46/50/50
f 94/17/17 73/74/74 18/18/18
f 61/65/65 82/75/75 83/63/63
f 1/76/76 71/77/77 6/78/78
f 41/35/35 77/79/79 36/28/28
f 18/18/18 76/80/80 30/30/30
f 29/23/23 74/81/81 26/14/14
f 30/30/30 78/82/82 38/32/32
f 6/78/78 70/83/83 94/17/17
f 38/32/32 80/84/84 42/36/36
f 12/15/15 82/75/75 55/69/69
f 36/28/28 75/85/85 29/23/23
f 26/14/14 72/86/86 12/15/15
f 42/36/36 79/87/87 41/35/35
f 43/46/46 86/39/39 47/54/54
f 85/48/48 20/38/38 87/40/40
f 65/44/44 90/53/53 89/88/88
f 84/47/47 45/89/89 5/71/71
f 91/90/90 89/88/88 90/53/53
f 90/53/53 45/89/89 91/90/90
f 85/48/48 91/90/90 45/89/89
f 107/91/91 94/17/17 95/3/3
f 106/92/92 95/3/3 4/2/2
f 112/93/93 6/78/78 99/94/94
f 113/95/95 99/94/94 98/96/96
f 113/95/95 101/97/97 115/98/98
f 106/92/92 84/47/47 110/99/99
f 109/100/100 3/70/70 111/101/101
f 110/99/99 5/71/71 109/100/100
f 102/102/102 114/103/102 2/5/5
f 116/104/102 97/6/6 114/103/102
f 98/96/96 110/99/99 101/97/97
f 98/96/96 107/91/91 106/92/92
f 99/94/94 108/105/103 107/91/91
f 100/106/98 105/107/104 96/108/105
f 92/109/106 115/98/98 100/106/98
f 93/110/107 113/95/95 92/109/106
f 93/110/107 103/111/108 112/93/93
f 96/108/105 116/104/102 102/102/102
f 104/112/109 3/70/70 97/6/6
f 123/113/110 127/114/111 126/115/112
f 124/116/113 126/115/112 125/117/114
f 121/118/115 124/116/113 117/119/116
f 125/117/114 122/120/117 118/121/118
f 127/114/111 119/122/119 120/123/120
f 117/119/116 125/117/114 118/121/118
f 119/122/119 123/113/110 121/118/115
f 122/120/117 127/114/111 120/123/120
f 59/68/68 58/67/67 81/124/121
f 13/1/1 19/12/12 4/2/2
f 8/4/4 7/62/62 2/5/5
f 16/7/7 27/13/13 11/8/8
f 22/9/9 21/37/37 15/10/10
f 14/11/11 20/38/38 19/12/12
f 27/13/13 16/7/7 26/14/14
f 17/16/16 95/3/3 94/17/17
f 95/3/3 17/16/16 23/19/19
f 13/1/1 23/19/19 24/20/20
f 15/10/10 14/11/11 24/20/20
f 16/7/7 15/10/10 25/21/21
f 29/23/23 26/14/14 16/7/7
f 33/24/24 24/20/20 23/19/19
f 24/20/20 33/24/24 34/26/26
f 25/21/21 34/26/26 35/27/27
f 28/22/22 35/27/27 36/28/28
f 32/25/25 23/19/19 17/16/16
f 31/29/29 17/16/16 18/18/18
f 32/25/25 31/29/29 37/31/31
f 38/32/32 37/31/31 31/29/29
f 34/26/26 33/24/24 37/31/31
f 35/27/27 34/26/26 39/33/33
f 35/27/27 40/34/34 41/35/35
f 38/32/32 42/36/36 39/33/33
f 42/36/36 41/35/35 40/34/34
f 14/11/11 15/10/10 21/37/37
f 20/38/38 21/37/37 86/39/39
f 10/41/41 54/125/122 67/42/42
f 65/44/44 89/88/88 88/45/45
f 84/47/47 4/2/2 19/12/12
f 49/49/49 54/125/122 10/41/41
f 66/51/51 44/57/57 62/52/52
f 47/54/54 22/9/9 11/8/8
f 12/15/15 55/69/69 53/55/55
f 10/41/41 63/43/43 65/44/44
f 64/56/56 9/59/59 44/57/57
f 11/8/8 27/13/13 53/55/55
f 9/59/59 52/73/73 51/60/60
f 8/4/4 51/60/60 48/61/61
f 47/54/54 86/39/39 21/37/37
f 83/63/63 56/126/123 57/64/64
f 60/66/66 61/65/65 57/64/64
f 88/45/45 91/90/90 87/40/40
f 46/50/50 11/8/8 50/58/58
f 53/55/55 60/66/66 59/68/68
f 55/69/69 61/65/65 60/66/66
f 9/59/59 8/4/4 97/6/6
f 44/57/57 97/6/6 3/70/70
f 5/71/71 45/89/89 62/52/52
f 66/51/51 65/44/44 63/43/43
f 63/43/43 67/42/42 68/72/72
f 64/56/56 68/72/72 52/73/73
f 10/41/41 43/46/46 47/54/54
f 94/17/17 70/83/83 73/74/74
f 61/65/65 55/69/69 82/75/75
f 1/76/76 69/127/124 71/77/77
f 41/35/35 79/87/87 77/79/79
f 18/18/18 73/74/74 76/80/80
f 29/23/23 75/85/85 74/81/81
f 30/30/30 76/80/80 78/82/82
f 6/78/78 71/77/77 70/83/83
f 38/32/32 78/82/82 80/84/84
f 12/15/15 72/86/86 82/75/75
f 36/28/28 77/79/79 75/85/85
f 26/14/14 74/81/81 72/86/86
f 42/36/36 80/84/84 79/87/87
f 43/46/46 88/45/45 86/39/39
f 85/48/48 19/12/12 20/38/38
f 65/44/44 66/51/51 90/53/53
f 84/47/47 85/48/48 45/89/89
f 91/90/90 88/45/45 89/88/88
f 90/53/53 62/52/52 45/89/89
f 85/48/48 87/40/40 91/90/90
f 107/91/91 108/105/103 94/17/17
f 106/92/92 107/91/91 95/3/3
f 112/93/93 103/111/108 6/78/78
f 113/95/95 112/93/93 99/94/94
f 113/95/95 98/96/96 101/97/97
f 106/92/92 4/2/2 84/47/47
f 109/100/100 5/71/71 3/70/70
f 110/99/99 84/47/47 5/71/71
f 102/102/102 116/104/102 114/103/102
f 116/104/102 104/112/109 97/6/6
f 98/96/96 106/92/92 110/99/99
f 98/96/96 99/94/94 107/91/91
f 99/94/94 6/78/78 108/105/103
f 100/106/98 115/98/98 105/107/104
f 92/109/106 113/95/95 115/98/98
f 93/110/107 112/93/93 113/95/95
f 93/110/107 1/76/76 103/111/108
f 96/108/105 105/107/104 116/104/102
f 104/112/109 111/101/101 3/70/70
f 123/113/110 128/128/125 127/114/111
f 124/116/113 123/113/110 126/115/112
f 121/118/115 123/113/110 124/116/113
f 125/117/114 126/115/112 122/120/117
f 127/114/111 128/128/125 119/122/119
f 117/119/116 124/116/113 125/117/114
f 119/122/119 128/128/125 123/113/110
f 122/120/117 126/115/112 127/114/111
f 59/68/68 60/66/66 58/67/67
