# Blender v3.0.0 OBJ File: ''
# www.blender.org
mtllib skyBox.mtl
o Cube.001
v 62.232681 143.495132 -62.232658
v 0.000000 165.249268 0.000027
v 0.000000 153.895981 -65.575676
v 62.232681 143.495102 62.232704
v 65.575699 153.895981 0.000025
v -62.232681 143.495132 -62.232658
v -62.232681 143.495102 62.232704
v -65.575699 153.895981 0.000025
v 98.420525 98.420540 -98.420479
v 58.392883 112.776695 -112.776665
v 112.776680 112.776688 -58.392864
v 112.776680 112.776672 58.392902
v 119.987984 119.987961 0.000020
v 98.420525 98.420509 98.420540
v 58.392883 112.776665 112.776695
v 0.000000 153.895966 65.575722
v -58.392883 112.776665 112.776695
v -98.420525 98.420479 98.420509
v -112.776680 112.776672 58.392902
v -119.987961 119.987984 0.000020
v -112.776680 112.776688 -58.392864
v -98.420525 98.420540 -98.420509
v -58.392883 112.776695 -112.776665
v 0.000000 119.987984 -119.987938
v 62.232681 -62.232723 143.495102
v 0.000000 -0.000027 165.249268
v 65.575699 -0.000025 153.895966
v -62.232681 -62.232704 143.495102
v 0.000000 -65.575722 153.895966
v 62.232681 62.232658 143.495132
v -62.232681 62.232658 143.495132
v 0.000000 65.575676 153.895996
v 98.420525 -98.420540 98.420509
v 112.776680 -58.392902 112.776672
v 58.392883 -112.776695 112.776665
v -58.392883 -112.776695 112.776665
v 0.000000 -119.987984 119.987938
v -98.420525 -98.420540 98.420509
v -112.776680 -58.392902 112.776672
v -65.575699 -0.000025 153.895981
v -112.776680 58.392864 112.776688
v 0.000000 119.987938 119.988007
v 112.776680 58.392864 112.776688
v 119.987961 -0.000020 119.987961
v -143.495117 -62.232693 62.232670
v -165.249268 0.000000 0.000000
v -153.895981 -0.000011 65.575699
v -143.495117 -62.232670 -62.232693
v -153.895981 -65.575699 -0.000011
v -143.495117 62.232670 62.232693
v -143.495117 62.232693 -62.232670
v -153.895981 65.575699 0.000011
v -112.776680 -112.776688 58.392864
v -112.776680 -112.776672 -58.392902
v -119.987961 -119.987961 -0.000020
v -98.420525 -98.420509 -98.420540
v -112.776680 -58.392864 -112.776688
v -153.895981 0.000011 -65.575699
v -112.776680 58.392902 -112.776672
v -119.987961 -0.000020 119.987961
v -62.232681 -143.495102 -62.232704
v 0.000000 -165.249268 -0.000027
v 0.000000 -153.895950 -65.575722
v -62.232681 -143.495132 62.232658
v -65.575699 -153.895981 -0.000025
v 62.232681 -143.495102 -62.232704
v 62.232681 -143.495132 62.232658
v 65.575699 -153.895981 -0.000025
v -58.392883 -112.776665 -112.776695
v 0.000000 -153.895996 65.575676
v 112.776680 -112.776688 58.392864
v 119.987961 -119.987984 -0.000020
v 112.776680 -112.776672 -58.392902
v 98.420525 -98.420509 -98.420540
v 58.392883 -112.776665 -112.776695
v 0.000000 -119.987938 -119.988007
v 143.495117 -62.232670 -62.232693
v 165.249268 0.000000 0.000000
v 153.895966 0.000011 -65.575699
v 143.495117 -62.232693 62.232670
v 153.895981 -65.575699 -0.000011
v 143.495117 62.232693 -62.232670
v 143.495117 62.232670 62.232693
v 153.895981 65.575699 0.000011
v 112.776680 -58.392864 -112.776688
v 153.895981 -0.000011 65.575699
v 112.776680 58.392902 -112.776672
v 119.987961 0.000020 -119.987984
v -62.232681 -62.232658 -143.495132
v 0.000000 0.000027 -165.249268
v -65.575699 0.000025 -153.895981
v 62.232681 -62.232658 -143.495132
v 0.000000 -65.575676 -153.895996
v -62.232681 62.232704 -143.495102
v 62.232681 62.232704 -143.495102
v 0.000000 65.575722 -153.895966
v 65.575699 0.000025 -153.895981
v -119.987961 0.000020 -119.987961
vt 0.687500 0.562500
vt 0.750000 0.625000
vt 0.750000 0.562500
vt 0.687500 0.687500
vt 0.687500 0.625000
vt 0.812500 0.562500
vt 0.812500 0.687500
vt 0.812500 0.625000
vt 0.625000 0.500000
vt 0.687500 0.500000
vt 0.625000 0.562500
vt 0.625000 0.687500
vt 0.625000 0.625000
vt 0.625000 0.750000
vt 0.687500 0.750000
vt 0.750000 0.687500
vt 0.812500 0.750000
vt 0.875000 0.750000
vt 0.875000 0.687500
vt 0.875000 0.625000
vt 0.875000 0.562500
vt 0.875000 0.500000
vt 0.812500 0.500000
vt 0.750000 0.500000
vt 0.437500 0.812500
vt 0.500000 0.875000
vt 0.500000 0.812500
vt 0.437500 0.937500
vt 0.437500 0.875000
vt 0.562500 0.812500
vt 0.562500 0.937500
vt 0.562500 0.875000
vt 0.375000 0.750000
vt 0.437500 0.750000
vt 0.375000 0.812500
vt 0.375000 0.937500
vt 0.375000 0.875000
vt 0.375000 1.000000
vt 0.437500 1.000000
vt 0.500000 0.937500
vt 0.562500 1.000000
vt 0.625000 1.000000
vt 0.625000 0.937500
vt 0.625000 0.875000
vt 0.625000 0.812500
vt 0.562500 0.750000
vt 0.500000 0.750000
vt 0.437500 0.062500
vt 0.500000 0.125000
vt 0.500000 0.062500
vt 0.437500 0.187500
vt 0.437500 0.125000
vt 0.562500 0.062500
vt 0.562500 0.187500
vt 0.562500 0.125000
vt 0.375000 0.000000
vt 0.437500 0.000000
vt 0.375000 0.062500
vt 0.375000 0.187500
vt 0.375000 0.125000
vt 0.375000 0.250000
vt 0.437500 0.250000
vt 0.500000 0.187500
vt 0.562500 0.250000
vt 0.625000 0.250000
vt 0.625000 0.187500
vt 0.625000 0.125000
vt 0.625000 0.062500
vt 0.625000 0.000000
vt 0.562500 0.000000
vt 0.500000 0.000000
vt 0.187500 0.562500
vt 0.250000 0.625000
vt 0.250000 0.562500
vt 0.187500 0.687500
vt 0.187500 0.625000
vt 0.312500 0.562500
vt 0.312500 0.687500
vt 0.312500 0.625000
vt 0.125000 0.500000
vt 0.187500 0.500000
vt 0.125000 0.562500
vt 0.125000 0.687500
vt 0.125000 0.625000
vt 0.125000 0.750000
vt 0.187500 0.750000
vt 0.250000 0.687500
vt 0.312500 0.750000
vt 0.375000 0.687500
vt 0.375000 0.625000
vt 0.375000 0.562500
vt 0.375000 0.500000
vt 0.312500 0.500000
vt 0.250000 0.500000
vt 0.437500 0.562500
vt 0.500000 0.625000
vt 0.500000 0.562500
vt 0.437500 0.687500
vt 0.437500 0.625000
vt 0.562500 0.562500
vt 0.562500 0.687500
vt 0.562500 0.625000
vt 0.437500 0.500000
vt 0.500000 0.687500
vt 0.562500 0.500000
vt 0.500000 0.500000
vt 0.437500 0.312500
vt 0.500000 0.375000
vt 0.500000 0.312500
vt 0.437500 0.437500
vt 0.437500 0.375000
vt 0.562500 0.312500
vt 0.562500 0.437500
vt 0.562500 0.375000
vt 0.375000 0.312500
vt 0.375000 0.437500
vt 0.375000 0.375000
vt 0.500000 0.437500
vt 0.625000 0.437500
vt 0.625000 0.375000
vt 0.625000 0.312500
vt 0.500000 0.250000
vt 0.750000 0.750000
vt 0.500000 1.000000
vt 0.250000 0.750000
vn -0.3362 -0.8797 0.3362
vn -0.0000 -1.0000 -0.0000
vn 0.0000 -0.9348 0.3553
vn -0.3362 -0.8797 -0.3362
vn -0.3553 -0.9348 -0.0000
vn 0.3362 -0.8797 0.3362
vn 0.3362 -0.8797 -0.3362
vn 0.3553 -0.9348 -0.0000
vn -0.5774 -0.5774 0.5774
vn -0.3038 -0.6737 0.6737
vn -0.6737 -0.6737 0.3038
vn -0.6737 -0.6737 -0.3038
vn -0.7071 -0.7071 -0.0000
vn -0.5774 -0.5774 -0.5774
vn -0.3038 -0.6737 -0.6737
vn 0.0000 -0.9348 -0.3553
vn 0.3038 -0.6737 -0.6737
vn 0.5774 -0.5774 -0.5774
vn 0.6737 -0.6737 -0.3038
vn 0.7071 -0.7071 -0.0000
vn 0.6737 -0.6737 0.3038
vn 0.5774 -0.5774 0.5774
vn 0.3038 -0.6737 0.6737
vn 0.0000 -0.7071 0.7071
vn -0.3362 0.3362 -0.8797
vn -0.0000 0.0000 -1.0000
vn -0.3553 0.0000 -0.9348
vn 0.3362 0.3362 -0.8797
vn 0.0000 0.3553 -0.9348
vn -0.3362 -0.3362 -0.8797
vn 0.3362 -0.3362 -0.8797
vn 0.0000 -0.3553 -0.9348
vn -0.5774 0.5774 -0.5774
vn -0.6737 0.3038 -0.6737
vn -0.3038 0.6737 -0.6737
vn 0.3038 0.6737 -0.6737
vn 0.0000 0.7071 -0.7071
vn 0.5774 0.5774 -0.5774
vn 0.6737 0.3038 -0.6737
vn 0.3553 0.0000 -0.9348
vn 0.6737 -0.3038 -0.6737
vn 0.0000 -0.7071 -0.7071
vn -0.6737 -0.3038 -0.6737
vn -0.7071 0.0000 -0.7071
vn 0.8797 0.3362 -0.3362
vn 1.0000 0.0000 -0.0000
vn 0.9348 -0.0000 -0.3553
vn 0.8797 0.3362 0.3362
vn 0.9348 0.3553 0.0000
vn 0.8797 -0.3362 -0.3362
vn 0.8797 -0.3362 0.3362
vn 0.9348 -0.3553 -0.0000
vn 0.6737 0.6737 -0.3038
vn 0.6737 0.6737 0.3038
vn 0.7071 0.7071 0.0000
vn 0.5774 0.5774 0.5774
vn 0.6737 0.3038 0.6737
vn 0.9348 0.0000 0.3553
vn 0.6737 -0.3038 0.6737
vn 0.7071 0.0000 -0.7071
vn 0.3362 0.8797 0.3362
vn -0.0000 1.0000 0.0000
vn -0.0000 0.9348 0.3553
vn 0.3362 0.8797 -0.3362
vn 0.3553 0.9348 0.0000
vn -0.3362 0.8797 0.3362
vn -0.3362 0.8797 -0.3362
vn -0.3553 0.9348 0.0000
vn 0.3038 0.6737 0.6737
vn -0.0000 0.9348 -0.3553
vn -0.6737 0.6737 -0.3038
vn -0.7071 0.7071 0.0000
vn -0.6737 0.6737 0.3038
vn -0.5774 0.5774 0.5774
vn -0.3038 0.6737 0.6737
vn -0.0000 0.7071 0.7071
vn -0.8797 0.3362 0.3362
vn -1.0000 0.0000 0.0000
vn -0.9348 0.0000 0.3553
vn -0.8797 0.3362 -0.3362
vn -0.9348 0.3553 0.0000
vn -0.8797 -0.3362 0.3362
vn -0.8797 -0.3362 -0.3362
vn -0.9348 -0.3553 -0.0000
vn -0.6737 0.3038 0.6737
vn -0.9348 -0.0000 -0.3553
vn -0.6737 -0.3038 0.6737
vn -0.7071 -0.0000 0.7071
vn 0.3362 0.3362 0.8797
vn 0.0000 -0.0000 1.0000
vn 0.3553 -0.0000 0.9348
vn -0.3362 0.3362 0.8797
vn 0.0000 0.3553 0.9348
vn 0.3362 -0.3362 0.8797
vn -0.3362 -0.3362 0.8797
vn -0.0000 -0.3553 0.9348
vn -0.3553 -0.0000 0.9348
vn 0.7071 -0.0000 0.7071
usemtl Material.001
s 1
f 1/1/1 2/2/2 3/3/3
f 4/4/4 2/2/2 5/5/5
f 2/2/2 6/6/6 3/3/3
f 2/2/2 7/7/7 8/8/8
f 9/9/9 1/1/1 10/10/10
f 11/11/11 5/5/5 1/1/1
f 12/12/12 5/5/5 13/13/13
f 14/14/14 4/4/4 12/12/12
f 15/15/15 16/16/16 4/4/4
f 16/16/16 17/17/17 7/7/7
f 7/7/7 18/18/18 19/19/19
f 8/8/8 19/19/19 20/20/20
f 8/8/8 21/21/21 6/6/6
f 6/6/6 22/22/22 23/23/23
f 3/3/3 23/23/23 24/24/24
f 10/10/10 3/3/3 24/24/24
f 25/25/25 26/26/26 27/27/27
f 28/28/28 26/26/26 29/29/29
f 26/26/26 30/30/30 27/27/27
f 26/26/26 31/31/31 32/32/32
f 33/33/33 25/25/25 34/34/34
f 35/35/35 29/29/29 25/25/25
f 36/36/36 29/29/29 37/37/37
f 38/38/38 28/28/28 36/36/36
f 39/39/39 40/40/40 28/28/28
f 40/40/40 41/41/41 31/31/31
f 31/31/31 18/42/18 17/43/17
f 32/32/32 17/43/17 42/44/42
f 32/32/32 15/45/15 30/30/30
f 30/30/30 14/14/14 43/46/43
f 27/27/27 43/46/43 44/47/44
f 34/34/34 27/27/27 44/47/44
f 45/48/45 46/49/46 47/50/47
f 48/51/48 46/49/46 49/52/49
f 46/49/46 50/53/50 47/50/47
f 46/49/46 51/54/51 52/55/52
f 38/56/38 45/48/45 39/57/39
f 53/58/53 49/52/49 45/48/45
f 54/59/54 49/52/49 55/60/55
f 56/61/56 48/51/48 54/59/54
f 57/62/57 58/63/58 48/51/48
f 58/63/58 59/64/59 51/54/51
f 51/54/51 22/65/22 21/66/21
f 52/55/52 21/66/21 20/67/20
f 52/55/52 19/68/19 50/53/50
f 50/53/50 18/69/18 41/70/41
f 47/50/47 41/70/41 60/71/60
f 39/57/39 47/50/47 60/71/60
f 61/72/61 62/73/62 63/74/63
f 64/75/64 62/73/62 65/76/65
f 62/73/62 66/77/66 63/74/63
f 62/73/62 67/78/67 68/79/68
f 56/80/56 61/72/61 69/81/69
f 54/82/54 65/76/65 61/72/61
f 53/83/53 65/76/65 55/84/55
f 38/85/38 64/75/64 53/83/53
f 36/86/36 70/87/70 64/75/64
f 70/87/70 35/88/35 67/78/67
f 67/78/67 33/33/33 71/89/71
f 68/79/68 71/89/71 72/90/72
f 68/79/68 73/91/73 66/77/66
f 66/77/66 74/92/74 75/93/75
f 63/74/63 75/93/75 76/94/76
f 69/81/69 63/74/63 76/94/76
f 77/95/77 78/96/78 79/97/79
f 80/98/80 78/96/78 81/99/81
f 78/96/78 82/100/82 79/97/79
f 78/96/78 83/101/83 84/102/84
f 74/92/74 77/95/77 85/103/85
f 73/91/73 81/99/81 77/95/77
f 71/89/71 81/99/81 72/90/72
f 33/33/33 80/98/80 71/89/71
f 34/34/34 86/104/86 80/98/80
f 86/104/86 43/46/43 83/101/83
f 83/101/83 14/14/14 12/12/12
f 84/102/84 12/12/12 13/13/13
f 84/102/84 11/11/11 82/100/82
f 82/100/82 9/9/9 87/105/87
f 79/97/79 87/105/87 88/106/88
f 85/103/85 79/97/79 88/106/88
f 89/107/89 90/108/90 91/109/91
f 92/110/92 90/108/90 93/111/93
f 90/108/90 94/112/94 91/109/91
f 90/108/90 95/113/95 96/114/96
f 56/61/56 89/107/89 57/62/57
f 69/115/69 93/111/93 89/107/89
f 75/116/75 93/111/93 76/117/76
f 74/92/74 92/110/92 75/116/75
f 85/103/85 97/118/97 92/110/92
f 97/118/97 87/105/87 95/113/95
f 95/113/95 9/9/9 10/119/10
f 96/114/96 10/119/10 24/120/24
f 96/114/96 23/121/23 94/112/94
f 94/112/94 22/65/22 59/64/59
f 91/109/91 59/64/59 98/122/98
f 57/62/57 91/109/91 98/122/98
f 1/1/1 5/5/5 2/2/2
f 4/4/4 16/16/16 2/2/2
f 2/2/2 8/8/8 6/6/6
f 2/2/2 16/16/16 7/7/7
f 9/9/9 11/11/11 1/1/1
f 11/11/11 13/13/13 5/5/5
f 12/12/12 4/4/4 5/5/5
f 14/14/14 15/15/15 4/4/4
f 15/15/15 42/123/42 16/16/16
f 16/16/16 42/123/42 17/17/17
f 7/7/7 17/17/17 18/18/18
f 8/8/8 7/7/7 19/19/19
f 8/8/8 20/20/20 21/21/21
f 6/6/6 21/21/21 22/22/22
f 3/3/3 6/6/6 23/23/23
f 10/10/10 1/1/1 3/3/3
f 25/25/25 29/29/29 26/26/26
f 28/28/28 40/40/40 26/26/26
f 26/26/26 32/32/32 30/30/30
f 26/26/26 40/40/40 31/31/31
f 33/33/33 35/35/35 25/25/25
f 35/35/35 37/37/37 29/29/29
f 36/36/36 28/28/28 29/29/29
f 38/38/38 39/39/39 28/28/28
f 39/39/39 60/124/60 40/40/40
f 40/40/40 60/124/60 41/41/41
f 31/31/31 41/41/41 18/42/18
f 32/32/32 31/31/31 17/43/17
f 32/32/32 42/44/42 15/45/15
f 30/30/30 15/45/15 14/14/14
f 27/27/27 30/30/30 43/46/43
f 34/34/34 25/25/25 27/27/27
f 45/48/45 49/52/49 46/49/46
f 48/51/48 58/63/58 46/49/46
f 46/49/46 52/55/52 50/53/50
f 46/49/46 58/63/58 51/54/51
f 38/56/38 53/58/53 45/48/45
f 53/58/53 55/60/55 49/52/49
f 54/59/54 48/51/48 49/52/49
f 56/61/56 57/62/57 48/51/48
f 57/62/57 98/122/98 58/63/58
f 58/63/58 98/122/98 59/64/59
f 51/54/51 59/64/59 22/65/22
f 52/55/52 51/54/51 21/66/21
f 52/55/52 20/67/20 19/68/19
f 50/53/50 19/68/19 18/69/18
f 47/50/47 50/53/50 41/70/41
f 39/57/39 45/48/45 47/50/47
f 61/72/61 65/76/65 62/73/62
f 64/75/64 70/87/70 62/73/62
f 62/73/62 68/79/68 66/77/66
f 62/73/62 70/87/70 67/78/67
f 56/80/56 54/82/54 61/72/61
f 54/82/54 55/84/55 65/76/65
f 53/83/53 64/75/64 65/76/65
f 38/85/38 36/86/36 64/75/64
f 36/86/36 37/125/37 70/87/70
f 70/87/70 37/125/37 35/88/35
f 67/78/67 35/88/35 33/33/33
f 68/79/68 67/78/67 71/89/71
f 68/79/68 72/90/72 73/91/73
f 66/77/66 73/91/73 74/92/74
f 63/74/63 66/77/66 75/93/75
f 69/81/69 61/72/61 63/74/63
f 77/95/77 81/99/81 78/96/78
f 80/98/80 86/104/86 78/96/78
f 78/96/78 84/102/84 82/100/82
f 78/96/78 86/104/86 83/101/83
f 74/92/74 73/91/73 77/95/77
f 73/91/73 72/90/72 81/99/81
f 71/89/71 80/98/80 81/99/81
f 33/33/33 34/34/34 80/98/80
f 34/34/34 44/47/44 86/104/86
f 86/104/86 44/47/44 43/46/43
f 83/101/83 43/46/43 14/14/14
f 84/102/84 83/101/83 12/12/12
f 84/102/84 13/13/13 11/11/11
f 82/100/82 11/11/11 9/9/9
f 79/97/79 82/100/82 87/105/87
f 85/103/85 77/95/77 79/97/79
f 89/107/89 93/111/93 90/108/90
f 92/110/92 97/118/97 90/108/90
f 90/108/90 96/114/96 94/112/94
f 90/108/90 97/118/97 95/113/95
f 56/61/56 69/115/69 89/107/89
f 69/115/69 76/117/76 93/111/93
f 75/116/75 92/110/92 93/111/93
f 74/92/74 85/103/85 92/110/92
f 85/103/85 88/106/88 97/118/97
f 97/118/97 88/106/88 87/105/87
f 95/113/95 87/105/87 9/9/9
f 96/114/96 95/113/95 10/119/10
f 96/114/96 24/120/24 23/121/23
f 94/112/94 23/121/23 22/65/22
f 91/109/91 94/112/94 59/64/59
f 57/62/57 89/107/89 91/109/91
