# Blender 3.5.0
# www.blender.org
o Icosphere.001_Icosphere.002
v -0.294053 -0.032706 0.091964
v -0.283838 -0.198656 0.025120
v -0.186616 -0.240766 0.100489
v -0.265088 -0.150189 0.122373
v -0.217235 -0.073080 0.169435
v -0.198449 0.111078 0.160244
v -0.009337 -0.051676 0.289835
v -0.114141 0.060028 0.247340
v -0.127690 -0.183202 0.171052
v -0.093770 -0.281470 0.024414
v -0.027826 -0.227217 0.095361
v -0.009202 -0.246391 0.010558
v -0.128206 0.161679 0.220845
v -0.215788 0.168485 0.061964
v -0.131048 0.265904 0.099676
v -0.164018 0.207742 0.149599
v -0.078372 0.224498 0.207105
v -0.008439 0.171959 0.256451
v 0.016777 0.310598 0.083364
v -0.322015 -0.091047 -0.023260
v -0.299610 0.016933 -0.025450
v -0.217185 -0.256854 -0.050560
v -0.124529 -0.265276 -0.089456
v -0.284606 -0.167456 -0.087497
v -0.248232 0.019209 -0.127920
v -0.256174 -0.074980 -0.161135
v -0.167480 -0.194134 -0.171157
v -0.124607 -0.029492 -0.284966
v -0.153383 0.051503 -0.278474
v -0.044485 -0.242746 -0.095815
v -0.062795 -0.072487 -0.265423
v -0.047140 0.039834 -0.339034
v -0.004867 -0.020599 -0.317907
v -0.203463 0.167644 -0.026863
v -0.114669 0.282605 0.007812
v -0.051567 0.254273 -0.103689
v -0.152684 0.195188 -0.091703
v -0.135779 0.119634 -0.201025
v -0.032414 0.147237 -0.249342
v -0.100572 0.122757 -0.282290
v 0.012774 -0.135661 0.258228
v 0.058869 -0.189926 0.171988
v 0.080585 -0.100177 0.309803
v 0.155958 -0.044889 0.316278
v 0.138213 -0.173698 0.216518
v 0.190692 -0.107340 0.270458
v 0.064593 0.019930 0.324475
v 0.137423 0.070646 0.300279
v 0.205394 -0.155804 0.146675
v 0.247446 -0.061233 0.227939
v 0.211415 0.066835 0.254297
v 0.262498 0.030853 0.180074
v 0.263400 -0.036046 0.125727
v 0.143648 0.234619 0.139032
v 0.003516 0.270027 0.179131
v 0.092401 0.290843 0.045755
v 0.206882 0.184716 0.034848
v 0.118824 -0.209462 -0.130841
v 0.105377 -0.209448 -0.028007
v 0.054693 -0.148559 -0.210441
v 0.178407 -0.154283 -0.176170
v 0.156870 -0.084277 -0.232234
v 0.024752 0.108648 -0.279576
v 0.235227 -0.141296 -0.075807
v 0.212984 -0.154790 -0.014369
v 0.259480 -0.036246 -0.049339
v 0.246901 0.020807 -0.115865
v 0.237316 -0.068289 -0.163852
v 0.177963 0.047407 -0.194949
v 0.040281 0.293581 -0.037492
v 0.135233 0.238547 -0.053129
v 0.066756 0.201782 -0.142674
v -0.218610 0.061131 0.118981
v -0.228713 0.038807 0.113833
v -0.162502 -0.034176 0.183274
v -0.147259 -0.017515 0.192909
v -0.034862 -0.156161 0.159632
v -0.018316 -0.149862 0.171280
v -0.043488 0.025056 0.269621
v -0.025479 0.010917 0.277763
v -0.062584 -0.085971 0.199545
v -0.078379 -0.066424 0.197494
v -0.077923 -0.094225 0.188266
v -0.226383 0.104117 0.013036
v -0.237353 0.083519 0.006815
v -0.202541 0.084893 -0.084447
v -0.192843 0.105984 -0.077498
v -0.118778 -0.087596 -0.210346
v -0.109839 -0.072516 -0.225161
v -0.167342 0.006242 -0.200292
v -0.180697 -0.004138 -0.182746
v -0.048929 -0.101939 -0.189797
v -0.043721 -0.088349 -0.204467
v -0.025519 -0.097657 -0.192697
v 0.003554 -0.172916 -0.155252
v -0.019069 -0.178089 -0.149799
v -0.158322 0.067822 -0.138307
v -0.146359 0.088556 -0.134267
v -0.143570 0.083794 -0.152142
v -0.108927 0.131031 -0.169643
v -0.105262 0.142968 -0.153388
v -0.011480 0.161816 -0.171842
v -0.015447 0.149361 -0.190503
v 0.040723 -0.175410 0.072988
v 0.058348 -0.172822 0.058580
v 0.051590 -0.169838 0.086633
v 0.126602 -0.164169 0.041706
v 0.130159 -0.159117 0.065455
v 0.206874 -0.108670 0.058784
v 0.206000 -0.114778 0.035856
v 0.227705 -0.044672 0.027118
v 0.222240 -0.011071 0.037730
v 0.228260 -0.045017 0.050169
v 0.222882 0.080927 0.070173
v 0.229200 0.065505 0.089026
v 0.051652 0.128211 0.260663
v 0.066760 0.110498 0.268169
v 0.122266 0.136784 0.240013
v 0.112409 0.155210 0.227832
v 0.200230 0.115734 0.162053
v 0.192434 0.134568 0.148486
v 0.026863 -0.215137 -0.032394
v 0.047224 -0.208704 -0.039678
v 0.037728 -0.044250 -0.257614
v 0.056758 -0.054237 -0.245489
v 0.069196 0.053890 -0.238482
v 0.089006 0.046496 -0.227033
v 0.221996 0.045151 -0.010168
v 0.217825 0.061483 0.008911
v 0.198754 0.090034 -0.089329
v 0.191760 0.109007 -0.076314
v 0.055683 0.110526 -0.178250
v 0.068688 0.091718 -0.185399
v 0.050232 0.098832 -0.196020
v 0.139159 0.134373 -0.125690
v 0.147566 0.114290 -0.137148
vn -0.3008 -0.8081 0.5065
vn -0.7087 -0.3345 0.6212
vn -0.8064 -0.5684 0.1630
vn -0.4627 0.0258 0.8861
vn -0.0556 -0.5071 0.8601
vn -0.8441 0.1010 0.5266
vn -0.8845 0.1291 0.4482
vn -0.5113 -0.0633 0.8571
vn -0.9480 0.3106 -0.0694
vn -0.9136 0.3984 0.0819
vn -0.8660 0.4061 -0.2919
vn -0.1549 -0.9840 0.0880
vn -0.4318 -0.6839 0.5881
vn -0.3599 -0.8432 0.3993
vn -0.1992 -0.3265 0.9240
vn 0.1396 -0.6673 0.7316
vn -0.3635 -0.0845 0.9277
vn -0.5377 -0.2002 0.8190
vn 0.4060 -0.7461 0.5277
vn 0.4150 -0.8534 0.3153
vn -0.5333 0.3231 0.7818
vn -0.8799 0.4647 -0.0993
vn -0.8558 0.2312 0.4627
vn -0.7484 0.3623 0.5555
vn -0.7090 0.5443 0.4484
vn -0.5348 0.8108 0.2378
vn -0.0173 0.3935 0.9192
vn -0.3207 0.6481 0.6907
vn 0.0521 0.8078 0.5871
vn 0.0519 0.9838 0.1718
vn -0.9956 -0.0478 -0.0812
vn -0.4683 -0.8605 -0.2007
vn -0.8000 -0.4227 -0.4259
vn -0.6421 0.5116 -0.5710
vn -0.7856 0.3534 -0.5079
vn -0.2217 -0.5454 -0.8083
vn -0.6732 -0.0022 -0.7395
vn -0.7464 0.4305 -0.5075
vn -0.6035 -0.4891 -0.6297
vn -0.9287 0.0076 -0.3707
vn -0.8348 0.1420 -0.5319
vn -0.6661 0.4827 -0.5686
vn -0.6059 0.2356 -0.7599
vn 0.1104 -0.2938 -0.9495
vn -0.1536 -0.7739 -0.6143
vn -0.0793 -0.6222 -0.7789
vn -0.7146 0.6996 -0.0011
vn -0.0033 -0.9064 -0.4224
vn 0.3778 -0.8038 -0.4596
vn 0.1014 -0.9804 0.1687
vn 0.3789 -0.1941 -0.9048
vn -0.2486 -0.5546 -0.7941
vn -0.2130 -0.3880 -0.8967
vn 0.1733 -0.6715 -0.7204
vn -0.0015 0.0882 -0.9961
vn 0.3595 -0.4122 -0.8372
vn -0.8192 0.5735 0.0061
vn -0.6512 0.6031 -0.4608
vn -0.4721 0.8662 -0.1638
vn -0.6570 0.5439 -0.5220
vn -0.2025 0.7541 -0.6247
vn 0.1555 0.9184 -0.3637
vn -0.8728 0.4695 -0.1333
vn -0.5386 0.8231 -0.1801
vn -0.5165 0.5704 -0.6386
vn 0.0824 0.9450 -0.3165
vn 0.1673 0.9219 -0.3494
vn 0.5424 -0.8369 0.0733
vn 0.4823 -0.8722 -0.0819
vn -0.3793 0.7223 -0.5783
vn 0.0590 -0.9970 0.0496
vn 0.2389 -0.8991 0.3668
vn 0.5443 -0.5346 0.6465
vn -0.0646 -0.4842 0.8725
vn 0.0851 0.3509 0.9325
vn -0.5952 -0.2018 0.7778
vn -0.1858 0.2100 0.9599
vn 0.3244 -0.9447 -0.0476
vn 0.1902 -0.9552 0.2265
vn 0.3430 -0.8769 0.3367
vn 0.2352 -0.9340 0.2689
vn 0.8028 -0.5824 -0.1277
vn 0.6269 -0.7779 -0.0424
vn 0.3848 -0.1101 0.9164
vn 0.8749 -0.2409 0.4201
vn 0.6847 0.4473 0.5754
vn 0.9480 0.2858 0.1402
vn 0.9735 -0.1358 -0.1841
vn 0.9863 0.1440 -0.0807
vn 0.9811 0.1902 -0.0368
vn 0.9934 0.0986 -0.0590
vn -0.0641 0.4906 0.8690
vn 0.2669 0.4594 0.8472
vn 0.3704 0.6810 0.6317
vn 0.8256 0.4505 0.3398
vn 0.6119 0.6688 0.4223
vn 0.4205 0.5862 0.6925
vn 0.8929 0.4475 -0.0486
vn 0.7655 0.6031 0.2242
vn 0.4618 0.8868 0.0170
vn 0.0711 -0.9974 0.0132
vn -0.0624 -0.8590 -0.5082
vn 0.4453 -0.5216 -0.7277
vn 0.0541 -0.8378 -0.5433
vn 0.3995 0.4092 -0.8203
vn 0.7079 0.3084 -0.6354
vn 0.5715 0.5686 -0.5917
vn 0.6094 0.6844 -0.4004
vn 0.1740 -0.9381 -0.2994
vn 0.8306 -0.5552 -0.0435
vn 0.6862 -0.6568 0.3125
vn 0.9386 0.3036 -0.1638
vn 0.9688 -0.1133 -0.2205
vn 0.9895 0.0155 0.1440
vn 0.9809 -0.0614 0.1848
vn 0.9006 0.3586 -0.2455
vn 0.7979 0.5553 -0.2344
vn 0.9499 0.2974 0.0960
vn 0.5120 -0.6432 -0.5694
vn 0.5347 0.4595 -0.7092
vn 0.8513 -0.1244 -0.5098
vn 0.3097 0.5477 -0.7772
vn 0.4103 0.5229 -0.7471
vn 0.0152 0.6429 -0.7658
vn 0.5041 0.6296 -0.5911
vn 0.8473 0.4103 -0.3374
vn 0.5778 0.4789 -0.6610
vn 0.6155 0.6689 -0.4168
vn -0.3935 0.0149 0.9192
vn -0.4179 -0.3666 0.8313
vn -0.5644 -0.4360 0.7009
vn -0.5247 0.0473 0.8500
vn -0.4537 -0.7025 -0.5484
vn 0.0807 -0.5707 -0.8172
vn 0.7922 -0.5292 0.3039
vn 0.3983 0.6506 -0.6466
s 1
g off
f 3//1 4//2 2//3
f 5//4 4//2 9//5
f 6//6 73//7 8//8
f 84//9 14//10 34//11
f 42//12 41//13 78//14
f 83//15 9//5 77//16
f 79//17 8//8 76//18
f 77//16 11//19 104//20
f 6//6 8//8 13//21
f 21//22 1//23 74//24
f 14//10 16//25 15//26
f 18//27 13//21 8//8
f 16//25 17//28 15//26
f 15//26 17//28 55//29
f 19//30 15//26 55//29
f 2//3 4//2 20//31
f 20//31 1//23 21//22
f 22//32 2//3 24//33
f 84//9 73//7 14//10
f 37//34 87//35 34//11
f 22//32 24//33 27//36
f 26//37 27//36 24//33
f 87//35 37//34 98//38
f 28//39 90//40 29//41
f 26//37 25//42 91//43
f 125//44 95//45 94//46
f 29//41 90//40 38//47
f 23//48 30//49 10//50
f 125//44 62//51 60//52
f 30//49 23//48 27//36
f 88//53 96//54 27//36
f 91//43 88//53 26//37
f 32//55 28//39 29//41
f 33//56 28//39 32//55
f 87//35 84//9 34//11
f 21//22 85//57 86//58
f 14//10 15//26 35//59
f 25//42 86//58 97//60
f 36//61 37//34 35//59
f 35//59 19//30 70//62
f 38//47 99//63 100//64
f 101//65 37//34 36//61
f 39//66 38//47 103//67
f 12//68 122//69 104//20
f 40//70 32//55 29//41
f 106//71 42//12 78//14
f 45//72 41//13 42//12
f 45//72 46//73 43//74
f 116//75 18//27 79//17
f 7//76 43//74 47//77
f 9//5 11//19 77//16
f 106//71 108//78 42//12
f 59//79 107//80 105//81
f 108//78 109//82 49//83
f 43//74 46//73 44//84
f 50//85 46//73 49//83
f 51//86 44//84 50//85
f 44//84 46//73 50//85
f 52//87 51//86 50//85
f 53//88 50//85 49//83
f 129//89 114//90 112//91
f 117//92 48//93 118//94
f 121//95 54//96 119//97
f 118//94 48//93 51//86
f 55//29 54//96 19//30
f 57//98 54//96 121//95
f 52//87 120//99 51//86
f 57//98 114//90 129//89
f 56//100 54//96 57//98
f 37//34 101//65 98//38
f 122//69 12//68 30//49
f 123//101 59//79 105//81
f 31//102 124//103 93//104
f 127//105 62//51 125//44
f 33//56 126//106 124//103
f 31//102 33//56 124//103
f 63//107 134//108 126//106
f 49//83 42//12 108//78
f 58//109 64//110 65//111
f 115//112 53//88 113//113
f 64//110 66//114 65//111
f 66//114 111//115 65//111
f 115//112 52//87 53//88
f 67//116 130//117 128//118
f 61//119 64//110 58//109
f 69//120 68//121 62//51
f 67//116 68//121 69//120
f 67//116 66//114 68//121
f 70//62 19//30 56//100
f 72//122 132//123 102//124
f 127//105 136//125 69//120
f 131//126 57//98 129//89
f 135//127 132//123 72//122
f 71//128 131//126 135//127
f 67//116 128//118 66//114
f 117//92 47//77 48//93
f 57//98 131//126 71//128
f 9//5 4//2 3//1
f 5//4 9//5 75//129
f 1//23 4//2 5//4
f 75//129 74//24 5//4
f 14//10 73//7 6//6
f 85//57 21//22 74//24
f 83//15 75//129 9//5
f 79//17 18//27 8//8
f 10//50 9//5 3//1
f 10//50 11//19 9//5
f 79//17 76//18 82//130
f 78//14 41//13 81//131
f 80//132 81//131 7//76
f 73//7 76//18 8//8
f 14//10 6//6 16//25
f 16//25 6//6 13//21
f 17//28 13//21 18//27
f 80//132 47//77 117//92
f 55//29 17//28 18//27
f 16//25 13//21 17//28
f 35//59 15//26 19//30
f 20//31 4//2 1//23
f 24//33 2//3 20//31
f 21//22 26//37 20//31
f 22//32 3//1 2//3
f 22//32 10//50 3//1
f 20//31 26//37 24//33
f 88//53 27//36 26//37
f 27//36 23//48 22//32
f 28//39 31//102 89//133
f 25//42 26//37 21//22
f 90//40 99//63 38//47
f 25//42 97//60 91//43
f 23//48 10//50 22//32
f 30//49 12//68 10//50
f 10//50 12//68 11//19
f 58//109 123//101 95//45
f 89//133 90//40 28//39
f 92//134 96//54 88//53
f 96//54 30//49 27//36
f 31//102 93//104 89//133
f 28//39 33//56 31//102
f 63//107 126//106 33//56
f 35//59 34//11 14//10
f 37//34 34//11 35//59
f 21//22 86//58 25//42
f 36//61 35//59 70//62
f 40//70 29//41 38//47
f 38//47 100//64 103//67
f 39//66 40//70 38//47
f 36//61 102//124 101//65
f 103//67 63//107 39//66
f 63//107 40//70 39//66
f 40//70 63//107 32//55
f 7//76 41//13 43//74
f 41//13 45//72 43//74
f 47//77 43//74 44//84
f 42//12 49//83 45//72
f 45//72 49//83 46//73
f 48//93 47//77 44//84
f 51//86 48//93 44//84
f 110//135 107//80 65//111
f 111//115 110//135 65//111
f 115//112 120//99 52//87
f 109//82 53//88 49//83
f 53//88 52//87 50//85
f 81//131 41//13 7//76
f 80//132 7//76 47//77
f 18//27 116//75 119//97
f 18//27 119//97 55//29
f 56//100 19//30 54//96
f 54//96 55//29 119//97
f 120//99 118//94 51//86
f 58//109 59//79 123//101
f 114//90 57//98 121//95
f 104//20 11//19 12//68
f 59//79 65//111 107//80
f 60//52 58//109 95//45
f 122//69 30//49 96//54
f 125//44 60//52 95//45
f 60//52 61//119 58//109
f 60//52 62//51 61//119
f 32//55 63//107 33//56
f 58//109 65//111 59//79
f 109//82 113//113 53//88
f 67//116 69//120 130//117
f 66//114 128//118 111//115
f 62//51 68//121 61//119
f 61//119 68//121 64//110
f 68//121 66//114 64//110
f 133//136 136//125 127//105
f 136//125 130//117 69//120
f 71//128 72//122 70//62
f 71//128 70//62 56//100
f 63//107 103//67 134//108
f 72//122 102//124 36//61
f 62//51 127//105 69//120
f 71//128 135//127 72//122
f 72//122 36//61 70//62
f 71//128 56//100 57//98
f 81//131 82//130 83//15
f 92//134 93//104 94//46
f 97//60 98//38 99//63
f 104//20 105//81 106//71
f 111//115 112//91 113//113
f 132//123 133//136 134//108
f 94//46 96//54 92//134
f 111//115 109//82 110//135
f 118//94 116//75 117//92
f 124//103 94//46 93//104
f 117//92 79//17 80//132
f 97//60 90//40 91//43
f 78//14 83//15 77//16
f 101//65 103//67 100//64
f 77//16 106//71 78//14
f 112//91 115//112 113//113
f 118//94 121//95 119//97
f 128//118 112//91 111//115
f 122//69 105//81 104//20
f 74//24 76//18 73//7
f 73//7 85//57 74//24
f 93//104 88//53 89//133
f 98//38 100//64 99//63
f 105//81 108//78 106//71
f 124//103 127//105 125//44
f 132//123 103//67 102//124
f 128//118 131//126 129//89
f 82//130 80//132 79//17
f 98//38 86//58 87//35
f 87//35 85//57 84//9
f 110//135 108//78 107//80
f 121//95 115//112 114//90
f 126//106 133//136 127//105
f 132//123 136//125 133//136
f 75//129 82//130 76//18
f 88//53 90//40 89//133
f 95//45 122//69 96//54
f 136//125 131//126 130//117
f 74//24 1//23 5//4
f 94//46 95//45 96//54
f 111//115 113//113 109//82
f 118//94 119//97 116//75
f 124//103 125//44 94//46
f 117//92 116//75 79//17
f 97//60 99//63 90//40
f 78//14 81//131 83//15
f 101//65 102//124 103//67
f 77//16 104//20 106//71
f 112//91 114//90 115//112
f 118//94 120//99 121//95
f 128//118 129//89 112//91
f 122//69 123//101 105//81
f 74//24 75//129 76//18
f 73//7 84//9 85//57
f 93//104 92//134 88//53
f 98//38 101//65 100//64
f 105//81 107//80 108//78
f 124//103 126//106 127//105
f 132//123 134//108 103//67
f 128//118 130//117 131//126
f 82//130 81//131 80//132
f 98//38 97//60 86//58
f 87//35 86//58 85//57
f 110//135 109//82 108//78
f 121//95 120//99 115//112
f 126//106 134//108 133//136
f 132//123 135//127 136//125
f 75//129 83//15 82//130
f 88//53 91//43 90//40
f 95//45 123//101 122//69
f 136//125 135//127 131//126
