# Blender 3.5.0
# www.blender.org
o Icosphere.001_Icosphere.002
v -0.294053 -0.032706 0.091964
v -0.283838 -0.198656 0.025120
v -0.186616 -0.240766 0.100489
v -0.260840 -0.116777 0.145906
v 0.006739 -0.113138 0.282443
v -0.114141 0.060028 0.247340
v -0.127690 -0.183202 0.171052
v -0.060480 -0.274120 0.048533
v 0.042924 -0.212942 -0.021726
v -0.113749 0.195314 0.216228
v -0.215788 0.168485 0.061964
v -0.149085 0.244811 0.128978
v -0.025054 0.228158 0.232522
v 0.050799 0.313065 0.061330
v -0.315581 -0.141406 -0.055584
v -0.299610 0.016933 -0.025450
v -0.217185 -0.256854 -0.050560
v -0.086027 -0.263090 -0.092236
v -0.253406 -0.031240 -0.162920
v -0.167480 -0.194134 -0.171157
v -0.101467 -0.062306 -0.277063
v -0.153383 0.051503 -0.278474
v -0.029724 0.013883 -0.342591
v -0.179724 0.185765 -0.069583
v -0.114669 0.282605 0.007812
v -0.010348 0.282062 -0.086027
v -0.076583 0.138715 -0.275323
v 0.092602 -0.191879 0.196881
v 0.131562 -0.073329 0.325448
v 0.225276 -0.091159 0.256045
v 0.064593 0.019930 0.324475
v 0.177923 0.078280 0.283983
v 0.205394 -0.155804 0.146675
v 0.275347 -0.002128 0.158852
v 0.143648 0.234619 0.139032
v 0.206882 0.184716 0.034848
v 0.146279 -0.197633 -0.154695
v 0.054693 -0.148559 -0.210441
v 0.156870 -0.084277 -0.232234
v 0.024752 0.108648 -0.279576
v 0.228110 -0.154416 -0.045698
v 0.264974 -0.008596 -0.086621
v 0.237316 -0.068289 -0.163852
v 0.177963 0.047407 -0.194949
v 0.104217 0.231862 -0.105675
v -0.221045 0.056782 0.121041
v -0.153634 -0.025206 0.187018
v -0.026482 -0.150293 0.164174
v -0.031589 0.016326 0.273299
v -0.068949 -0.088831 0.192674
v -0.228785 0.096857 0.011569
v -0.195459 0.095767 -0.080615
v -0.108496 -0.084868 -0.208313
v -0.171269 0.000647 -0.189693
v -0.007515 -0.174364 -0.150357
v -0.150416 0.076496 -0.138885
v -0.122109 0.126430 -0.161975
v -0.002207 0.151260 -0.179467
v 0.048252 -0.170810 0.074930
v 0.127760 -0.159268 0.054183
v 0.205082 -0.109619 0.050095
v 0.225650 -0.044889 0.038463
v 0.099033 0.131451 0.256891
v 0.194971 0.125508 0.154367
v 0.050565 -0.048489 -0.247670
v 0.077749 0.048986 -0.231242
v 0.215601 0.074874 0.033760
v 0.173020 0.117215 -0.111027
vn -0.3314 -0.8040 0.4937
vn -0.6686 -0.1899 0.7190
vn -0.8064 -0.5537 0.2074
vn -0.8968 0.4392 -0.0528
vn -0.9102 0.3973 0.1168
vn -0.7368 0.4975 -0.4578
vn 0.0268 -0.9630 0.2680
vn -0.4476 -0.5250 0.7239
vn -0.0912 -0.8064 0.5843
vn -0.4006 -0.3822 0.8327
vn -0.0589 -0.5062 0.8604
vn -0.4306 -0.0075 0.9025
vn -0.5187 -0.0142 0.8548
vn -0.4910 -0.1291 0.8615
vn 0.2474 -0.9309 0.2687
vn 0.2519 -0.9428 0.2182
vn -0.7998 0.2776 0.5322
vn -0.5363 0.4136 0.7357
vn -0.8935 0.4361 -0.1070
vn -0.8810 0.2007 0.4285
vn -0.0572 0.6372 0.7686
vn -0.6119 0.7077 0.3532
vn 0.2208 0.9705 0.0963
vn -0.9296 -0.2654 -0.2558
vn -0.4495 -0.8656 -0.2207
vn -0.2624 -0.5296 -0.8067
vn -0.6630 0.1798 -0.7267
vn -0.7527 0.4340 -0.4951
vn -0.7520 0.4217 -0.5066
vn -0.3704 -0.7200 -0.5869
vn -0.7476 0.1574 -0.6452
vn -0.8150 0.1723 -0.5533
vn 0.2061 -0.3534 -0.9125
vn 0.0333 -0.7482 -0.6626
vn -0.2684 -0.5610 -0.7831
vn -0.6625 0.6014 -0.4466
vn 0.4023 -0.2175 -0.8893
vn -0.2237 -0.5656 -0.7938
vn 0.1293 -0.1316 -0.9828
vn -0.4718 0.8716 -0.1329
vn -0.0624 0.8384 -0.5415
vn -0.2547 0.8091 -0.5295
vn 0.1716 0.7730 -0.6107
vn 0.7306 -0.3997 0.5536
vn 0.2155 -0.3239 0.9212
vn 0.2114 0.5709 0.7933
vn -0.1929 0.2375 0.9520
vn 0.3270 -0.9418 0.0780
vn 0.3696 -0.9286 0.0335
vn 0.8254 -0.5617 0.0558
vn 0.6407 -0.7677 -0.0144
vn 0.5283 0.4806 0.6999
vn 0.9945 0.0785 0.0692
vn 0.8215 0.4874 0.2961
vn 0.6013 0.6860 0.4097
vn 0.8921 0.4468 -0.0666
vn 0.5501 0.3713 -0.7480
vn 0.5687 0.5858 -0.5774
vn 0.9670 0.2462 -0.0651
vn 0.9909 -0.1349 0.0021
vn 0.9812 0.1664 -0.0979
vn 0.7588 -0.6410 0.1155
vn 0.7026 0.5175 -0.4884
vn 0.5440 0.4693 -0.6956
vn 0.8407 -0.1640 -0.5161
vn 0.4817 0.6364 -0.6024
vn 0.1580 -0.8963 -0.4144
vn 0.3298 -0.8552 -0.3998
s 1
g off
f 3//1 4//2 2//3
f 51//4 11//5 24//6
f 28//7 5//8 48//9
f 50//10 7//11 48//9
f 49//12 6//13 47//14
f 48//9 8//15 59//16
f 46//17 6//13 10//18
f 16//19 1//20 46//17
f 13//21 10//18 6//13
f 12//22 10//18 13//21
f 14//23 12//22 13//21
f 2//3 4//2 15//24
f 15//24 1//20 16//19
f 17//25 2//3 15//24
f 51//4 46//17 11//5
f 17//25 15//24 20//26
f 19//27 20//26 15//24
f 52//28 24//6 56//29
f 21//30 54//31 22//32
f 65//33 55//34 53//35
f 22//32 54//31 57//36
f 65//33 39//37 38//38
f 53//35 55//34 20//26
f 54//31 53//35 19//27
f 23//39 21//30 22//32
f 52//28 51//4 24//6
f 16//19 51//4 52//28
f 11//5 12//22 25//40
f 19//27 52//28 56//29
f 26//41 24//6 25//40
f 25//40 14//23 26//41
f 57//36 24//6 26//41
f 27//42 57//36 58//43
f 27//42 23//39 22//32
f 59//16 28//7 48//9
f 28//7 30//44 29//45
f 63//46 13//21 49//12
f 5//8 29//45 31//47
f 7//11 8//15 48//9
f 59//16 60//48 28//7
f 9//49 60//48 59//16
f 60//48 61//50 33//51
f 32//52 29//45 30//44
f 34//53 32//52 30//44
f 34//53 30//44 33//51
f 64//54 35//55 63//46
f 13//21 35//55 14//23
f 36//56 35//55 64//54
f 34//53 64//54 32//52
f 14//23 35//55 36//56
f 24//6 57//36 56//29
f 21//30 65//33 53//35
f 66//57 39//37 65//33
f 23//39 66//57 65//33
f 21//30 23//39 65//33
f 40//58 58//43 66//57
f 33//51 28//7 60//48
f 67//59 34//53 62//60
f 42//61 62//60 41//62
f 42//61 68//63 67//59
f 44//64 43//65 39//37
f 42//61 43//65 44//64
f 66//57 68//63 44//64
f 68//63 36//56 67//59
f 68//63 58//43 45//66
f 63//46 31//47 32//52
f 36//56 68//63 45//66
f 7//11 4//2 3//1
f 4//2 7//11 47//14
f 47//14 46//17 4//2
f 51//4 16//19 46//17
f 50//10 47//14 7//11
f 49//12 13//21 6//13
f 8//15 7//11 3//1
f 49//12 47//14 50//10
f 48//9 5//8 50//10
f 49//12 50//10 5//8
f 46//17 47//14 6//13
f 11//5 46//17 12//22
f 12//22 46//17 10//18
f 49//12 31//47 63//46
f 25//40 12//22 14//23
f 15//24 4//2 1//20
f 16//19 19//27 15//24
f 17//25 3//1 2//3
f 17//25 8//15 3//1
f 53//35 20//26 19//27
f 20//26 18//67 17//25
f 54//31 56//29 57//36
f 19//27 56//29 54//31
f 18//67 8//15 17//25
f 18//67 9//49 8//15
f 37//68 9//49 55//34
f 53//35 54//31 21//30
f 55//34 18//67 20//26
f 40//58 66//57 23//39
f 25//40 24//6 11//5
f 16//19 52//28 19//27
f 27//42 22//32 57//36
f 26//41 58//43 57//36
f 58//43 40//58 27//42
f 27//42 40//58 23//39
f 5//8 28//7 29//45
f 28//7 33//51 30//44
f 32//52 31//47 29//45
f 61//50 60//48 41//62
f 62//60 61//50 41//62
f 67//59 64//54 34//53
f 61//50 34//53 33//51
f 49//12 5//8 31//47
f 35//55 13//21 63//46
f 64//54 63//46 32//52
f 67//59 36//56 64//54
f 59//16 8//15 9//49
f 9//49 41//62 60//48
f 38//38 37//68 55//34
f 9//49 18//67 55//34
f 65//33 38//38 55//34
f 38//38 39//37 37//68
f 37//68 41//62 9//49
f 61//50 62//60 34//53
f 42//61 44//64 68//63
f 42//61 67//59 62//60
f 39//37 43//65 37//68
f 37//68 43//65 41//62
f 43//65 42//61 41//62
f 58//43 68//63 66//57
f 45//66 26//41 14//23
f 45//66 58//43 26//41
f 39//37 66//57 44//64
f 45//66 14//23 36//56
f 46//17 1//20 4//2
