# Blender v3.0.0 OBJ File: 'world.blend'
# www.blender.org
mtllib innerTire.mtl
o Circle.005_Circle.007
v 0.242212 0.000000 -0.044721
v 0.242212 0.017114 -0.041317
v 0.242212 0.031622 -0.031622
v 0.242212 0.041317 -0.017114
v 0.242212 0.044721 0.000000
v 0.242212 0.041317 0.017114
v 0.242212 0.031622 0.031622
v 0.242212 0.017114 0.041317
v 0.242212 -0.000000 0.044721
v 0.242212 -0.017114 0.041317
v 0.242212 -0.031622 0.031622
v 0.242212 -0.041317 0.017114
v 0.242212 -0.044721 0.000000
v 0.242212 -0.041317 -0.017114
v 0.242212 -0.031622 -0.031622
v 0.242212 -0.017114 -0.041317
v 0.222344 0.000000 -0.132729
v 0.221796 0.000000 -0.135622
v 0.221796 0.051900 -0.125299
v 0.222344 0.050793 -0.122626
v 0.221796 0.095900 -0.095899
v 0.222344 0.093854 -0.093854
v 0.221796 0.125299 -0.051900
v 0.222344 0.122626 -0.050793
v 0.221796 0.135622 0.000000
v 0.222344 0.132729 0.000000
v 0.221796 0.125299 0.051900
v 0.222344 0.122626 0.050793
v 0.221796 0.095900 0.095900
v 0.222344 0.093854 0.093854
v 0.221796 0.051900 0.125299
v 0.222344 0.050793 0.122626
v 0.221796 -0.000000 0.135622
v 0.222344 -0.000000 0.132729
v 0.221796 -0.051900 0.125299
v 0.222344 -0.050793 0.122626
v 0.221796 -0.095900 0.095900
v 0.222344 -0.093854 0.093854
v 0.221796 -0.125299 0.051900
v 0.222344 -0.122626 0.050793
v 0.221796 -0.135622 0.000000
v 0.222344 -0.132729 0.000000
v 0.221796 -0.125299 -0.051900
v 0.222344 -0.122626 -0.050793
v 0.221796 -0.095900 -0.095899
v 0.222344 -0.093854 -0.093854
v 0.221796 -0.051900 -0.125299
v 0.222344 -0.050793 -0.122626
v 0.176619 0.000000 -0.188980
v 0.176719 0.000000 -0.191456
v 0.176719 0.073267 -0.176882
v 0.176619 0.072319 -0.174594
v 0.176719 0.135380 -0.135380
v 0.176619 0.133629 -0.133629
v 0.176719 0.176882 -0.073267
v 0.176619 0.174594 -0.072319
v 0.176719 0.191456 0.000000
v 0.176619 0.188980 0.000000
v 0.176719 0.176882 0.073267
v 0.176619 0.174594 0.072319
v 0.176719 0.135380 0.135380
v 0.176619 0.133629 0.133629
v 0.176719 0.073267 0.176882
v 0.176619 0.072319 0.174594
v 0.176719 -0.000000 0.191456
v 0.176619 -0.000000 0.188980
v 0.176719 -0.073267 0.176882
v 0.176619 -0.072319 0.174594
v 0.176719 -0.135380 0.135380
v 0.176619 -0.133629 0.133629
v 0.176719 -0.176882 0.073267
v 0.176619 -0.174594 0.072319
v 0.176719 -0.191456 0.000000
v 0.176619 -0.188980 0.000000
v 0.176719 -0.176882 -0.073267
v 0.176619 -0.174594 -0.072319
v 0.176719 -0.135380 -0.135380
v 0.176619 -0.133629 -0.133629
v 0.176719 -0.073267 -0.176882
v 0.176619 -0.072319 -0.174594
v 0.210535 0.000000 -0.093477
v 0.210155 0.000000 -0.096500
v 0.210155 0.036929 -0.089154
v 0.210535 0.035772 -0.086361
v 0.210155 0.068236 -0.068236
v 0.210535 0.066098 -0.066098
v 0.210155 0.089154 -0.036929
v 0.210535 0.086361 -0.035772
v 0.210155 0.096500 0.000000
v 0.210535 0.093477 0.000000
v 0.210155 0.089154 0.036929
v 0.210535 0.086361 0.035772
v 0.210155 0.068236 0.068236
v 0.210535 0.066098 0.066098
v 0.210155 0.036929 0.089154
v 0.210535 0.035772 0.086361
v 0.210155 -0.000000 0.096500
v 0.210535 -0.000000 0.093477
v 0.210155 -0.036929 0.089154
v 0.210535 -0.035772 0.086361
v 0.210155 -0.068236 0.068236
v 0.210535 -0.066098 0.066098
v 0.210155 -0.089154 0.036929
v 0.210535 -0.086361 0.035772
v 0.210155 -0.096500 0.000000
v 0.210535 -0.093477 0.000000
v 0.210155 -0.089154 -0.036929
v 0.210535 -0.086361 -0.035772
v 0.210155 -0.068236 -0.068236
v 0.210535 -0.066098 -0.066098
v 0.210155 -0.036929 -0.089154
v 0.210535 -0.035772 -0.086361
vt 0.000000 0.000000
vt 0.000000 0.000000
vt 0.000000 0.000000
vt 0.000000 0.000000
vt 0.000000 0.000000
vt 0.000000 0.000000
vt 0.000000 0.000000
vt 0.000000 0.000000
vt 0.000000 0.000000
vt 0.000000 0.000000
vt 0.000000 0.000000
vt 0.000000 0.000000
vt 0.000000 0.000000
vt 0.000000 0.000000
vt 0.000000 0.000000
vt 0.000000 0.000000
vt 0.000000 0.000000
vt 0.000000 0.000000
vt 0.000000 0.000000
vt 0.000000 0.000000
vt 0.000000 0.000000
vt 0.000000 0.000000
vt 0.000000 0.000000
vt 0.000000 0.000000
vt 0.000000 0.000000
vt 0.000000 0.000000
vt 0.000000 0.000000
vt 0.000000 0.000000
vt 0.000000 0.000000
vt 0.000000 0.000000
vt 0.000000 0.000000
vt 0.000000 0.000000
vt 0.000000 0.000000
vt 0.000000 0.000000
vt 0.000000 0.000000
vt 0.000000 0.000000
vt 0.000000 0.000000
vt 0.000000 0.000000
vt 0.000000 0.000000
vt 0.000000 0.000000
vt 0.000000 0.000000
vt 0.000000 0.000000
vt 0.000000 0.000000
vt 0.000000 0.000000
vt 0.000000 0.000000
vt 0.000000 0.000000
vt 0.000000 0.000000
vt 0.000000 0.000000
vt 0.000000 0.000000
vt 0.000000 0.000000
vt 0.000000 0.000000
vt 0.000000 0.000000
vt 0.000000 0.000000
vt 0.000000 0.000000
vt 0.000000 0.000000
vt 0.000000 0.000000
vt 0.000000 0.000000
vt 0.000000 0.000000
vt 0.000000 0.000000
vt 0.000000 0.000000
vt 0.000000 0.000000
vt 0.000000 0.000000
vt 0.000000 0.000000
vt 0.000000 0.000000
vt 0.000000 0.000000
vt 0.000000 0.000000
vt 0.000000 0.000000
vt 0.000000 0.000000
vt 0.000000 0.000000
vt 0.000000 0.000000
vt 0.000000 0.000000
vt 0.000000 0.000000
vt 0.000000 0.000000
vt 0.000000 0.000000
vt 0.000000 0.000000
vt 0.000000 0.000000
vt 0.000000 0.000000
vt 0.000000 0.000000
vt 0.000000 0.000000
vt 0.000000 0.000000
vt 0.000000 0.000000
vt 0.000000 0.000000
vt 0.000000 0.000000
vt 0.000000 0.000000
vt 0.000000 0.000000
vt 0.000000 0.000000
vt 0.000000 0.000000
vt 0.000000 0.000000
vt 0.000000 0.000000
vt 0.000000 0.000000
vt 0.000000 0.000000
vt 0.000000 0.000000
vt 0.000000 0.000000
vt 0.000000 0.000000
vt 0.000000 0.000000
vt 0.000000 0.000000
vt 0.000000 0.000000
vt 0.000000 0.000000
vt 0.000000 0.000000
vt 0.000000 0.000000
vt 0.000000 0.000000
vt 0.000000 0.000000
vt 0.000000 0.000000
vt 0.000000 0.000000
vt 0.000000 0.000000
vt 0.000000 0.000000
vt 0.000000 0.000000
vt 0.000000 0.000000
vt 0.000000 0.000000
vt 0.000000 0.000000
vt 0.000000 0.000000
vt 0.000000 0.000000
vn 0.9993 0.0141 0.0342
vn 0.9919 0.0898 0.0898
vn 0.9993 0.0261 0.0262
vn 0.9993 0.0000 -0.0370
vn 0.9919 -0.0486 -0.1174
vn 0.9993 -0.0141 -0.0342
vn 0.9993 0.0141 -0.0342
vn 0.9919 0.0000 -0.1270
vn 0.9919 0.0000 0.1270
vn 0.9919 0.0486 0.1174
vn 0.8902 0.0000 -0.4556
vn 0.9590 0.1084 -0.2618
vn 0.8902 0.1744 -0.4209
vn 0.9993 0.0262 -0.0262
vn 0.9919 0.0486 -0.1174
vn 0.9993 -0.0261 0.0262
vn 0.9919 -0.1174 0.0486
vn 0.9919 -0.0898 0.0898
vn 0.9993 0.0342 -0.0141
vn 0.9919 0.0898 -0.0898
vn 0.9993 -0.0342 0.0141
vn 0.9919 -0.1270 0.0000
vn 0.9919 0.1270 0.0000
vn 0.9919 0.1174 -0.0486
vn 0.9993 -0.0370 0.0000
vn 0.9919 -0.1174 -0.0486
vn 0.9993 0.0342 0.0141
vn 0.9993 0.0370 0.0000
vn 0.9993 -0.0261 -0.0262
vn 0.9993 -0.0342 -0.0141
vn 0.9919 0.1174 0.0486
vn 0.9919 -0.0898 -0.0898
vn 0.9480 0.1218 -0.2940
vn 0.9487 0.0000 -0.3161
vn 0.9480 0.0000 -0.3183
vn 0.8902 -0.4209 -0.1744
vn 0.9590 -0.2004 -0.2004
vn 0.8902 -0.3222 -0.3222
vn 0.8902 0.3222 0.3222
vn 0.9590 0.1084 0.2618
vn 0.8902 0.1744 0.4209
vn 0.9590 -0.1084 -0.2618
vn 0.8902 -0.1744 -0.4209
vn 0.9590 0.0000 0.2833
vn 0.8902 0.0000 0.4556
vn 0.9590 0.0000 -0.2833
vn 0.9993 -0.0141 0.0342
vn 0.9919 -0.0486 0.1174
vn 0.8902 -0.1744 0.4209
vn 0.9590 -0.1084 0.2618
vn 0.9590 0.2004 -0.2003
vn 0.8902 0.3222 -0.3222
vn 0.8902 -0.3222 0.3222
vn 0.9590 -0.2004 0.2004
vn 0.9590 0.2618 -0.1084
vn 0.8902 0.4209 -0.1744
vn 0.9590 -0.2618 0.1084
vn 0.8902 -0.4209 0.1744
vn 0.8902 0.4556 0.0000
vn 0.9590 0.2833 0.0000
vn 0.9590 -0.2833 0.0000
vn 0.8902 -0.4556 0.0000
vn 0.8902 0.4209 0.1744
vn 0.9590 0.2618 0.1084
vn 0.9590 -0.2618 -0.1084
vn 0.9590 0.2003 0.2003
vn 0.9480 -0.2940 -0.1218
vn 0.9487 -0.3161 0.0000
vn 0.9480 -0.3183 0.0000
vn 0.9487 0.3161 0.0000
vn 0.9487 0.0000 0.3161
vn 0.9480 0.2250 0.2250
vn 0.9487 0.2920 0.1209
vn 0.9480 0.2940 0.1218
vn 0.9480 -0.2250 -0.2250
vn 0.9487 -0.2920 -0.1209
vn 0.9480 0.1218 0.2940
vn 0.9487 0.2235 0.2235
vn 0.9480 -0.1218 -0.2940
vn 0.9487 -0.2235 -0.2235
vn 0.9480 0.0000 0.3183
vn 0.9487 0.1209 0.2920
vn 0.9487 -0.1209 0.2920
vn 0.9487 -0.1209 -0.2920
vn 0.9480 0.2250 -0.2250
vn 0.9487 0.1209 -0.2920
vn 0.9480 -0.1218 0.2940
vn 0.9487 -0.2235 0.2235
vn 0.9480 0.2940 -0.1218
vn 0.9487 0.2235 -0.2235
vn 0.9480 -0.2940 0.1218
vn 0.9480 -0.2250 0.2250
vn 0.9480 0.3183 0.0000
vn 0.9487 0.2920 -0.1209
vn 0.9487 -0.2920 0.1209
vn 0.9993 0.0000 0.0370
vn 0.9992 0.0000 0.0404
vn 0.9992 -0.0155 0.0374
vn 0.9992 -0.0286 0.0286
vn 0.9992 -0.0374 0.0155
vn 0.9992 -0.0404 0.0000
vn 0.9992 -0.0374 -0.0155
vn 0.9992 -0.0286 -0.0286
vn 0.9992 -0.0155 -0.0374
vn 0.9992 0.0000 -0.0404
vn 0.9992 0.0155 -0.0374
vn 0.9992 0.0286 -0.0286
vn 0.9992 0.0374 -0.0155
vn 0.9992 0.0404 0.0000
vn 0.9992 0.0374 0.0155
vn 0.9992 0.0286 0.0286
vn 0.9992 0.0155 0.0374
usemtl metal
s 1
f 48/1/1 109/2/2 46/3/3
f 34/4/4 95/5/5 32/6/6
f 36/7/7 97/8/8 34/4/4
f 48/1/1 82/9/9 111/10/10
f 18/11/11 52/12/12 19/13/13
f 38/14/14 99/15/15 36/7/7
f 22/16/16 87/17/17 85/18/18
f 40/19/19 101/20/20 38/14/14
f 24/21/21 89/22/22 87/17/17
f 40/19/19 105/23/23 103/24/24
f 26/25/25 91/26/26 89/22/22
f 44/27/27 105/23/23 42/28/28
f 30/29/29 91/26/26 28/30/30
f 46/3/3 107/31/31 44/27/27
f 32/6/6 93/32/32 30/29/29
f 84/33/33 1/34/34 81/35/35
f 43/36/36 78/37/37 45/38/38
f 29/39/39 64/40/40 31/41/41
f 45/38/38 80/42/42 47/43/43
f 31/41/41 66/44/44 33/45/45
f 18/11/11 80/42/42 49/46/46
f 20/47/47 85/18/18 83/48/48
f 35/49/49 66/44/44 68/50/50
f 19/13/13 54/51/51 21/52/52
f 37/53/53 68/50/50 70/54/54
f 21/52/52 56/55/55 23/56/56
f 37/53/53 72/57/57 39/58/58
f 25/59/59 56/55/55 58/60/60
f 39/58/58 74/61/61 41/62/62
f 27/63/63 58/60/60 60/64/64
f 41/62/62 76/65/65 43/36/36
f 27/63/63 62/66/66 29/39/39
f 108/67/67 13/68/68 106/69/69
f 5/70/70 9/71/71 13/68/68
f 94/72/72 6/73/73 92/74/74
f 110/75/75 14/76/76 108/67/67
f 96/77/77 7/78/78 94/72/72
f 112/79/79 15/80/80 110/75/75
f 98/81/81 8/82/82 96/77/77
f 98/81/81 10/83/83 9/71/71
f 81/35/35 16/84/84 112/79/79
f 86/85/85 2/86/86 84/33/33
f 100/87/87 11/88/88 10/83/83
f 88/89/89 3/90/90 86/85/85
f 104/91/91 11/88/88 102/92/92
f 90/93/93 4/94/94 88/89/89
f 106/69/69 12/95/95 104/91/91
f 90/93/93 6/73/73 5/70/70
f 20/47/47 18/11/11 19/13/13
f 22/16/16 19/13/13 21/52/52
f 22/16/16 23/56/56 24/21/21
f 24/21/21 25/59/59 26/25/25
f 28/30/30 25/59/59 27/63/63
f 30/29/29 27/63/63 29/39/39
f 30/29/29 31/41/41 32/6/6
f 32/6/6 33/45/45 34/4/4
f 36/7/7 33/45/45 35/49/49
f 36/7/7 37/53/53 38/14/14
f 40/19/19 37/53/53 39/58/58
f 40/19/19 41/62/62 42/28/28
f 42/28/28 43/36/36 44/27/27
f 44/27/27 45/38/38 46/3/3
f 46/3/3 47/43/43 48/1/1
f 48/1/1 18/11/11 17/96/96
f 52/12/12 50/97/97 51/98/98
f 52/12/12 53/99/99 54/51/51
f 56/55/55 53/99/99 55/100/100
f 56/55/55 57/101/101 58/60/60
f 60/64/64 57/101/101 59/102/102
f 62/66/66 59/102/102 61/103/103
f 64/40/40 61/103/103 63/104/104
f 64/40/40 65/105/105 66/44/44
f 68/50/50 65/105/105 67/106/106
f 68/50/50 69/107/107 70/54/54
f 70/54/54 71/108/108 72/57/57
f 74/61/61 71/108/108 73/109/109
f 74/61/61 75/110/110 76/65/65
f 78/37/37 75/110/110 77/111/111
f 78/37/37 79/112/112 80/42/42
f 49/46/46 79/112/112 50/97/97
f 81/35/35 83/48/48 84/33/33
f 84/33/33 85/18/18 86/85/85
f 88/89/89 85/18/18 87/17/17
f 88/89/89 89/22/22 90/93/93
f 90/93/93 91/26/26 92/74/74
f 92/74/74 93/32/32 94/72/72
f 96/77/77 93/32/32 95/5/5
f 96/77/77 97/8/8 98/81/81
f 98/81/81 99/15/15 100/87/87
f 102/92/92 99/15/15 101/20/20
f 102/92/92 103/24/24 104/91/91
f 104/91/91 105/23/23 106/69/69
f 106/69/69 107/31/31 108/67/67
f 108/67/67 109/2/2 110/75/75
f 110/75/75 111/10/10 112/79/79
f 81/35/35 111/10/10 82/9/9
f 20/47/47 82/9/9 17/96/96
f 48/1/1 111/10/10 109/2/2
f 34/4/4 97/8/8 95/5/5
f 36/7/7 99/15/15 97/8/8
f 48/1/1 17/96/96 82/9/9
f 18/11/11 49/46/46 52/12/12
f 38/14/14 101/20/20 99/15/15
f 22/16/16 24/21/21 87/17/17
f 40/19/19 103/24/24 101/20/20
f 24/21/21 26/25/25 89/22/22
f 40/19/19 42/28/28 105/23/23
f 26/25/25 28/30/30 91/26/26
f 44/27/27 107/31/31 105/23/23
f 30/29/29 93/32/32 91/26/26
f 46/3/3 109/2/2 107/31/31
f 32/6/6 95/5/5 93/32/32
f 84/33/33 2/86/86 1/34/34
f 43/36/36 76/65/65 78/37/37
f 29/39/39 62/66/66 64/40/40
f 45/38/38 78/37/37 80/42/42
f 31/41/41 64/40/40 66/44/44
f 18/11/11 47/43/43 80/42/42
f 20/47/47 22/16/16 85/18/18
f 35/49/49 33/45/45 66/44/44
f 19/13/13 52/12/12 54/51/51
f 37/53/53 35/49/49 68/50/50
f 21/52/52 54/51/51 56/55/55
f 37/53/53 70/54/54 72/57/57
f 25/59/59 23/56/56 56/55/55
f 39/58/58 72/57/57 74/61/61
f 27/63/63 25/59/59 58/60/60
f 41/62/62 74/61/61 76/65/65
f 27/63/63 60/64/64 62/66/66
f 108/67/67 14/76/76 13/68/68
f 1/34/34 2/86/86 5/70/70
f 2/86/86 3/90/90 5/70/70
f 3/90/90 4/94/94 5/70/70
f 5/70/70 6/73/73 7/78/78
f 7/78/78 8/82/82 9/71/71
f 9/71/71 10/83/83 13/68/68
f 10/83/83 11/88/88 13/68/68
f 11/88/88 12/95/95 13/68/68
f 13/68/68 14/76/76 15/80/80
f 15/80/80 16/84/84 13/68/68
f 16/84/84 1/34/34 13/68/68
f 5/70/70 7/78/78 9/71/71
f 1/34/34 5/70/70 13/68/68
f 94/72/72 7/78/78 6/73/73
f 110/75/75 15/80/80 14/76/76
f 96/77/77 8/82/82 7/78/78
f 112/79/79 16/84/84 15/80/80
f 98/81/81 9/71/71 8/82/82
f 98/81/81 100/87/87 10/83/83
f 81/35/35 1/34/34 16/84/84
f 86/85/85 3/90/90 2/86/86
f 100/87/87 102/92/92 11/88/88
f 88/89/89 4/94/94 3/90/90
f 104/91/91 12/95/95 11/88/88
f 90/93/93 5/70/70 4/94/94
f 106/69/69 13/68/68 12/95/95
f 90/93/93 92/74/74 6/73/73
f 20/47/47 17/96/96 18/11/11
f 22/16/16 20/47/47 19/13/13
f 22/16/16 21/52/52 23/56/56
f 24/21/21 23/56/56 25/59/59
f 28/30/30 26/25/25 25/59/59
f 30/29/29 28/30/30 27/63/63
f 30/29/29 29/39/39 31/41/41
f 32/6/6 31/41/41 33/45/45
f 36/7/7 34/4/4 33/45/45
f 36/7/7 35/49/49 37/53/53
f 40/19/19 38/14/14 37/53/53
f 40/19/19 39/58/58 41/62/62
f 42/28/28 41/62/62 43/36/36
f 44/27/27 43/36/36 45/38/38
f 46/3/3 45/38/38 47/43/43
f 48/1/1 47/43/43 18/11/11
f 52/12/12 49/46/46 50/97/97
f 52/12/12 51/98/98 53/99/99
f 56/55/55 54/51/51 53/99/99
f 56/55/55 55/100/100 57/101/101
f 60/64/64 58/60/60 57/101/101
f 62/66/66 60/64/64 59/102/102
f 64/40/40 62/66/66 61/103/103
f 64/40/40 63/104/104 65/105/105
f 68/50/50 66/44/44 65/105/105
f 68/50/50 67/106/106 69/107/107
f 70/54/54 69/107/107 71/108/108
f 74/61/61 72/57/57 71/108/108
f 74/61/61 73/109/109 75/110/110
f 78/37/37 76/65/65 75/110/110
f 78/37/37 77/111/111 79/112/112
f 49/46/46 80/42/42 79/112/112
f 81/35/35 82/9/9 83/48/48
f 84/33/33 83/48/48 85/18/18
f 88/89/89 86/85/85 85/18/18
f 88/89/89 87/17/17 89/22/22
f 90/93/93 89/22/22 91/26/26
f 92/74/74 91/26/26 93/32/32
f 96/77/77 94/72/72 93/32/32
f 96/77/77 95/5/5 97/8/8
f 98/81/81 97/8/8 99/15/15
f 102/92/92 100/87/87 99/15/15
f 102/92/92 101/20/20 103/24/24
f 104/91/91 103/24/24 105/23/23
f 106/69/69 105/23/23 107/31/31
f 108/67/67 107/31/31 109/2/2
f 110/75/75 109/2/2 111/10/10
f 81/35/35 112/79/79 111/10/10
f 20/47/47 83/48/48 82/9/9
