# Blender v3.0.0 OBJ File: ''
# www.blender.org
mtllib untitled.mtl
o Cube
v -0.117482 6.566016 0.507329
v 0.461055 -0.715867 -0.575606
v -0.099807 6.504554 1.032359
v 0.646505 -0.573801 0.656281
v -0.674387 6.583819 0.525977
v -0.564712 -0.704029 -0.557923
v -0.685781 6.761856 1.072720
v -0.582123 -0.715867 0.467572
v 0.430916 5.231869 -0.526270
v 0.603375 4.247798 -1.054035
v 0.535952 2.235328 -0.634745
v 0.831445 0.538717 -0.397378
v -0.422417 0.538717 0.856484
v -0.316733 3.709433 0.182529
v 0.432428 4.929429 0.314266
v 0.670090 3.710043 0.091100
v 0.545695 2.058928 0.558256
v 0.760643 -0.034031 0.803950
v -0.392475 5.285537 -0.437735
v -0.252196 3.686219 -0.877707
v -0.551083 2.295189 -0.536496
v -0.556390 0.537920 -0.530876
v 0.172225 5.480430 -1.405951
v -0.056321 4.569520 -1.219293
v -0.692765 -0.791097 -0.162642
v -0.167434 -0.791097 -0.687973
v 0.759606 -0.211379 -0.602537
v -0.641486 -0.354579 -0.627311
v -0.470046 6.462190 1.104745
v 0.001243 6.387383 0.839796
v 0.028801 -0.785068 0.725576
v -0.754477 6.795335 0.871844
v -0.442322 6.634154 0.463797
v 0.720646 -0.785068 0.033731
v 0.155247 5.838861 0.015609
v 0.631102 3.104228 -0.759418
v 0.668626 1.348083 -0.554498
v -0.619712 -0.211379 0.776781
v -0.583009 1.349435 0.650284
v -0.452416 2.760386 0.368343
v -0.411369 5.342288 0.467114
v 0.631206 2.923337 0.323349
v 0.680840 1.169773 0.701576
v -0.333924 4.598854 -0.866689
v -0.413827 2.939192 -0.720718
v -0.573702 1.519945 -0.558807
v 0.312688 0.815631 -0.687578
v -0.127537 2.419451 -0.764243
v 0.170311 4.004234 -1.121529
v -0.000312 5.456946 -0.484391
v 0.945975 0.045407 0.376189
v 0.730535 2.540761 0.042358
v 0.769562 3.408068 -0.436340
v 0.337056 5.616253 0.161504
v -0.719676 0.830216 0.310863
v -0.646117 2.537675 0.021284
v -0.433807 3.998695 -0.430410
v -0.542713 5.545222 0.099248
v 0.336888 0.072750 0.979727
v 0.270687 3.738213 0.293914
v 0.559794 5.188147 -1.569013
v 0.415701 5.180003 -1.687768
v 0.446174 5.488906 -1.437198
v 0.858483 5.977298 -2.099668
v 0.778540 6.050069 -2.113584
v 0.774251 6.038185 -1.995480
v 0.355360 5.474245 -1.773287
v -0.500005 7.887982 0.982284
v -0.427253 7.900205 0.855937
v -0.581059 7.170369 1.160502
v -0.657175 7.459042 1.030605
v -0.069209 5.718522 0.737571
v -0.681729 6.199466 0.833886
v -0.293793 -0.936818 -0.293134
v -0.272266 5.971430 0.021989
v -0.232107 -0.474281 -0.814023
v -0.167075 1.607110 -0.725578
v 0.303906 3.172461 -0.890208
v 0.575378 4.782779 -1.032304
v 0.917740 -0.443659 -0.174063
v 0.810366 1.555293 -0.137891
v 0.574290 4.754664 0.049145
v -0.826525 -0.473729 -0.216284
v -0.711868 1.608769 -0.173397
v -0.515761 3.200672 -0.423166
v -0.457690 4.749641 0.039477
v -0.169598 -0.445813 0.933209
v -0.191725 1.633498 0.794082
v 0.290464 3.129849 0.425004
v -0.100024 4.854774 0.411309
v 0.142051 5.383967 -0.923640
v -0.059625 5.319966 -1.186393
v 0.433039 4.507913 -1.325970
v 0.517123 5.868032 -1.862199
v -0.283685 7.506396 0.779257
v -0.600164 7.564274 0.753044
v -0.323821 7.549246 1.084400
v 0.865344 1.045799 0.346370
v 0.323831 1.045799 0.887882
v -0.145539 2.643517 0.549811
v 0.740278 5.613312 -1.923546
v 0.294565 -0.928121 0.296214
v 0.386576 0.025678 -0.767628
v -0.789631 0.025678 0.408579
vt 0.616471 0.250000
vt 0.621004 0.139221
vt 0.624776 0.263420
vt 0.563014 0.748490
vt 0.590923 0.831238
vt 0.560909 0.878748
vt 0.572757 0.250000
vt 0.583090 0.145714
vt 0.210926 0.585955
vt 0.250000 0.500000
vt 0.375000 0.500000
vt 0.125000 0.625000
vt 0.125000 0.750000
vt 0.586417 0.594583
vt 0.611617 0.666615
vt 0.594167 0.500945
vt 0.570513 0.500000
vt 0.599389 0.374654
vt 0.579427 0.375579
vt 0.616667 0.513889
vt 0.391267 0.334730
vt 0.394907 0.250000
vt 0.425000 0.250000
vt 0.375000 0.375000
vt 0.425000 0.535354
vt 0.433793 0.412341
vt 0.450189 0.502206
vt 0.477778 0.486111
vt 0.483557 0.338202
vt 0.506845 0.409054
vt 0.389593 0.587166
vt 0.399537 0.503151
vt 0.354630 0.625000
vt 0.375000 0.750000
vt 0.499811 0.747794
vt 0.488120 0.650452
vt 0.525000 0.714647
vt 0.472222 0.763889
vt 0.515150 0.579728
vt 0.557539 0.662261
vt 0.391339 0.164927
vt 0.375000 0.125000
vt 0.375000 0.000000
vt 0.434238 0.088632
vt 0.457960 0.160433
vt 0.479667 0.226667
vt 0.487949 0.092211
vt 0.507685 0.165941
vt 0.521465 0.267677
vt 0.533599 0.160022
vt 0.542994 0.240649
vt 0.392473 0.912637
vt 0.375000 0.875000
vt 0.400000 1.000000
vt 0.425000 1.000000
vt 0.125000 0.500000
vt 0.525000 1.000000
vt 0.525930 0.845956
vt 0.526315 0.343515
vt 0.528067 0.422863
vt 0.538775 0.476370
vt 0.574290 0.364495
vt 0.559058 0.259840
vt 0.567929 0.285354
vt 0.530728 0.280805
vt 0.543883 0.415604
vt 0.533810 0.276947
vt 0.556956 0.259179
vt 0.558370 0.338137
vt 0.613958 0.778464
vt 0.624816 0.816909
vt 0.618826 0.375945
vt 0.628396 0.596320
vt 0.713800 0.581543
vt 0.624585 0.963115
vt 0.625000 0.874081
vt 0.625000 0.000000
vt 0.624987 0.088004
vt 0.625000 0.000000
vt 0.625000 0.117033
vt 0.614276 0.910774
vt 0.604125 0.047086
vt 0.455463 0.247569
vt 0.457507 0.337576
vt 0.505166 0.497191
vt 0.544706 0.499384
vt 0.527963 0.476352
vt 0.409149 0.670967
vt 0.456159 0.595574
vt 0.500113 0.249434
vt 0.570301 0.000000
vt 0.556726 0.090913
vt 0.525000 0.000000
vt 0.410126 0.831215
vt 0.458699 0.919631
vt 0.450935 1.000000
vt 0.506125 0.841060
vt 0.570301 1.000000
vt 0.569331 0.445918
vt 0.523606 0.348578
vt 0.525936 0.401032
vt 0.566851 0.395368
vt 0.799401 0.666754
vt 0.875000 0.500000
vt 0.375000 0.250000
vt 0.440901 0.671458
vt 0.444719 0.750945
vt 0.405551 0.750000
vt 0.500000 0.000000
vt 0.450935 0.000000
vt 0.425000 0.000000
vt 0.375000 1.000000
vt 0.440901 0.830215
vt 0.491596 0.920493
vt 0.500000 1.000000
vt 0.600000 1.000000
vt 0.625000 1.000000
vt 0.288889 0.666667
vt 0.250000 0.750000
vt 0.408333 0.421103
vt 0.408333 0.079861
vt 0.400000 0.000000
vn -0.9418 0.1419 -0.3049
vn 0.2154 -0.3518 0.9110
vn -0.9647 -0.0142 -0.2630
vn 0.1653 -0.9413 -0.2945
vn -0.2908 -0.9427 0.1636
vn 0.9483 0.1885 0.2553
vn 0.8179 0.5425 -0.1916
vn -0.3363 0.5643 -0.7540
vn 0.1729 0.5954 -0.7846
vn -0.3782 0.1350 -0.9158
vn 0.2040 -0.3257 -0.9232
vn 0.4533 -0.0811 -0.8877
vn 0.1238 -0.2323 -0.9647
vn 0.9389 0.0042 -0.3442
vn 0.8969 -0.3752 0.2342
vn 0.9571 0.0375 0.2873
vn 0.9420 -0.0020 0.3357
vn 0.9867 0.0958 0.1313
vn -0.9142 -0.3511 0.2024
vn -0.9177 0.1281 -0.3760
vn -0.9831 -0.0894 -0.1597
vn -0.9790 0.0625 -0.1940
vn -0.9419 -0.0804 -0.3262
vn 0.2369 -0.4026 0.8842
vn -0.3340 -0.0123 0.9425
vn -0.3227 -0.8497 -0.4169
vn -0.1763 -0.1606 0.9711
vn 0.4938 -0.6709 -0.5532
vn 0.4629 0.8864 0.0028
vn -0.4663 0.8726 0.1454
vn -0.7845 0.0237 -0.6196
vn -0.7867 -0.0630 -0.6141
vn 0.9465 -0.1769 0.2698
vn -0.7388 0.1554 -0.6557
vn 0.9117 0.1770 0.3707
vn -0.2990 0.2367 -0.9244
vn 0.1224 0.2325 -0.9649
vn -0.0810 0.2488 0.9652
vn -0.7858 0.0694 0.6146
vn -0.4554 0.2627 0.8506
vn -0.9393 0.3368 -0.0652
vn 0.2176 -0.3353 0.9166
vn -0.9443 -0.1344 0.3005
vn -0.9810 -0.1096 -0.1602
vn 0.9077 0.1239 0.4009
vn -0.1486 0.5684 -0.8092
vn 0.2265 0.5798 -0.7826
vn -0.3732 -0.0329 -0.9272
vn 0.1764 -0.0554 -0.9828
vn 0.3351 -0.1697 -0.9268
vn 0.9986 0.0518 0.0102
vn 0.9923 0.0629 -0.1068
vn 0.9220 0.1136 -0.3702
vn 0.9376 0.0124 0.3475
vn 0.9379 -0.0651 -0.3408
vn 0.9128 0.2053 0.3531
vn 0.9032 0.0996 0.4176
vn -0.9429 -0.0261 -0.3320
vn -0.9176 0.0844 -0.3885
vn -0.9658 -0.0978 0.2402
vn -0.9695 -0.0864 -0.2295
vn -0.1345 0.0426 0.9900
vn -0.4304 0.1415 0.8915
vn 0.3918 0.2050 0.8969
vn -0.1920 0.2008 0.9606
vn -0.1009 -0.1765 0.9791
vn -0.2882 -0.3213 -0.9021
vn 0.1290 0.9538 0.2713
vn -0.0080 0.9806 0.1956
vn -0.8190 0.0215 -0.5734
vn 0.4085 -0.5181 -0.7515
vn -0.5266 0.8476 0.0662
vn -0.7644 0.5131 -0.3905
vn 0.7205 0.5148 0.4647
vn 0.9414 0.3281 0.0778
vn -0.9415 0.0587 0.3318
vn -0.9754 0.1750 -0.1340
vn -0.3444 -0.3210 0.8822
vn 0.2463 -0.3319 0.9106
vn -0.9263 -0.3509 0.1372
vn -0.9899 -0.0765 -0.1192
vn 0.8194 0.5359 -0.2035
vn 0.2203 0.7409 -0.6345
vn -0.4637 -0.2695 -0.8440
vn 0.2267 0.0908 -0.9697
vn -0.1357 -0.1294 -0.9823
vn -0.2178 -0.0383 -0.9752
vn 0.9436 0.2768 0.1817
vn -0.4299 -0.1624 -0.8881
vn 0.7252 -0.4567 -0.5152
vn 0.9966 0.0391 -0.0721
vn 0.8655 0.3910 0.3131
vn 0.9083 0.0854 0.4094
vn 0.9899 0.1419 0.0047
vn -0.8356 -0.4133 -0.3618
vn 0.9812 0.0588 -0.1840
vn -0.8943 0.3569 0.2701
vn -0.9726 0.1298 0.1930
vn -0.8899 -0.0613 0.4521
vn -0.9877 0.0592 -0.1447
vn -0.9024 0.1632 0.3989
vn -0.9843 -0.1150 0.1337
vn -0.3613 -0.6313 0.6862
vn 0.3075 0.4070 0.8601
vn -0.1042 0.0921 0.9903
vn 0.4313 0.1048 0.8961
vn 0.1144 0.1495 0.9821
vn -0.3025 0.4822 0.8222
vn -0.4286 0.2309 0.8735
vn -0.1864 -0.3782 -0.9068
vn 0.1848 -0.0419 0.9819
vn 0.4472 -0.0759 0.8912
vn -0.0695 0.9802 -0.1854
vn 0.5890 -0.3670 -0.7200
vn -0.9035 0.1690 -0.3939
vn -0.2441 -0.4645 -0.8513
vn 0.8040 0.1132 0.5838
vn 0.1354 0.3151 -0.9393
vn -0.1636 0.7496 0.6414
vn 0.0535 0.7407 0.6697
vn -0.8633 0.2565 -0.4347
vn 0.9491 0.2300 -0.2153
vn 0.9638 0.2504 0.0916
vn 0.2701 0.0100 0.9628
vn -0.3099 -0.5499 0.7756
vn -0.3106 -0.1229 0.9425
vn -0.5652 -0.3259 0.7578
vn 0.2082 -0.9587 -0.1937
vn 0.3319 -0.8140 0.4766
vn -0.1934 -0.9605 0.2003
vn -0.1159 0.2330 -0.9656
vn -0.3219 0.4666 -0.8238
vn 0.4937 0.1851 -0.8497
vn 0.2481 -0.2194 -0.9436
vn -0.4691 -0.0192 -0.8829
vn 0.3263 -0.2043 -0.9229
vn -0.2974 -0.2999 -0.9064
vn 0.9115 -0.3295 0.2461
vn 0.9342 0.1360 -0.3298
vn 0.9539 -0.1768 -0.2425
vn -0.9311 -0.2386 0.2761
vn 0.9860 0.0443 0.1606
vn 0.9634 0.2676 -0.0181
vn -0.8372 0.1371 0.5294
vn -0.9759 0.0594 -0.2099
vn -0.9379 0.0373 -0.3448
vn -0.9856 0.0351 0.1653
vn -0.9065 0.1105 -0.4076
vn -0.9673 0.1014 0.2326
vn 0.2966 -0.3099 0.9033
vn -0.9542 -0.1225 0.2731
vn 0.4547 0.2017 0.8675
vn -0.4133 -0.3313 -0.8482
vn -0.7418 0.5531 -0.3792
vn -0.3115 -0.2818 -0.9075
vn -0.2366 -0.2569 -0.9370
vn 0.6604 0.7444 0.0989
vn -0.4160 -0.8504 -0.3221
vn 0.9063 0.4098 -0.1034
vn 0.3075 0.7076 -0.6362
vn -0.3635 -0.4075 -0.8377
vn 0.1818 -0.0616 -0.9814
vn -0.1752 -0.1660 -0.9704
vn 0.9715 0.2232 0.0793
vn 0.6923 -0.6222 -0.3656
vn 0.9922 0.0771 -0.0978
vn 0.9556 0.1825 0.2313
vn 0.8966 0.0962 0.4322
vn 0.9547 0.2973 0.0087
vn -0.8437 -0.2767 -0.4600
vn -0.9696 0.1726 0.1736
vn -0.9908 0.0001 -0.1353
vn -0.5002 -0.4793 0.7211
vn 0.2006 0.1855 0.9619
vn -0.0936 0.0763 0.9927
vn 0.4011 0.0914 0.9115
vn 0.1774 0.2237 0.9584
vn -0.1795 0.2137 0.9603
vn -0.4704 0.2146 0.8560
vn -0.1502 -0.3834 -0.9113
vn -0.4105 0.9009 -0.1411
vn 0.6042 -0.3656 -0.7080
vn 0.8248 0.0655 0.5616
vn 0.1888 0.3034 -0.9340
vn 0.1968 -0.0463 0.9794
vn -0.2076 -0.4394 0.8740
vn 0.2021 -0.9597 -0.1951
vn 0.4779 -0.8129 0.3328
vn -0.1921 -0.9595 0.2059
vn -0.2016 0.0801 -0.9762
vn 0.5375 0.1346 -0.8324
vn 0.2780 -0.2145 -0.9363
vn -0.3861 0.0378 -0.9217
vn 0.2766 -0.2335 -0.9322
vn 0.8983 -0.2821 0.3368
vn 0.9244 0.1051 -0.3667
vn 0.9667 -0.1369 -0.2161
vn -0.9376 -0.2425 0.2492
vn -0.8486 0.1700 0.5010
vn -0.9679 0.2212 -0.1197
vn -0.9700 0.1137 -0.2147
vn -0.8998 0.0885 -0.4272
vn 0.2561 -0.3316 0.9080
vn 0.4082 0.2399 0.8808
usemtl Material
s off
f 5/1/1 32/2/1 96/3/1
f 15/4/2 72/5/2 90/6/2
f 19/7/3 58/8/3 5/1/3
f 74/9/4 26/10/4 2/11/4
f 25/12/5 74/9/5 8/13/5
f 15/4/6 54/14/6 30/15/6
f 35/16/7 54/14/7 9/17/7
f 19/7/8 75/18/8 50/19/8
f 35/16/9 75/18/9 1/20/9
f 76/21/10 28/22/10 22/23/10
f 26/24/11 76/21/11 2/11/11
f 12/25/12 47/26/12 37/27/12
f 11/28/13 48/29/13 78/30/13
f 80/31/14 27/32/14 12/25/14
f 34/33/15 80/31/15 4/34/15
f 42/35/16 52/36/16 16/37/16
f 17/38/17 52/36/17 42/35/17
f 16/37/18 53/39/18 82/40/18
f 83/41/19 25/42/19 8/43/19
f 28/22/20 83/41/20 22/23/20
f 22/23/21 55/44/21 84/45/21
f 21/46/22 56/47/22 85/48/22
f 20/49/23 57/50/23 44/51/23
f 87/52/24 31/53/24 4/34/24
f 38/54/25 87/52/25 13/55/25
f 74/9/26 6/56/26 26/10/26
f 14/57/27 60/58/27 90/6/27
f 62/59/28 101/60/28 61/61/28
f 9/17/29 91/62/29 50/19/29
f 92/63/30 91/62/30 23/64/30
f 24/65/31 44/51/31 92/63/31
f 44/51/32 24/65/32 20/49/32
f 101/60/33 64/66/33 61/61/33
f 67/67/34 94/68/34 65/69/34
f 3/70/35 30/15/35 97/71/35
f 5/1/36 96/3/36 33/72/36
f 95/73/37 96/3/37 69/74/37
f 70/75/38 97/71/38 68/76/38
f 70/77/39 71/78/39 7/79/39
f 68/80/40 71/78/40 70/77/40
f 96/3/41 71/78/41 68/80/41
f 3/70/42 29/81/42 72/5/42
f 32/2/43 73/82/43 7/79/43
f 5/1/44 73/82/44 32/2/44
f 30/15/45 3/70/45 15/4/45
f 5/1/46 75/18/46 19/7/46
f 1/20/47 75/18/47 33/72/47
f 46/83/48 77/84/48 22/23/48
f 77/84/49 48/29/49 11/28/49
f 78/30/50 36/85/50 11/28/50
f 79/86/51 10/87/51 61/61/51
f 51/88/52 80/31/52 12/25/52
f 37/27/53 81/89/53 12/25/53
f 17/38/54 81/89/54 52/36/54
f 53/39/55 36/85/55 10/87/55
f 15/4/56 82/40/56 54/14/56
f 82/40/57 15/4/57 16/37/57
f 84/45/58 46/83/58 22/23/58
f 85/48/59 45/90/59 21/46/59
f 41/91/60 86/92/60 14/93/60
f 19/7/61 86/92/61 58/8/61
f 87/52/62 59/94/62 13/55/62
f 88/95/63 39/96/63 13/55/63
f 42/35/64 89/97/64 17/38/64
f 14/57/65 89/97/65 60/58/65
f 90/6/66 41/98/66 14/57/66
f 62/59/67 67/67/67 65/69/67
f 63/99/68 91/62/68 9/17/68
f 23/64/69 91/62/69 63/99/69
f 24/65/70 92/63/70 67/67/70
f 10/87/71 49/100/71 93/101/71
f 66/102/72 65/69/72 94/68/72
f 68/103/73 69/74/73 96/104/73
f 69/74/74 68/103/74 97/71/74
f 97/71/75 95/73/75 69/74/75
f 7/79/76 71/78/76 32/2/76
f 96/3/77 32/2/77 71/78/77
f 41/98/78 90/6/78 72/5/78
f 15/4/79 3/70/79 72/5/79
f 41/91/80 73/82/80 58/8/80
f 5/1/81 58/8/81 73/82/81
f 35/16/82 30/15/82 54/14/82
f 35/16/83 50/19/83 75/18/83
f 76/21/84 6/105/84 28/22/84
f 77/84/85 37/27/85 47/26/85
f 22/23/86 77/84/86 47/26/86
f 45/90/87 78/30/87 48/29/87
f 63/99/88 79/86/88 61/61/88
f 21/46/89 45/90/89 48/29/89
f 80/31/90 2/11/90 27/32/90
f 98/106/91 12/25/91 81/89/91
f 81/89/92 43/107/92 98/106/92
f 98/106/93 18/108/93 51/88/93
f 79/86/94 82/40/94 53/39/94
f 83/41/95 6/105/95 25/42/95
f 10/87/96 79/86/96 53/39/96
f 40/109/97 85/48/97 56/47/97
f 84/45/98 55/44/98 39/110/98
f 13/111/99 39/110/99 55/44/99
f 86/92/100 44/51/100 57/50/100
f 39/110/101 40/109/101 56/47/101
f 14/93/102 86/92/102 57/50/102
f 87/52/103 8/112/103 31/53/103
f 43/107/104 88/95/104 99/113/104
f 99/113/105 13/55/105 59/94/105
f 99/113/106 18/108/106 43/107/106
f 100/114/107 17/38/107 89/97/107
f 89/97/108 40/115/108 100/114/108
f 40/115/109 88/95/109 100/114/109
f 101/60/110 65/69/110 64/66/110
f 90/6/111 60/58/111 15/4/111
f 16/37/112 15/4/112 60/58/112
f 92/63/113 50/19/113 91/62/113
f 93/101/114 61/61/114 10/87/114
f 19/7/115 92/63/115 44/51/115
f 24/65/116 62/59/116 93/101/116
f 63/99/117 64/66/117 66/102/117
f 95/73/118 33/72/118 96/3/118
f 63/99/119 66/102/119 94/68/119
f 23/64/120 63/99/120 94/68/120
f 23/64/121 94/68/121 67/67/121
f 1/20/122 95/73/122 30/15/122
f 97/71/123 30/15/123 95/73/123
f 70/75/124 3/70/124 97/71/124
f 73/116/125 72/5/125 29/81/125
f 7/117/126 29/81/126 70/75/126
f 7/117/127 73/116/127 29/81/127
f 2/11/128 102/118/128 74/9/128
f 102/118/129 4/34/129 31/119/129
f 8/13/130 102/118/130 31/119/130
f 22/23/131 103/120/131 76/21/131
f 5/1/132 33/72/132 75/18/132
f 103/120/133 12/25/133 27/32/133
f 103/120/134 2/11/134 76/21/134
f 77/84/135 21/46/135 48/29/135
f 49/100/136 36/85/136 78/30/136
f 20/49/137 49/100/137 78/30/137
f 51/88/138 4/34/138 80/31/138
f 81/89/139 11/28/139 52/36/139
f 52/36/140 36/85/140 53/39/140
f 104/121/141 8/43/141 38/122/141
f 16/37/142 52/36/142 53/39/142
f 9/17/143 54/14/143 82/40/143
f 104/121/144 13/111/144 55/44/144
f 22/23/145 104/121/145 55/44/145
f 84/45/146 21/46/146 46/83/146
f 39/110/147 56/47/147 84/45/147
f 85/48/148 20/49/148 45/90/148
f 14/93/149 57/50/149 85/48/149
f 59/94/150 4/34/150 18/108/150
f 58/8/151 86/92/151 41/91/151
f 89/97/152 16/37/152 60/58/152
f 24/65/153 67/67/153 62/59/153
f 23/64/154 67/67/154 92/63/154
f 20/49/155 24/65/155 49/100/155
f 93/101/156 49/100/156 24/65/156
f 66/102/157 64/66/157 65/69/157
f 74/9/158 25/12/158 6/56/158
f 35/16/159 1/20/159 30/15/159
f 35/16/160 9/17/160 50/19/160
f 76/21/161 26/24/161 6/105/161
f 77/84/162 11/28/162 37/27/162
f 45/90/163 20/49/163 78/30/163
f 63/99/164 9/17/164 79/86/164
f 80/31/165 34/33/165 2/11/165
f 98/106/166 51/88/166 12/25/166
f 81/89/167 17/38/167 43/107/167
f 98/106/168 43/107/168 18/108/168
f 79/86/169 9/17/169 82/40/169
f 83/41/170 28/22/170 6/105/170
f 40/109/171 14/93/171 85/48/171
f 86/92/172 19/7/172 44/51/172
f 87/52/173 38/54/173 8/112/173
f 43/107/174 17/38/174 88/95/174
f 99/113/175 88/95/175 13/55/175
f 99/113/176 59/94/176 18/108/176
f 100/114/177 88/95/177 17/38/177
f 89/97/178 14/57/178 40/115/178
f 40/115/179 39/96/179 88/95/179
f 101/60/180 62/59/180 65/69/180
f 92/63/181 19/7/181 50/19/181
f 93/101/182 62/59/182 61/61/182
f 63/99/183 61/61/183 64/66/183
f 95/73/184 1/20/184 33/72/184
f 70/75/185 29/81/185 3/70/185
f 73/116/186 41/98/186 72/5/186
f 2/11/187 34/33/187 102/118/187
f 102/118/188 34/33/188 4/34/188
f 8/13/189 74/9/189 102/118/189
f 22/23/190 47/26/190 103/120/190
f 103/120/191 47/26/191 12/25/191
f 103/120/192 27/32/192 2/11/192
f 77/84/193 46/83/193 21/46/193
f 49/100/194 10/87/194 36/85/194
f 51/88/195 18/108/195 4/34/195
f 81/89/196 37/27/196 11/28/196
f 52/36/197 11/28/197 36/85/197
f 104/121/198 83/41/198 8/43/198
f 104/121/199 38/122/199 13/111/199
f 22/23/200 83/41/200 104/121/200
f 84/45/201 56/47/201 21/46/201
f 85/48/202 57/50/202 20/49/202
f 59/94/203 87/52/203 4/34/203
f 89/97/204 42/35/204 16/37/204
