# Blender v3.0.0 OBJ File: 'world.blend'
# www.blender.org
o Cube.002_Cube.004
v -25.807493 -35.007393 25.807493
v -25.807493 -25.807493 35.007393
v -35.007393 -25.807493 25.807493
v -25.807493 -32.312805 32.312805
v -31.119059 -31.119059 31.119059
v -32.312805 -25.807493 32.312805
v -32.312805 -32.312805 25.807493
v -25.807493 25.807493 35.007393
v -25.807493 35.007393 25.807493
v -35.007393 25.807493 25.807493
v -25.807493 32.312805 32.312805
v -31.119059 31.119059 31.119059
v -32.312805 32.312805 25.807493
v -32.312805 25.807493 32.312805
v -25.807493 -35.007393 -25.807493
v -35.007393 -25.807493 -25.807493
v -25.807493 -25.807493 -35.007393
v -32.312805 -32.312805 -25.807493
v -31.119059 -31.119059 -31.119059
v -32.312805 -25.807493 -32.312805
v -25.807493 -32.312805 -32.312805
v -25.807493 35.007393 -25.807493
v -25.807493 25.807493 -35.007393
v -35.007393 25.807493 -25.807493
v -25.807493 32.312805 -32.312805
v -31.119059 31.119059 -31.119059
v -32.312805 25.807493 -32.312805
v -32.312805 32.312805 -25.807493
v 25.807493 -35.007393 25.807493
v 35.007393 -25.807493 25.807493
v 25.807493 -25.807493 35.007393
v 32.312805 -32.312805 25.807493
v 31.119059 -31.119059 31.119059
v 32.312805 -25.807493 32.312805
v 25.807493 -32.312805 32.312805
v 25.807493 35.007393 25.807493
v 25.807493 25.807493 35.007393
v 35.007393 25.807493 25.807493
v 25.807493 32.312805 32.312805
v 31.119059 31.119059 31.119059
v 32.312805 25.807493 32.312805
v 32.312805 32.312805 25.807493
v 25.807493 -35.007393 -25.807493
v 25.807493 -25.807493 -35.007393
v 35.007393 -25.807493 -25.807493
v 25.807493 -32.312805 -32.312805
v 31.119059 -31.119059 -31.119059
v 32.312805 -25.807493 -32.312805
v 32.312805 -32.312805 -25.807493
v 25.807493 35.007393 -25.807493
v 35.007393 25.807493 -25.807493
v 25.807493 25.807493 -35.007393
v 32.312805 32.312805 -25.807493
v 31.119059 31.119059 -31.119059
v 32.312805 25.807493 -32.312805
v 25.807493 32.312805 -32.312805
vt 0.636698 0.368965
vt 0.368965 0.636698
vt 0.368965 0.368965
vt 0.301477 0.033744
vt 0.033744 0.301477
vt 0.033744 0.033744
vt 0.706173 0.636698
vt 0.969384 0.368965
vt 0.969384 0.636698
vt 0.636698 0.033744
vt 0.368965 0.301477
vt 0.368965 0.033744
vt 0.301477 0.368965
vt 0.033744 0.636698
vt 0.033744 0.368965
vt 0.964268 0.033744
vt 0.995046 0.006192
vt 1.000000 0.033744
vt 0.341413 0.664249
vt 0.335221 0.636698
vt 0.341413 0.006192
vt 0.368965 0.000000
vt 0.636698 0.636698
vt 0.664249 0.664249
vt 0.636698 0.670441
vt 0.706173 0.368965
vt 0.675396 0.341413
vt 0.703615 0.335221
vt 0.664249 0.006192
vt 0.670441 0.033744
vt 0.964268 0.301477
vt 0.995046 0.329029
vt 0.966826 0.335221
vt 0.341413 0.329029
vt 0.335221 0.301477
vt 0.006192 0.341413
vt 0.033744 0.335221
vt 0.675396 0.664249
vt 0.670441 0.636698
vt 0.329029 0.341413
vt 0.335221 0.368965
vt 0.636698 0.301477
vt 0.664249 0.329029
vt 0.636698 0.335221
vt 0.701057 0.033744
vt 0.677662 0.006192
vt 0.703615 0.000000
vt 0.006192 0.329029
vt 0.000000 0.301477
vt 0.341413 0.341413
vt 0.368965 0.335221
vt 0.992779 0.341413
vt 1.000000 0.368965
vt 0.664249 0.341413
vt 0.670441 0.368965
vt 0.301477 0.301477
vt 0.329029 0.329029
vt 0.301477 0.335221
vt 0.701057 0.301477
vt 0.677662 0.329029
vt 0.670441 0.301477
vt 0.006192 0.664249
vt 0.000000 0.636698
vt 0.006192 0.006192
vt 0.033744 0.000000
vt 0.992779 0.664249
vt 0.966826 0.670442
vt 0.329029 0.006192
vt 0.335221 0.033744
vt 0.301477 0.636698
vt 0.329029 0.664249
vt 0.301477 0.670441
vt 1.000000 0.301477
vt 0.335221 0.033744
vt 0.368965 0.670441
vt 0.636698 0.000000
vt 0.670441 0.368965
vt 0.670441 0.301477
vt 0.301477 0.335221
vt 0.368965 0.335221
vt 0.703615 0.335221
vt 0.000000 0.368965
vt 0.703615 0.670441
vt 0.335221 0.636698
vt 0.301477 0.000000
vt 0.033744 0.670441
vt 0.670441 0.033744
vt 0.000000 0.033744
vt 1.000000 0.636698
vt 0.335221 0.301477
vt 0.636698 0.335221
vt 0.033744 0.335221
vt 0.966826 0.000000
vt 0.335221 0.368965
vt 0.966826 0.335221
vt 0.670441 0.636698
vn 0.0000 0.0000 1.0000
vn 1.0000 0.0000 0.0000
vn 0.0000 1.0000 0.0000
vn -1.0000 0.0000 0.0000
vn 0.0000 0.0000 -1.0000
vn -0.3672 -0.8865 0.2817
vn -0.2817 -0.3672 0.8865
vn -0.8865 -0.2817 0.3672
vn -0.3672 0.2817 0.8865
vn -0.2817 0.8865 0.3672
vn -0.8865 0.3672 0.2817
vn -0.2817 -0.8865 -0.3672
vn -0.8865 -0.3672 -0.2817
vn -0.3672 -0.2817 -0.8865
vn -0.3672 0.8865 -0.2817
vn -0.2817 0.3672 -0.8865
vn -0.8865 0.2817 -0.3672
vn 0.2817 -0.8865 0.3672
vn 0.8865 -0.3672 0.2817
vn 0.3672 -0.2817 0.8865
vn 0.3672 0.8865 0.2817
vn 0.2817 0.3672 0.8865
vn 0.8865 0.2817 0.3672
vn 0.3672 -0.8865 -0.2817
vn 0.2817 -0.3672 -0.8865
vn 0.8865 -0.2817 -0.3672
vn 0.2817 0.8865 -0.3672
vn 0.8865 0.3672 -0.2817
vn 0.3672 0.2817 -0.8865
vn -0.3827 -0.9239 0.0000
vn -0.9239 -0.3827 0.0000
vn -0.3827 0.0000 0.9239
vn -0.9239 0.0000 0.3827
vn -0.3827 0.9239 0.0000
vn -0.9239 0.3827 0.0000
vn -0.3827 0.0000 -0.9239
vn -0.9239 0.0000 -0.3827
vn 0.0000 -0.9239 -0.3827
vn 0.0000 -0.3827 -0.9239
vn 0.0000 0.9239 -0.3827
vn 0.0000 0.3827 -0.9239
vn 0.9239 0.0000 -0.3827
vn 0.3827 0.0000 -0.9239
vn 0.3827 -0.9239 0.0000
vn 0.9239 -0.3827 0.0000
vn 0.3827 0.9239 0.0000
vn 0.9239 0.3827 0.0000
vn 0.3827 0.0000 0.9239
vn 0.9239 0.0000 0.3827
vn 0.0000 -0.9239 0.3827
vn 0.0000 -0.3827 0.9239
vn 0.0000 0.9239 0.3827
vn 0.0000 0.3827 0.9239
vn 0.0000 -1.0000 0.0000
vn -0.2817 -0.8865 0.3672
vn -0.3672 -0.2817 0.8865
vn -0.8865 -0.3672 0.2817
vn -0.2817 0.3672 0.8865
vn -0.3672 0.8865 0.2817
vn -0.8865 0.2817 0.3672
vn -0.3672 -0.8865 -0.2817
vn -0.8865 -0.2817 -0.3672
vn -0.2817 -0.3672 -0.8865
vn -0.2817 0.8865 -0.3672
vn -0.3672 0.2817 -0.8865
vn -0.8865 0.3672 -0.2817
vn 0.3672 -0.8865 0.2817
vn 0.8865 -0.2817 0.3672
vn 0.2817 -0.3672 0.8865
vn 0.2817 0.8865 0.3672
vn 0.3672 0.2817 0.8865
vn 0.8865 0.3672 0.2817
vn 0.2817 -0.8865 -0.3672
vn 0.3672 -0.2817 -0.8865
vn 0.8865 -0.3672 -0.2817
vn 0.3672 0.8865 -0.2817
vn 0.8865 0.2817 -0.3672
vn 0.2817 0.3672 -0.8865
s off
f 37/1/1 2/2/1 31/3/1
f 51/4/2 30/5/2 45/6/2
f 22/7/3 36/8/3 50/9/3
f 10/10/4 16/11/4 3/12/4
f 23/13/5 44/14/5 17/15/5
f 1/16/6 5/17/6 7/18/6
f 2/2/7 5/19/7 4/20/7
f 3/12/8 5/21/8 6/22/8
f 8/23/9 12/24/9 14/25/9
f 9/26/10 12/27/10 11/28/10
f 10/10/11 12/29/11 13/30/11
f 15/31/12 19/32/12 21/33/12
f 16/11/13 19/34/13 18/35/13
f 17/15/14 19/36/14 20/37/14
f 22/7/15 26/38/15 28/39/15
f 23/13/16 26/40/16 25/41/16
f 24/42/17 26/43/17 27/44/17
f 29/45/18 33/46/18 35/47/18
f 30/5/19 33/48/19 32/49/19
f 31/3/20 33/50/20 34/51/20
f 36/8/21 40/52/21 42/53/21
f 37/1/22 40/54/22 39/55/22
f 38/56/23 40/57/23 41/58/23
f 43/59/24 47/60/24 49/61/24
f 44/14/25 47/62/25 46/63/25
f 45/6/26 47/64/26 48/65/26
f 50/9/27 54/66/27 56/67/27
f 51/4/28 54/68/28 53/69/28
f 52/70/29 54/71/29 55/72/29
f 1/16/30 18/73/30 15/31/30
f 7/74/31 16/11/31 18/35/31
f 8/23/32 6/75/32 2/2/32
f 14/76/33 3/12/33 6/22/33
f 22/7/34 13/77/34 9/26/34
f 28/78/35 10/10/35 13/30/35
f 17/15/36 27/79/36 23/13/36
f 20/80/37 24/42/37 27/44/37
f 15/31/38 46/81/38 43/59/38
f 21/82/39 44/14/39 46/63/39
f 50/9/40 25/83/40 22/7/40
f 56/84/41 23/13/41 25/41/41
f 45/6/42 55/85/42 51/4/42
f 48/86/43 52/70/43 55/72/43
f 43/59/44 32/87/44 29/45/44
f 49/88/45 30/5/45 32/49/45
f 36/8/46 53/89/46 50/9/46
f 42/90/47 51/4/47 53/69/47
f 31/3/48 41/91/48 37/1/48
f 34/92/49 38/56/49 41/58/49
f 29/45/50 4/93/50 1/16/50
f 35/94/51 2/2/51 4/20/51
f 9/26/52 39/95/52 36/8/52
f 11/96/53 37/1/53 39/55/53
f 43/59/54 1/16/54 15/31/54
f 37/1/1 8/23/1 2/2/1
f 51/4/2 38/56/2 30/5/2
f 22/7/3 9/26/3 36/8/3
f 10/10/4 24/42/4 16/11/4
f 23/13/5 52/70/5 44/14/5
f 1/16/55 4/93/55 5/17/55
f 2/2/56 6/75/56 5/19/56
f 3/12/57 7/74/57 5/21/57
f 8/23/58 11/96/58 12/24/58
f 9/26/59 13/77/59 12/27/59
f 10/10/60 14/76/60 12/29/60
f 15/31/61 18/73/61 19/32/61
f 16/11/62 20/80/62 19/34/62
f 17/15/63 21/82/63 19/36/63
f 22/7/64 25/83/64 26/38/64
f 23/13/65 27/79/65 26/40/65
f 24/42/66 28/78/66 26/43/66
f 29/45/67 32/87/67 33/46/67
f 30/5/68 34/92/68 33/48/68
f 31/3/69 35/94/69 33/50/69
f 36/8/70 39/95/70 40/52/70
f 37/1/71 41/91/71 40/54/71
f 38/56/72 42/90/72 40/57/72
f 43/59/73 46/81/73 47/60/73
f 44/14/74 48/86/74 47/62/74
f 45/6/75 49/88/75 47/64/75
f 50/9/76 53/89/76 54/66/76
f 51/4/77 55/85/77 54/68/77
f 52/70/78 56/84/78 54/71/78
f 1/16/30 7/18/30 18/73/30
f 7/74/31 3/12/31 16/11/31
f 8/23/32 14/25/32 6/75/32
f 14/76/33 10/10/33 3/12/33
f 22/7/34 28/39/34 13/77/34
f 28/78/35 24/42/35 10/10/35
f 17/15/36 20/37/36 27/79/36
f 20/80/37 16/11/37 24/42/37
f 15/31/38 21/33/38 46/81/38
f 21/82/39 17/15/39 44/14/39
f 50/9/40 56/67/40 25/83/40
f 56/84/41 52/70/41 23/13/41
f 45/6/42 48/65/42 55/85/42
f 48/86/43 44/14/43 52/70/43
f 43/59/44 49/61/44 32/87/44
f 49/88/45 45/6/45 30/5/45
f 36/8/46 42/53/46 53/89/46
f 42/90/47 38/56/47 51/4/47
f 31/3/48 34/51/48 41/91/48
f 34/92/49 30/5/49 38/56/49
f 29/45/50 35/47/50 4/93/50
f 35/94/51 31/3/51 2/2/51
f 9/26/52 11/28/52 39/95/52
f 11/96/53 8/23/53 37/1/53
f 43/59/54 29/45/54 1/16/54
