# Blender v3.0.0 OBJ File: 'world.blend'
# www.blender.org
mtllib tire.mtl
o Cylinder.001
v -0.209471 0.274216 -0.113585
v -0.209471 0.296806 0.000003
v 0.015489 0.047403 -0.114433
v -0.209471 0.274216 0.113580
v -0.209471 -0.209872 -0.209877
v -0.209471 -0.209872 0.209872
v -0.209471 0.209876 0.209872
v -0.209471 0.209876 -0.209877
v -0.209471 0.113584 -0.274217
v -0.209471 -0.000004 -0.296806
v -0.209471 -0.113580 -0.274217
v -0.209471 -0.274212 -0.113585
v -0.209471 -0.296814 0.000004
v -0.209471 -0.274212 0.113580
v -0.209471 -0.113580 0.274212
v -0.209471 -0.000004 0.296813
v -0.209471 0.113584 0.274212
v 0.015489 -0.087587 0.087587
v 0.015489 -0.087587 -0.087580
v 0.015489 0.087579 -0.087580
v 0.015489 -0.114428 0.047398
v 0.015489 0.114432 0.047398
v 0.015489 0.123855 0.000003
v 0.015489 -0.114428 -0.047404
v 0.015489 -0.123863 0.000003
v 0.015489 0.087579 0.087587
v 0.015489 -0.047399 -0.114433
v 0.015489 0.047403 0.114427
v 0.015489 -0.000004 -0.123856
v 0.015489 -0.047399 0.114427
v 0.015489 -0.000004 0.123863
v 0.015489 0.114432 -0.047404
v 0.043478 0.282176 0.000003
v 0.021034 0.296806 0.000003
v 0.078569 0.098977 -0.098977
v 0.062760 0.087579 -0.087580
v 0.078569 0.053572 -0.129325
v 0.062760 0.047403 -0.114433
v 0.021034 0.274216 0.113580
v 0.043479 0.260700 0.107982
v 0.043478 0.260700 -0.107986
v 0.021034 0.274216 -0.113585
v 0.021034 0.209876 -0.209877
v 0.043479 0.199531 -0.199532
v 0.043479 0.107986 -0.260700
v 0.021034 0.113584 -0.274217
v 0.021034 -0.000004 -0.296806
v 0.043479 -0.000004 -0.282176
v 0.043479 -0.107982 -0.260700
v 0.021034 -0.113580 -0.274217
v 0.021034 -0.209872 -0.209877
v 0.043479 -0.199528 -0.199532
v 0.021034 -0.296814 0.000003
v 0.043479 -0.282184 0.000003
v 0.021034 -0.274212 0.113580
v 0.043478 -0.260696 0.107982
v 0.043479 -0.199528 0.199527
v 0.021034 -0.209872 0.209872
v 0.021034 -0.113580 0.274212
v 0.043479 -0.107982 0.260696
v 0.043479 0.107986 0.260696
v 0.021034 0.113584 0.274212
v 0.021034 0.209876 0.209872
v 0.043479 0.199532 0.199527
v 0.078569 0.174333 -0.072208
v 0.071933 0.202741 -0.083974
v 0.071933 0.219443 0.000003
v 0.078569 0.188695 0.000003
v 0.078569 0.174333 0.072213
v 0.071933 0.202741 0.083979
v 0.078569 0.133435 0.133432
v 0.071933 0.155178 0.155173
v 0.071933 -0.000004 0.219450
v 0.078569 -0.000004 0.188702
v 0.071933 0.083985 0.202748
v 0.078569 0.072218 0.174340
v 0.043479 -0.000004 0.282183
v 0.021034 -0.000004 0.296813
v 0.078569 -0.072214 0.174340
v 0.071933 -0.083980 0.202748
v 0.071933 -0.202737 0.083979
v 0.078569 -0.174330 0.072213
v 0.071933 -0.155174 0.155174
v 0.078569 -0.133432 0.133431
v 0.071933 -0.219452 0.000003
v 0.078569 -0.188703 0.000003
v 0.078569 -0.174329 -0.072208
v 0.071934 -0.202736 -0.083974
v 0.043478 -0.260696 -0.107985
v 0.021034 -0.274212 -0.113585
v 0.078569 -0.133433 -0.133436
v 0.071932 -0.155175 -0.155180
v 0.071933 -0.083980 -0.202742
v 0.078569 -0.072213 -0.174334
v 0.071933 0.083984 -0.202743
v 0.078569 0.072217 -0.174334
v 0.078569 -0.000004 -0.188696
v 0.071933 -0.000004 -0.219444
v 0.071932 0.155179 -0.155180
v 0.078569 0.133436 -0.133436
v 0.078569 0.129325 -0.053571
v 0.062760 0.114432 -0.047404
v 0.078569 0.129324 0.053567
v 0.062760 0.114432 0.047398
v 0.062760 0.123855 0.000003
v 0.078569 0.139974 0.000003
v 0.078569 0.098978 0.098983
v 0.062760 0.087579 0.087587
v 0.078569 -0.000004 0.139982
v 0.062760 -0.000004 0.123863
v 0.078569 0.053571 0.129319
v 0.062760 0.047403 0.114427
v 0.062760 -0.047399 0.114427
v 0.078569 -0.053567 0.129319
v 0.078569 -0.129319 0.053567
v 0.062760 -0.114428 0.047398
v 0.062760 -0.087587 0.087587
v 0.078569 -0.098985 0.098985
v 0.078569 -0.139982 0.000003
v 0.062760 -0.123863 0.000003
v 0.078569 -0.098984 -0.098979
v 0.062760 -0.087587 -0.087580
v 0.062760 -0.114428 -0.047404
v 0.078569 -0.129320 -0.053570
v 0.078569 -0.053568 -0.129324
v 0.062760 -0.047399 -0.114433
v 0.062760 -0.000004 -0.123856
v 0.078569 -0.000004 -0.139974
v -0.187852 0.296806 0.000003
v -0.187852 0.274216 -0.113585
v -0.187852 0.274216 0.113580
v -0.187852 0.209876 0.209872
v -0.187852 0.209876 -0.209877
v -0.187852 0.113584 -0.274217
v -0.187852 -0.000004 -0.296806
v -0.187852 -0.113580 -0.274217
v -0.187852 -0.209872 -0.209877
v -0.187852 -0.274212 -0.113585
v -0.187852 -0.296814 0.000004
v -0.187852 -0.274212 0.113580
v -0.187852 -0.209872 0.209872
v -0.187852 -0.113580 0.274212
v -0.187852 -0.000004 0.296813
v -0.187852 0.113584 0.274212
vt 0.320820 0.179180
vt 0.342531 0.211673
vt 0.320820 0.179180
vt 0.211673 0.342530
vt 0.250000 0.350154
vt 0.250000 0.350154
vt 0.124527 0.375473
vt 0.162683 0.460802
vt 0.088659 0.411341
vt 0.179180 0.320820
vt 0.320820 0.320820
vt 0.157470 0.288328
vt 0.179180 0.320820
vt 0.157470 0.288328
vt 0.086061 0.317906
vt 0.039199 0.337317
vt 0.211673 0.157470
vt 0.179180 0.179180
vt 0.211673 0.157470
vt 0.375474 0.124526
vt 0.337317 0.039198
vt 0.411340 0.088660
vt 0.337317 0.460802
vt 0.375474 0.375474
vt 0.411340 0.411340
vt 0.460802 0.337317
vt 0.413938 0.317906
vt 0.357893 0.357893
vt 0.354572 0.293315
vt 0.390967 0.308391
vt 0.437500 0.995131
vt 0.375000 0.930802
vt 0.437500 0.930802
vt 0.149846 0.250000
vt 0.149846 0.250000
vt 0.427446 0.250000
vt 0.460802 0.162683
vt 0.478170 0.250000
vt 0.250000 0.995131
vt 0.187500 0.930802
vt 0.250000 0.930802
vt 0.875000 0.924144
vt 0.375000 0.924144
vt 0.125000 0.924144
vt 0.562500 0.995131
vt 0.500000 0.930802
vt 0.562500 0.930802
vt 0.687500 0.930802
vt 0.750000 0.924144
vt 0.750000 0.930802
vt 0.812500 0.930802
vt 0.812500 0.924144
vt 0.312500 0.924144
vt 0.312500 0.930802
vt 0.000000 0.930802
vt 0.062500 0.924144
vt 0.062500 0.930802
vt 0.250000 0.402583
vt 0.293315 0.354573
vt 0.308390 0.390967
vt 0.875000 0.930802
vt 0.937500 0.924144
vt 0.937500 0.930802
vt 0.072555 0.250000
vt 0.625000 0.924144
vt 0.625000 0.930802
vt 0.125000 0.930802
vt 0.187500 0.924144
vt 0.250000 0.072554
vt 0.250000 0.021830
vt 0.109031 0.308392
vt 0.169964 0.330036
vt 0.142108 0.357892
vt 0.500000 0.995131
vt 0.308391 0.109033
vt 0.330035 0.169965
vt 0.293315 0.145428
vt 0.402583 0.250000
vt 0.354572 0.206685
vt 0.390968 0.191609
vt 0.357892 0.142108
vt 0.191609 0.109032
vt 0.169963 0.169963
vt 0.142108 0.142108
vt 0.109031 0.191608
vt 0.136812 0.250000
vt 0.097418 0.250000
vt 0.191609 0.390967
vt 0.206685 0.354572
vt 0.288327 0.342530
vt 0.320820 0.320820
vt 0.288327 0.342530
vt 0.342530 0.288327
vt 0.250000 0.136812
vt 0.250000 0.097418
vt 0.250000 0.363187
vt 0.145430 0.293315
vt 0.157470 0.211673
vt 0.157470 0.211673
vt 0.088659 0.088659
vt 0.086061 0.182094
vt 0.039199 0.162683
vt 0.162683 0.039198
vt 0.182094 0.086062
vt 0.363187 0.250000
vt 0.124527 0.124527
vt 0.288327 0.157470
vt 0.250000 0.149846
vt 0.250000 0.149846
vt 0.288327 0.157470
vt 0.250000 0.427445
vt 0.250000 0.478171
vt 0.687500 0.924144
vt 0.350154 0.250000
vt 0.350154 0.250000
vt 0.342531 0.211673
vt 0.021830 0.250000
vt 0.211673 0.342530
vt 1.000000 0.924144
vt 0.562500 0.924144
vt 0.500000 0.924144
vt 0.437500 0.924144
vt 0.250000 0.924144
vt 0.179180 0.179180
vt 0.342530 0.288327
vt 0.317905 0.413938
vt 0.158156 0.471731
vt 0.250000 0.490000
vt 0.080294 0.080294
vt 0.158156 0.028269
vt 0.028269 0.158156
vt 0.341844 0.028269
vt 0.419706 0.080294
vt 0.206685 0.145429
vt 0.419706 0.419706
vt 0.471731 0.158156
vt 0.490000 0.250000
vt 0.145431 0.206686
vt 0.250000 0.010000
vt 0.028269 0.341844
vt 0.413938 0.182094
vt 0.317906 0.086063
vt 0.080294 0.419706
vt 0.330034 0.330034
vt 0.341844 0.471731
vt 0.471731 0.341844
vt 0.182094 0.413938
vt 1.000000 0.930802
vt 0.937500 0.995131
vt 1.000000 0.995131
vt 0.625000 0.995131
vt 0.687500 0.995131
vt 0.062500 0.995131
vt 0.125000 0.995131
vt 0.312500 0.995131
vt 0.375000 0.995131
vt 0.187500 0.995131
vt 0.812500 0.995131
vt 0.875000 0.995131
vt 0.000000 0.995131
vt 0.750000 0.995131
vt 0.000000 0.924144
vt 0.010000 0.250000
vn 0.4054 0.6464 0.6463
vn 0.6657 0.2855 0.6894
vn 0.6657 0.5277 0.5276
vn 0.4055 -0.8445 -0.3498
vn 0.6657 -0.7462 0.0000
vn 0.4054 -0.9141 0.0000
vn 0.9455 0.2303 0.2303
vn 0.7418 0.6196 0.2566
vn 0.7417 0.4742 0.4742
vn 0.6657 -0.5276 -0.5277
vn 0.6657 -0.5276 0.5276
vn 0.6657 -0.2856 -0.6894
vn 0.4054 -0.6463 -0.6464
vn 0.4054 -0.3498 -0.8445
vn 0.9455 0.1246 0.3009
vn 0.7417 0.2567 0.6196
vn 0.6657 0.6894 -0.2855
vn 0.4055 0.6464 -0.6464
vn 0.4054 0.8445 -0.3498
vn 0.9455 -0.2303 -0.2303
vn 0.7418 -0.6196 -0.2566
vn 0.7418 -0.4742 -0.4742
vn 0.7418 0.6196 -0.2566
vn 0.9455 0.2303 -0.2303
vn 0.7418 0.4742 -0.4742
vn 0.7418 0.2566 -0.6196
vn 0.9455 0.1246 -0.3009
vn 0.9929 0.0843 -0.0842
vn 0.9417 -0.1287 0.3107
vn 0.9929 0.0456 -0.1101
vn 0.2756 -0.8881 0.3679
vn 0.0000 -0.7071 0.7071
vn 0.0000 -0.9239 0.3827
vn 0.6657 0.0000 -0.7462
vn 0.4055 0.0000 -0.9141
vn 0.9455 0.0000 -0.3257
vn 0.7418 -0.2566 -0.6196
vn 0.7418 0.0000 -0.6706
vn 0.2756 0.0000 0.9612
vn 0.0000 0.3827 0.9239
vn 0.0000 0.0000 1.0000
vn -0.6657 0.5276 -0.5276
vn -0.6657 -0.5276 0.5276
vn -0.6657 0.5276 0.5276
vn 0.2756 -0.8881 -0.3679
vn 0.0000 -1.0000 0.0000
vn 0.0000 -0.9239 -0.3827
vn 0.0000 -0.3827 -0.9239
vn -0.6657 0.0000 -0.7462
vn 0.0000 0.0000 -1.0000
vn 0.0000 0.3826 -0.9239
vn -0.6657 0.2855 -0.6894
vn -0.6657 -0.2856 0.6894
vn 0.0000 -0.3827 0.9239
vn 0.0000 1.0000 0.0000
vn -0.6657 0.6894 0.2855
vn 0.0000 0.9239 0.3827
vn 0.9929 0.1191 0.0000
vn 0.9417 -0.3107 0.1287
vn 0.9929 0.1100 -0.0456
vn 0.0000 0.7071 -0.7071
vn -0.6657 0.6894 -0.2855
vn 0.0000 0.9239 -0.3826
vn 0.9455 0.0000 0.3257
vn -0.6657 -0.5276 -0.5276
vn 0.0000 -0.7071 -0.7071
vn 0.0000 0.7071 0.7071
vn -0.6657 0.2856 0.6894
vn 0.9455 -0.3257 0.0000
vn 0.7418 -0.6706 0.0000
vn 0.9929 0.0456 0.1101
vn 0.9417 -0.2378 -0.2378
vn 0.9929 0.0842 0.0842
vn 0.2756 -0.9612 0.0000
vn 0.9929 -0.1100 -0.0456
vn 0.9417 0.2378 0.2378
vn 0.9417 0.3107 0.1287
vn 0.9929 0.0000 -0.1191
vn 0.9417 0.1287 0.3107
vn 0.9929 -0.0456 -0.1101
vn 0.9929 -0.0843 -0.0842
vn 0.9929 -0.1100 0.0456
vn 0.9417 0.2378 -0.2378
vn 0.9929 -0.0842 0.0842
vn 0.9929 -0.0456 0.1101
vn 0.9417 0.0000 -0.3363
vn 0.9929 0.0000 0.1191
vn 0.9929 0.1100 0.0456
vn 0.9417 -0.3107 -0.1287
vn 0.6657 -0.6894 0.2856
vn 0.4054 -0.6464 0.6464
vn 0.4055 -0.8445 0.3498
vn 0.4055 -0.3498 0.8445
vn 0.9417 0.3363 0.0000
vn 0.9929 -0.1191 0.0000
vn 0.9417 -0.3363 0.0000
vn 0.9417 -0.1287 -0.3107
vn 0.6657 0.2855 -0.6894
vn 0.4054 0.3498 -0.8445
vn 0.7417 -0.4742 0.4742
vn 0.9455 -0.1246 0.3009
vn 0.7417 -0.2567 0.6196
vn 0.7418 -0.6196 0.2567
vn 0.9455 -0.3009 0.1246
vn 0.9417 0.0000 0.3363
vn 0.9455 -0.2303 0.2303
vn 0.4054 0.8445 0.3498
vn 0.6657 0.7462 0.0000
vn 0.4055 0.9141 0.0000
vn 0.6657 0.6894 0.2856
vn 0.9455 0.3257 0.0000
vn 0.7418 0.6706 0.0000
vn -0.6657 -0.2855 -0.6894
vn 0.6657 0.0000 0.7462
vn 0.4054 0.0000 0.9141
vn 0.4054 0.3498 0.8445
vn 0.7418 0.0000 0.6706
vn 0.6657 -0.6894 -0.2855
vn -0.6657 0.7462 0.0000
vn -0.6657 -0.6894 -0.2856
vn -0.6657 -0.7462 0.0000
vn -0.6657 -0.6894 0.2856
vn -0.6657 0.0000 0.7462
vn 0.6657 0.5277 -0.5277
vn 0.6657 -0.2856 0.6894
vn 0.9455 0.3009 -0.1246
vn 0.2756 0.8881 0.3678
vn 0.2756 0.9612 0.0000
vn 0.2756 -0.6797 0.6797
vn 0.2756 -0.3679 0.8881
vn 0.2756 -0.6797 -0.6797
vn 0.9417 0.3107 -0.1287
vn 0.2756 0.6797 -0.6797
vn 0.2756 -0.3678 -0.8881
vn 0.2756 0.0000 -0.9612
vn 0.9417 0.1287 -0.3107
vn 0.2756 0.3679 0.8881
vn 0.9455 -0.1246 -0.3009
vn 0.9455 -0.3009 -0.1246
vn 0.2756 0.6797 0.6797
vn 0.9417 -0.2378 0.2378
vn 0.2756 0.8881 -0.3678
vn 0.2756 0.3678 -0.8881
vn 0.9455 0.3009 0.1246
usemtl Tires
s 1
f 122/1/1 27/2/2 19/3/3
f 104/4/4 23/5/5 105/6/6
f 72/7/7 40/8/8 64/9/9
f 26/10/10 19/3/3 20/11/11
f 28/12/12 108/13/13 112/14/14
f 75/15/15 64/9/9 61/16/16
f 21/17/17 117/18/18 116/19/19
f 92/20/20 89/21/21 52/22/22
f 41/23/23 99/24/24 44/25/25
f 45/26/26 99/24/24 95/27/27
f 100/28/28 37/29/29 96/30/30
f 55/31/31 141/32/32 140/33/33
f 31/34/34 112/14/14 110/35/35
f 98/36/36 49/37/37 48/38/38
f 78/39/39 144/40/40 143/41/41
f 8/42/42 6/43/43 7/44/44
f 49/37/37 92/20/20 52/22/22
f 90/45/45 139/46/46 138/47/47
f 136/48/48 10/49/49 135/50/50
f 134/51/51 10/49/49 9/52/52
f 143/41/41 15/53/53 142/54/54
f 129/55/55 4/56/56 131/57/57
f 68/58/58 101/59/59 65/60/60
f 134/51/51 8/42/42 133/61/61
f 133/61/61 1/62/62 130/63/63
f 61/16/16 73/64/64 75/15/15
f 138/47/47 5/65/65 137/66/66
f 132/67/67 17/68/68 144/40/40
f 142/54/54 6/43/43 141/32/32
f 101/59/59 100/28/28 65/60/60
f 89/21/21 85/69/69 54/70/70
f 76/71/71 107/72/72 71/73/73
f 53/74/74 140/33/33 139/46/46
f 87/75/75 121/76/76 124/77/77
f 131/57/57 7/44/44 132/67/67
f 97/78/78 125/79/79 94/80/80
f 94/80/80 121/76/76 91/81/81
f 82/82/82 118/83/83 84/84/84
f 79/85/85 109/86/86 74/87/87
f 69/88/88 107/72/72 103/89/89
f 32/90/90 36/91/91 102/92/92
f 20/11/11 38/93/93 36/91/91
f 119/94/94 82/82/82 86/95/95
f 68/58/58 103/89/89 106/96/96
f 87/75/75 119/94/94 86/95/95
f 23/5/5 102/92/92 105/6/6
f 118/83/83 79/85/85 84/84/84
f 76/71/71 109/86/86 111/97/97
f 117/18/18 30/98/98 113/99/99
f 57/100/100 80/101/101 60/102/102
f 56/103/103 85/69/69 81/104/104
f 97/78/78 37/29/29 128/105/105
f 56/103/103 83/106/106 57/100/100
f 123/107/107 25/108/108 120/109/109
f 122/1/1 24/110/110 123/107/107
f 25/108/108 116/19/19 120/109/109
f 40/8/8 67/111/111 33/112/112
f 137/66/66 11/113/113 136/48/48
f 38/93/93 29/114/114 127/115/115
f 113/99/99 31/34/34 110/35/35
f 127/115/115 27/2/2 126/116/116
f 60/102/102 73/64/64 77/117/117
f 48/38/38 95/27/27 98/36/36
f 108/13/13 22/118/118 104/4/4
f 7/44/44 4/56/56 2/119/119
f 2/119/119 1/62/62 8/42/42
f 8/42/42 9/52/52 10/49/49
f 10/49/49 11/113/113 5/65/65
f 5/65/65 12/120/120 13/121/121
f 13/121/121 14/122/122 6/43/43
f 6/43/43 15/53/53 16/123/123
f 16/123/123 17/68/68 7/44/44
f 7/44/44 2/119/119 8/42/42
f 8/42/42 10/49/49 5/65/65
f 5/65/65 13/121/121 6/43/43
f 6/43/43 16/123/123 7/44/44
f 20/11/11 32/90/90 23/5/5
f 23/5/5 22/118/118 26/10/10
f 26/10/10 28/12/12 31/34/34
f 31/34/34 30/98/98 18/124/124
f 18/124/124 21/17/17 25/108/108
f 25/108/108 24/110/110 19/3/3
f 19/3/3 27/2/2 29/114/114
f 29/114/114 3/125/125 20/11/11
f 20/11/11 23/5/5 26/10/10
f 26/10/10 31/34/34 18/124/124
f 18/124/124 25/108/108 19/3/3
f 19/3/3 29/114/114 20/11/11
f 33/112/112 66/126/126 41/23/23
f 39/127/127 33/112/112 34/128/128
f 41/23/23 34/128/128 33/112/112
f 56/103/103 58/129/129 55/130/31
f 72/7/7 76/71/71 71/73/73
f 77/117/117 59/131/130 60/102/102
f 83/106/106 79/85/85 80/101/101
f 52/22/22 90/132/45 51/133/131
f 96/30/30 98/36/36 95/27/27
f 95/27/27 100/28/28 96/30/30
f 104/4/4 106/96/96 103/89/89
f 107/72/72 104/4/4 103/89/89
f 111/97/97 108/13/13 107/72/72
f 117/18/18 115/134/132 116/19/19
f 45/26/26 43/135/133 44/25/25
f 48/38/38 50/136/134 47/137/135
f 67/111/111 65/60/60 66/126/126
f 76/71/71 73/64/64 74/87/87
f 73/64/64 79/85/85 74/87/87
f 84/84/84 81/104/104 82/82/82
f 81/104/104 86/95/95 82/82/82
f 114/138/136 117/18/18 113/99/99
f 122/1/1 124/77/77 121/76/76
f 121/76/76 126/116/116 122/1/1
f 100/28/28 66/126/126 65/60/60
f 54/70/70 55/130/31 53/139/74
f 60/102/102 58/129/129 57/100/100
f 62/140/137 77/117/117 61/16/16
f 90/132/45 54/70/70 53/139/74
f 93/141/138 91/81/81 92/20/20
f 115/134/132 120/109/109 116/19/19
f 88/142/139 91/81/81 87/75/75
f 38/93/93 128/105/105 37/29/29
f 63/143/140 40/8/8 39/127/127
f 38/93/93 35/144/141 36/91/91
f 44/25/25 42/145/142 41/23/23
f 45/26/26 47/137/135 46/146/143
f 49/37/37 51/133/131 50/136/134
f 70/147/144 71/73/73 69/88/88
f 88/142/139 86/95/95 85/69/69
f 98/36/36 94/80/80 93/141/138
f 35/144/141 102/92/92 36/91/91
f 106/96/96 102/92/92 101/59/59
f 110/35/35 111/97/97 109/86/86
f 114/138/136 110/35/35 109/86/86
f 128/105/105 126/116/116 125/79/79
f 124/77/77 120/109/109 119/94/94
f 61/16/16 63/143/140 62/140/137
f 67/111/111 69/88/88 68/58/58
f 130/63/63 2/119/119 129/148/55
f 42/149/142 129/148/55 34/150/128
f 51/151/131 136/48/48 50/152/134
f 39/153/127 132/67/67 63/154/140
f 139/46/46 14/122/122 13/121/121
f 59/155/130 141/32/32 58/156/129
f 63/154/140 144/40/40 62/157/137
f 51/151/131 138/47/47 137/66/66
f 42/149/142 133/61/61 130/63/63
f 46/158/143 133/61/61 43/159/133
f 34/160/128 131/57/57 39/153/127
f 78/39/39 142/54/54 59/155/130
f 47/161/135 134/51/51 46/158/143
f 47/161/135 136/48/48 135/50/50
f 138/47/47 13/121/121 12/120/120
f 143/41/41 17/68/68 16/123/123
f 140/33/33 6/43/43 14/122/122
f 122/1/1 126/116/116 27/2/2
f 104/4/4 22/118/118 23/5/5
f 72/7/7 70/147/144 40/8/8
f 26/10/10 18/124/124 19/3/3
f 28/12/12 26/10/10 108/13/13
f 75/15/15 72/7/7 64/9/9
f 21/17/17 18/124/124 117/18/18
f 92/20/20 88/142/139 89/21/21
f 41/23/23 66/126/126 99/24/24
f 45/26/26 44/25/25 99/24/24
f 100/28/28 35/144/141 37/29/29
f 55/31/31 58/156/129 141/32/32
f 31/34/34 28/12/12 112/14/14
f 98/36/36 93/141/138 49/37/37
f 78/39/39 62/157/137 144/40/40
f 8/42/42 5/65/65 6/43/43
f 49/37/37 93/141/138 92/20/20
f 90/45/45 53/74/74 139/46/46
f 136/48/48 11/113/113 10/49/49
f 134/51/51 135/50/50 10/49/49
f 143/41/41 16/123/123 15/53/53
f 129/55/55 2/162/119 4/56/56
f 68/58/58 106/96/96 101/59/59
f 134/51/51 9/52/52 8/42/42
f 133/61/61 8/42/42 1/62/62
f 61/16/16 77/117/117 73/64/64
f 138/47/47 12/120/120 5/65/65
f 132/67/67 7/44/44 17/68/68
f 142/54/54 15/53/53 6/43/43
f 101/59/59 35/144/141 100/28/28
f 89/21/21 88/142/139 85/69/69
f 76/71/71 111/97/97 107/72/72
f 53/74/74 55/31/31 140/33/33
f 87/75/75 91/81/81 121/76/76
f 131/57/57 4/56/56 7/44/44
f 97/78/78 128/105/105 125/79/79
f 94/80/80 125/79/79 121/76/76
f 82/82/82 115/134/132 118/83/83
f 79/85/85 114/138/136 109/86/86
f 69/88/88 71/73/73 107/72/72
f 32/90/90 20/11/11 36/91/91
f 20/11/11 3/125/125 38/93/93
f 119/94/94 115/134/132 82/82/82
f 68/58/58 69/88/88 103/89/89
f 87/75/75 124/77/77 119/94/94
f 23/5/5 32/90/90 102/92/92
f 118/83/83 114/138/136 79/85/85
f 76/71/71 74/87/87 109/86/86
f 117/18/18 18/124/124 30/98/98
f 57/100/100 83/106/106 80/101/101
f 56/103/103 54/70/70 85/69/69
f 97/78/78 96/30/30 37/29/29
f 56/103/103 81/104/104 83/106/106
f 123/107/107 24/110/110 25/108/108
f 122/1/1 19/3/3 24/110/110
f 25/108/108 21/17/17 116/19/19
f 40/8/8 70/147/144 67/111/111
f 137/66/66 5/65/65 11/113/113
f 38/93/93 3/125/125 29/114/114
f 113/99/99 30/98/98 31/34/34
f 127/115/115 29/114/114 27/2/2
f 60/102/102 80/101/101 73/64/64
f 48/38/38 45/26/26 95/27/27
f 108/13/13 26/10/10 22/118/118
f 33/112/112 67/111/111 66/126/126
f 39/127/127 40/8/8 33/112/112
f 41/23/23 42/145/142 34/128/128
f 56/103/103 57/100/100 58/129/129
f 72/7/7 75/15/15 76/71/71
f 77/117/117 78/163/39 59/131/130
f 83/106/106 84/84/84 79/85/85
f 52/22/22 89/21/21 90/132/45
f 96/30/30 97/78/78 98/36/36
f 95/27/27 99/24/24 100/28/28
f 104/4/4 105/6/6 106/96/96
f 107/72/72 108/13/13 104/4/4
f 111/97/97 112/14/14 108/13/13
f 117/18/18 118/83/83 115/134/132
f 45/26/26 46/146/143 43/135/133
f 48/38/38 49/37/37 50/136/134
f 67/111/111 68/58/58 65/60/60
f 76/71/71 75/15/15 73/64/64
f 73/64/64 80/101/101 79/85/85
f 84/84/84 83/106/106 81/104/104
f 81/104/104 85/69/69 86/95/95
f 114/138/136 118/83/83 117/18/18
f 122/1/1 123/107/107 124/77/77
f 121/76/76 125/79/79 126/116/116
f 100/28/28 99/24/24 66/126/126
f 54/70/70 56/103/103 55/130/31
f 60/102/102 59/131/130 58/129/129
f 62/140/137 78/163/39 77/117/117
f 90/132/45 89/21/21 54/70/70
f 93/141/138 94/80/80 91/81/81
f 115/134/132 119/94/94 120/109/109
f 88/142/139 92/20/20 91/81/81
f 38/93/93 127/115/115 128/105/105
f 63/143/140 64/9/9 40/8/8
f 38/93/93 37/29/29 35/144/141
f 44/25/25 43/135/133 42/145/142
f 45/26/26 48/38/38 47/137/135
f 49/37/37 52/22/22 51/133/131
f 70/147/144 72/7/7 71/73/73
f 88/142/139 87/75/75 86/95/95
f 98/36/36 97/78/78 94/80/80
f 35/144/141 101/59/59 102/92/92
f 106/96/96 105/6/6 102/92/92
f 110/35/35 112/14/14 111/97/97
f 114/138/136 113/99/99 110/35/35
f 128/105/105 127/115/115 126/116/116
f 124/77/77 123/107/107 120/109/109
f 61/16/16 64/9/9 63/143/140
f 67/111/111 70/147/144 69/88/88
f 130/63/63 1/62/62 2/119/119
f 42/149/142 130/63/63 129/148/55
f 51/151/131 137/66/66 136/48/48
f 39/153/127 131/57/57 132/67/67
f 139/46/46 140/33/33 14/122/122
f 59/155/130 142/54/54 141/32/32
f 63/154/140 132/67/67 144/40/40
f 51/151/131 90/45/45 138/47/47
f 42/149/142 43/159/133 133/61/61
f 46/158/143 134/51/51 133/61/61
f 34/160/128 129/55/55 131/57/57
f 78/39/39 143/41/41 142/54/54
f 47/161/135 135/50/50 134/51/51
f 47/161/135 50/152/134 136/48/48
f 138/47/47 139/46/46 13/121/121
f 143/41/41 144/40/40 17/68/68
f 140/33/33 141/32/32 6/43/43
