# Blender v3.0.0 OBJ File: 'world.blend'
# www.blender.org
mtllib tire.mtl
o Circle.002_Circle.004
v 0.215000 0.000000 -0.229770
v 0.215000 0.087929 -0.212280
v 0.215000 0.162472 -0.162472
v 0.215000 0.212280 -0.087929
v 0.215000 0.229770 0.000000
v 0.215000 0.212280 0.087929
v 0.215000 0.162472 0.162472
v 0.215000 0.087929 0.212280
v 0.215000 -0.000000 0.229770
v 0.215000 -0.087929 0.212280
v 0.215000 -0.162472 0.162472
v 0.215000 -0.212280 0.087929
v 0.215000 -0.229770 0.000000
v 0.215000 -0.212280 -0.087929
v 0.215000 -0.162472 -0.162472
v 0.215000 -0.087929 -0.212280
v 0.210028 0.000000 -0.271207
v 0.210028 0.103786 -0.250563
v 0.210028 0.191772 -0.191772
v 0.210028 0.250563 -0.103786
v 0.210028 0.271207 0.000000
v 0.210028 0.250563 0.103786
v 0.210028 0.191772 0.191772
v 0.210028 0.103786 0.250563
v 0.210028 -0.000000 0.271207
v 0.210028 -0.103786 0.250563
v 0.210028 -0.191772 0.191772
v 0.210028 -0.250563 0.103786
v 0.210028 -0.271207 0.000000
v 0.210028 -0.250563 -0.103786
v 0.210028 -0.191772 -0.191772
v 0.210028 -0.103786 -0.250563
v 0.115828 0.000000 -0.311628
v 0.115828 0.119255 -0.287907
v 0.115829 0.220354 -0.220354
v 0.115829 0.287907 -0.119255
v 0.115828 0.311628 0.000000
v 0.115829 0.287907 0.119255
v 0.115829 0.220354 0.220354
v 0.115828 0.119255 0.287907
v 0.115828 -0.000000 0.311628
v 0.115828 -0.119255 0.287907
v 0.115828 -0.220354 0.220354
v 0.115828 -0.287907 0.119255
v 0.115828 -0.311628 0.000000
v 0.115828 -0.287907 -0.119255
v 0.115828 -0.220354 -0.220354
v 0.115828 -0.119255 -0.287907
v 0.186203 0.116434 0.281097
v 0.186203 -0.000000 0.304257
v 0.186203 0.000000 -0.304257
v 0.186203 0.116434 -0.281097
v 0.186203 -0.116434 -0.281097
v 0.186203 -0.116434 0.281097
v 0.186203 0.215142 -0.215142
v 0.186203 -0.215142 0.215142
v 0.186203 0.281097 -0.116434
v 0.186203 -0.281097 0.116434
v 0.186203 0.304257 0.000000
v 0.186203 -0.304257 0.000000
v 0.186203 0.281097 0.116434
v 0.186203 -0.281097 -0.116434
v 0.186203 0.215142 0.215142
v 0.186203 -0.215142 -0.215142
v 0.176719 0.000000 -0.191456
v 0.176719 0.073267 -0.176882
v 0.176719 0.135380 -0.135380
v 0.176719 0.176882 -0.073267
v 0.176719 0.191456 0.000000
v 0.176719 0.176882 0.073267
v 0.176719 0.135380 0.135380
v 0.176719 0.073267 0.176882
v 0.176719 -0.000000 0.191456
v 0.176719 -0.073267 0.176882
v 0.176719 -0.135380 0.135380
v 0.176719 -0.176882 0.073267
v 0.176719 -0.191456 0.000000
v 0.176719 -0.176882 -0.073267
v 0.176719 -0.135380 -0.135380
v 0.176719 -0.073267 -0.176882
v 0.003658 0.000000 -0.229770
v 0.003658 0.087929 -0.212280
v 0.003658 0.162472 -0.162472
v 0.003658 0.212280 -0.087929
v 0.003658 0.229770 0.000000
v 0.003658 0.212280 0.087929
v 0.003658 0.162472 0.162472
v 0.003658 0.087929 0.212280
v 0.003658 -0.000000 0.229770
v 0.003658 -0.087929 0.212280
v 0.003658 -0.162472 0.162472
v 0.003658 -0.212280 0.087929
v 0.003658 -0.229770 0.000000
v 0.003658 -0.212280 -0.087929
v 0.003658 -0.162472 -0.162472
v 0.003658 -0.087929 -0.212280
v 0.008631 0.000000 -0.271207
v 0.008631 0.103786 -0.250563
v 0.008631 0.191772 -0.191772
v 0.008631 0.250563 -0.103786
v 0.008631 0.271207 0.000000
v 0.008631 0.250563 0.103786
v 0.008631 0.191772 0.191772
v 0.008631 0.103786 0.250563
v 0.008631 -0.000000 0.271207
v 0.008631 -0.103786 0.250563
v 0.008631 -0.191772 0.191772
v 0.008631 -0.250563 0.103786
v 0.008631 -0.271207 0.000000
v 0.008631 -0.250563 -0.103786
v 0.008631 -0.191772 -0.191772
v 0.008631 -0.103786 -0.250563
v 0.032456 0.116434 0.281097
v 0.032456 -0.000000 0.304257
v 0.032456 0.000000 -0.304257
v 0.032456 0.116434 -0.281097
v 0.032456 -0.116434 -0.281097
v 0.032456 -0.116434 0.281097
v 0.032456 0.215142 -0.215142
v 0.032456 -0.215142 0.215142
v 0.032456 0.281097 -0.116434
v 0.032456 -0.281097 0.116434
v 0.032456 0.304257 0.000000
v 0.032456 -0.304257 0.000000
v 0.032456 0.281097 0.116434
v 0.032456 -0.281097 -0.116434
v 0.032456 0.215142 0.215142
v 0.032456 -0.215142 -0.215142
v 0.041940 0.000000 -0.121968
v 0.041940 0.046675 -0.112683
v 0.041940 0.086244 -0.086244
v 0.041940 0.112683 -0.046675
v 0.041940 0.121968 0.000000
v 0.041940 0.112683 0.046675
v 0.041940 0.086244 0.086244
v 0.041940 0.046675 0.112683
v 0.041940 -0.000000 0.121968
v 0.041940 -0.046675 0.112683
v 0.041940 -0.086244 0.086244
v 0.041940 -0.112683 0.046675
v 0.041940 -0.121968 0.000000
v 0.041940 -0.112683 -0.046675
v 0.041940 -0.086244 -0.086244
v 0.041940 -0.046675 -0.112683
v 0.041940 0.000000 -0.191456
v 0.041940 0.073267 -0.176882
v 0.041940 0.135380 -0.135380
v 0.041940 0.176882 -0.073267
v 0.041940 0.191456 0.000000
v 0.041940 0.176882 0.073267
v 0.041940 0.135380 0.135380
v 0.041940 0.073267 0.176882
v 0.041940 -0.000000 0.191456
v 0.041940 -0.073267 0.176882
v 0.041940 -0.135380 0.135380
v 0.041940 -0.176882 0.073267
v 0.041940 -0.191456 0.000000
v 0.041940 -0.176882 -0.073267
v 0.041940 -0.135380 -0.135380
v 0.041940 -0.073267 -0.176882
vt 0.000000 0.000000
vt 0.000000 0.000000
vt 0.000000 0.000000
vt 0.000000 0.000000
vt 0.000000 0.000000
vt 0.000000 0.000000
vt 0.000000 0.000000
vt 0.000000 0.000000
vt 0.000000 0.000000
vt 0.000000 0.000000
vt 0.000000 0.000000
vt 0.000000 0.000000
vt 0.000000 0.000000
vt 0.000000 0.000000
vt 0.000000 0.000000
vt 0.000000 0.000000
vt 0.000000 0.000000
vt 0.000000 0.000000
vt 0.000000 0.000000
vt 0.000000 0.000000
vt 0.000000 0.000000
vt 0.000000 0.000000
vt 0.000000 0.000000
vt 0.000000 0.000000
vt 0.000000 0.000000
vt 0.000000 0.000000
vt 0.000000 0.000000
vt 0.000000 0.000000
vt 0.000000 0.000000
vt 0.000000 0.000000
vt 0.000000 0.000000
vt 0.000000 0.000000
vt 0.000000 0.000000
vt 0.000000 0.000000
vt 0.000000 0.000000
vt 0.000000 0.000000
vt 0.000000 0.000000
vt 0.000000 0.000000
vt 0.000000 0.000000
vt 0.000000 0.000000
vt 0.000000 0.000000
vt 0.000000 0.000000
vt 0.000000 0.000000
vt 0.000000 0.000000
vt 0.000000 0.000000
vt 0.000000 0.000000
vt 0.000000 0.000000
vt 0.000000 0.000000
vt 0.000000 0.000000
vt 0.000000 0.000000
vt 0.000000 0.000000
vt 0.000000 0.000000
vt 0.000000 0.000000
vt 0.000000 0.000000
vt 0.000000 0.000000
vt 0.000000 0.000000
vt 0.000000 0.000000
vt 0.000000 0.000000
vt 0.000000 0.000000
vt 0.000000 0.000000
vt 0.000000 0.000000
vt 0.000000 0.000000
vt 0.000000 0.000000
vt 0.000000 0.000000
vt 0.000000 0.000000
vt 0.000000 0.000000
vt 0.000000 0.000000
vt 0.000000 0.000000
vt 0.000000 0.000000
vt 0.000000 0.000000
vt 0.000000 0.000000
vt 0.000000 0.000000
vt 0.000000 0.000000
vt 0.000000 0.000000
vt 0.000000 0.000000
vt 0.000000 0.000000
vt 0.000000 0.000000
vt 0.000000 0.000000
vt 0.000000 0.000000
vt 0.000000 0.000000
vt 0.000000 0.000000
vt 0.000000 0.000000
vt 0.000000 0.000000
vt 0.000000 0.000000
vt 0.000000 0.000000
vt 0.000000 0.000000
vt 0.000000 0.000000
vt 0.000000 0.000000
vt 0.000000 0.000000
vt 0.000000 0.000000
vt 0.000000 0.000000
vt 0.000000 0.000000
vt 0.000000 0.000000
vt 0.000000 0.000000
vt 0.000000 0.000000
vt 0.000000 0.000000
vt 0.000000 0.000000
vt 0.000000 0.000000
vt 0.000000 0.000000
vt 0.000000 0.000000
vt 0.000000 0.000000
vt 0.000000 0.000000
vt 0.000000 0.000000
vt 0.000000 0.000000
vt 0.000000 0.000000
vt 0.000000 0.000000
vt 0.000000 0.000000
vt 0.000000 0.000000
vt 0.000000 0.000000
vt 0.000000 0.000000
vt 0.000000 0.000000
vt 0.000000 0.000000
vt 0.000000 0.000000
vt 0.000000 0.000000
vt 0.000000 0.000000
vt 0.000000 0.000000
vt 0.000000 0.000000
vt 0.000000 0.000000
vt 0.000000 0.000000
vt 0.000000 0.000000
vt 0.000000 0.000000
vt 0.000000 0.000000
vt 0.000000 0.000000
vt 0.000000 0.000000
vt 0.000000 0.000000
vt 0.000000 0.000000
vt 0.000000 0.000000
vt 0.000000 0.000000
vt 0.000000 0.000000
vt 0.000000 0.000000
vt 0.000000 0.000000
vt 0.000000 0.000000
vt 0.000000 0.000000
vt 0.000000 0.000000
vt 0.000000 0.000000
vt 0.000000 0.000000
vt 0.000000 0.000000
vt 0.000000 0.000000
vt 0.000000 0.000000
vt 0.000000 0.000000
vt 0.000000 0.000000
vt 0.000000 0.000000
vt 0.000000 0.000000
vt 0.000000 0.000000
vt 0.000000 0.000000
vt 0.000000 0.000000
vt 0.000000 0.000000
vt 0.000000 0.000000
vt 0.000000 0.000000
vt 0.000000 0.000000
vt 0.000000 0.000000
vt 0.000000 0.000000
vt 0.000000 0.000000
vt 0.000000 0.000000
vt 0.000000 0.000000
vt 0.000000 0.000000
vt 0.000000 0.000000
vt 0.000000 0.000000
vt 0.000000 0.000000
vt 0.000000 0.000000
vn 0.7074 0.0000 0.7068
vn 0.9611 -0.1057 0.2552
vn 0.7074 -0.2705 0.6530
vn 0.7074 0.4998 0.4998
vn 0.9611 0.2552 0.1057
vn 0.9611 0.1953 0.1953
vn 0.7074 -0.4998 -0.4998
vn 0.9611 -0.1057 -0.2552
vn 0.7074 -0.2705 -0.6530
vn 0.9611 0.1057 0.2552
vn 0.7074 0.2705 0.6530
vn 0.9611 0.0000 -0.2763
vn 0.7074 0.0000 -0.7068
vn 0.7074 0.2705 -0.6530
vn 0.9611 0.1057 -0.2552
vn 0.9611 0.0000 0.2763
vn 0.7074 -0.4998 0.4998
vn 0.9611 -0.1953 0.1953
vn 0.9611 0.1953 -0.1953
vn 0.7074 0.4998 -0.4998
vn 0.9611 -0.2552 0.1057
vn 0.7074 -0.6530 0.2705
vn 0.9611 0.2552 -0.1057
vn 0.7074 0.6530 -0.2705
vn 0.9611 -0.2763 0.0000
vn 0.7074 -0.7068 0.0000
vn 0.9611 0.2763 0.0000
vn 0.7074 0.7068 0.0000
vn 0.7074 -0.6530 -0.2705
vn 0.9611 -0.2552 -0.1057
vn 0.7074 0.6530 0.2705
vn 0.9611 -0.1953 -0.1953
vn 0.9208 0.2757 -0.2757
vn 0.9208 0.3603 -0.1492
vn 0.9208 -0.3603 0.1492
vn 0.9208 0.3900 0.0000
vn 0.9208 -0.3900 0.0000
vn 0.9208 0.3603 0.1492
vn 0.9208 -0.3603 -0.1492
vn 0.9208 0.2757 0.2757
vn 0.9208 -0.2757 -0.2757
vn 0.9208 0.1492 0.3603
vn 0.9208 -0.1492 -0.3603
vn 0.9208 0.0000 0.3900
vn 0.9208 0.1492 -0.3603
vn 0.9208 0.0000 -0.3900
vn 0.9208 -0.1492 0.3603
vn 0.9208 -0.2757 0.2757
vn 0.4806 0.0000 0.8769
vn 0.0080 0.3826 0.9238
vn 0.0080 0.0000 0.9999
vn 0.4806 0.0000 -0.8769
vn 0.0080 0.3826 -0.9238
vn 0.4806 0.3356 -0.8102
vn 0.0080 -0.3826 -0.9238
vn 0.0080 0.0000 -0.9999
vn 0.4806 -0.3356 0.8102
vn 0.0080 -0.3826 0.9238
vn 0.0080 0.7071 -0.7071
vn 0.4806 0.6201 -0.6201
vn 0.4806 -0.6201 0.6201
vn 0.0080 -0.7071 0.7071
vn 0.0080 0.9238 -0.3826
vn 0.4806 0.8102 -0.3356
vn 0.4806 -0.8102 0.3356
vn 0.0080 -0.9238 0.3826
vn 0.4806 0.8769 0.0000
vn 0.0080 0.9999 0.0000
vn 0.0080 -0.9999 0.0000
vn 0.4806 -0.8769 0.0000
vn 0.0080 0.9238 0.3826
vn 0.4806 0.8102 0.3356
vn 0.0080 -0.9238 -0.3826
vn 0.4806 -0.8102 -0.3356
vn 0.0080 0.7071 0.7071
vn 0.4806 0.6201 0.6201
vn 0.0080 -0.7071 -0.7071
vn 0.4806 -0.6201 -0.6201
vn 0.4806 0.3356 0.8102
vn 0.4806 -0.3356 -0.8102
vn -0.9067 -0.1614 0.3897
vn -0.9611 0.0000 0.2763
vn -0.9067 0.0000 0.4218
vn -0.9611 0.1953 0.1953
vn -0.9067 0.3897 0.1614
vn -0.9067 0.2982 0.2982
vn -0.9067 -0.1614 -0.3897
vn -0.9611 -0.1953 -0.1953
vn -0.9067 -0.2982 -0.2982
vn -0.9611 0.1057 0.2552
vn -0.9067 0.1614 0.3897
vn -0.9611 0.0000 -0.2763
vn -0.9067 0.0000 -0.4218
vn -0.9067 0.1614 -0.3897
vn -0.9611 -0.1953 0.1953
vn -0.9067 -0.2982 0.2982
vn -0.9067 0.2982 -0.2982
vn -0.9611 0.1057 -0.2552
vn -0.9611 -0.2552 0.1057
vn -0.9067 -0.3897 0.1614
vn -0.9611 0.2552 -0.1057
vn -0.9067 0.3897 -0.1614
vn -0.9611 -0.2763 0.0000
vn -0.9067 -0.4218 0.0000
vn -0.9611 0.2763 0.0000
vn -0.9067 0.4218 0.0000
vn -0.9067 -0.3897 -0.1614
vn -0.9611 0.2552 0.1057
vn -0.9208 0.3603 -0.1492
vn -0.9208 -0.3603 0.1492
vn -0.9611 0.1953 -0.1953
vn -0.9208 0.3900 0.0000
vn -0.9208 -0.3900 0.0000
vn -0.9611 -0.2552 -0.1057
vn -0.9208 0.2757 0.2757
vn -0.9208 -0.2757 -0.2757
vn -0.9208 0.1492 0.3603
vn -0.9611 -0.1057 -0.2552
vn -0.9208 -0.1492 -0.3603
vn -0.9208 0.0000 0.3900
vn -0.9611 -0.1057 0.2552
vn -0.9208 0.0000 -0.3900
vn -0.9208 -0.1492 0.3603
vn -0.9208 0.2757 -0.2757
vn -0.4734 0.3371 0.8137
vn -0.4734 0.0000 0.8808
vn -0.4734 0.3370 -0.8137
vn -0.4734 0.0000 -0.8808
vn -0.4734 -0.3371 -0.8137
vn -0.4734 -0.3370 0.8137
vn -0.4734 0.6228 -0.6228
vn -0.4734 -0.6228 0.6228
vn -0.4734 0.8137 -0.3370
vn -0.4734 -0.8137 0.3370
vn -0.4734 0.8808 0.0000
vn -0.4734 -0.8808 0.0000
vn -0.4734 0.8137 0.3370
vn -0.4734 -0.8137 -0.3370
vn -0.4734 0.6228 0.6228
vn -0.4734 -0.6228 -0.6228
vn -0.9208 -0.3603 -0.1492
vn -0.9208 0.3603 0.1492
vn -0.9208 -0.2757 0.2757
vn -0.9208 0.1492 -0.3603
vn -1.0000 0.0000 0.0000
usemtl black
s 1
f 65/1/1 2/2/2 66/3/3
f 79/4/4 14/5/5 15/6/6
f 71/7/7 8/8/8 72/9/9
f 79/4/4 16/10/10 80/11/11
f 72/9/9 9/12/12 73/13/13
f 74/14/14 9/12/12 10/15/15
f 80/11/11 1/16/16 65/1/1
f 67/17/17 2/2/2 3/18/18
f 74/14/14 11/19/19 75/20/20
f 67/17/17 4/21/21 68/22/22
f 75/20/20 12/23/23 76/24/24
f 68/22/22 5/25/25 69/26/26
f 76/24/24 13/27/27 77/28/28
f 70/29/29 5/25/25 6/30/30
f 78/31/31 13/27/27 14/5/5
f 71/7/7 6/30/30 7/32/32
f 4/21/21 19/33/33 20/34/34
f 11/19/19 28/35/35 12/23/23
f 4/21/21 21/36/36 5/25/25
f 12/23/23 29/37/37 13/27/27
f 6/30/30 21/36/36 22/38/38
f 13/27/27 30/39/39 14/5/5
f 6/30/30 23/40/40 7/32/32
f 14/5/5 31/41/41 15/6/6
f 7/32/32 24/42/42 8/8/8
f 15/6/6 32/43/43 16/10/10
f 8/8/8 25/44/44 9/12/12
f 1/16/16 18/45/45 2/2/2
f 16/10/10 17/46/46 1/16/16
f 9/12/12 26/47/47 10/15/15
f 2/2/2 19/33/33 3/18/18
f 11/19/19 26/47/47 27/48/48
f 50/49/49 40/50/50 41/51/51
f 51/52/52 34/53/53 52/54/54
f 51/52/52 48/55/55 33/56/56
f 54/57/57 41/51/51 42/58/58
f 52/54/54 35/59/59 55/60/60
f 56/61/61 42/58/58 43/62/62
f 55/60/60 36/63/63 57/64/64
f 58/65/65 43/62/62 44/66/66
f 59/67/67 36/63/63 37/68/68
f 58/65/65 45/69/69 60/70/70
f 59/67/67 38/71/71 61/72/72
f 60/70/70 46/73/73 62/74/74
f 61/72/72 39/75/75 63/76/76
f 62/74/74 47/77/77 64/78/78
f 49/79/79 39/75/75 40/50/50
f 64/78/78 48/55/55 53/80/80
f 31/41/41 53/80/80 32/43/43
f 24/42/42 63/76/76 49/79/79
f 30/39/39 64/78/78 31/41/41
f 22/38/38 63/76/76 23/40/40
f 30/39/39 60/70/70 62/74/74
f 21/36/36 61/72/72 22/38/38
f 28/35/35 60/70/70 29/37/37
f 20/34/34 59/67/67 21/36/36
f 27/48/48 58/65/65 28/35/35
f 19/33/33 57/64/64 20/34/34
f 26/47/47 56/61/61 27/48/48
f 18/45/45 55/60/60 19/33/33
f 26/47/47 50/49/49 54/57/57
f 32/43/43 51/52/52 17/46/46
f 17/46/46 52/54/54 18/45/45
f 24/42/42 50/49/49 25/44/44
f 146/81/81 81/82/82 145/83/83
f 95/84/84 158/85/85 159/86/86
f 152/87/87 87/88/88 151/89/89
f 96/90/90 159/86/86 160/91/91
f 89/92/92 152/87/87 153/93/93
f 154/94/94 89/92/92 153/93/93
f 81/82/82 160/91/91 145/83/83
f 83/95/95 146/81/81 147/96/96
f 155/97/97 90/98/98 154/94/94
f 84/99/99 147/96/96 148/100/100
f 92/101/101 155/97/97 156/102/102
f 85/103/103 148/100/100 149/104/104
f 93/105/105 156/102/102 157/106/106
f 150/107/107 85/103/103 149/104/104
f 94/108/108 157/106/106 158/85/85
f 87/88/88 150/107/107 151/89/89
f 100/109/109 83/95/95 84/99/99
f 108/110/110 91/111/111 92/101/101
f 101/112/112 84/99/99 85/103/103
f 109/113/113 92/101/101 93/105/105
f 86/114/114 101/112/112 85/103/103
f 94/108/108 109/113/113 93/105/105
f 103/115/115 86/114/114 87/88/88
f 111/116/116 94/108/108 95/84/84
f 104/117/117 87/88/88 88/118/118
f 112/119/119 95/84/84 96/90/90
f 105/120/120 88/118/118 89/92/92
f 82/121/121 97/122/122 81/82/82
f 81/82/82 112/119/119 96/90/90
f 106/123/123 89/92/92 90/98/98
f 99/124/124 82/121/121 83/95/95
f 91/111/111 106/123/123 90/98/98
f 41/51/51 113/125/125 114/126/126
f 116/127/127 33/56/56 115/128/128
f 115/128/128 48/55/55 117/129/129
f 42/58/58 114/126/126 118/130/130
f 35/59/59 116/127/127 119/131/131
f 120/132/132 42/58/58 118/130/130
f 36/63/63 119/131/131 121/133/133
f 44/66/66 120/132/132 122/134/134
f 37/68/68 121/133/133 123/135/135
f 45/69/69 122/134/134 124/136/136
f 38/71/71 123/135/135 125/137/137
f 46/73/73 124/136/136 126/138/138
f 39/75/75 125/137/137 127/139/139
f 47/77/77 126/138/138 128/140/140
f 40/50/50 127/139/139 113/125/125
f 48/55/55 128/140/140 117/129/129
f 117/129/129 111/116/116 112/119/119
f 113/125/125 103/115/115 104/117/117
f 128/140/140 110/141/141 111/116/116
f 127/139/139 102/142/142 103/115/115
f 126/138/138 109/113/113 110/141/141
f 102/142/142 123/135/135 101/112/112
f 124/136/136 108/110/110 109/113/113
f 123/135/135 100/109/109 101/112/112
f 122/134/134 107/143/143 108/110/110
f 121/133/133 99/124/124 100/109/109
f 120/132/132 106/123/123 107/143/143
f 119/131/131 98/144/144 99/124/124
f 106/123/123 114/126/126 105/120/120
f 115/128/128 112/119/119 97/122/122
f 116/127/127 97/122/122 98/144/144
f 114/126/126 104/117/117 105/120/120
f 130/145/145 142/146/145 138/147/145
f 130/145/145 145/83/83 129/148/145
f 131/149/145 146/81/81 130/145/145
f 131/149/145 148/100/100 147/96/96
f 132/150/145 149/104/104 148/100/100
f 134/151/145 149/104/104 133/152/145
f 135/153/145 150/107/107 134/151/145
f 135/153/145 152/87/87 151/89/89
f 137/154/145 152/87/87 136/155/145
f 138/147/145 153/93/93 137/154/145
f 139/156/145 154/94/94 138/147/145
f 140/157/145 155/97/97 139/156/145
f 140/157/145 157/106/106 156/102/102
f 142/146/145 157/106/106 141/158/145
f 143/159/145 158/85/85 142/146/145
f 143/159/145 160/91/91 159/86/86
f 144/160/145 145/83/83 160/91/91
f 65/1/1 1/16/16 2/2/2
f 79/4/4 78/31/31 14/5/5
f 71/7/7 7/32/32 8/8/8
f 79/4/4 15/6/6 16/10/10
f 72/9/9 8/8/8 9/12/12
f 74/14/14 73/13/13 9/12/12
f 80/11/11 16/10/10 1/16/16
f 67/17/17 66/3/3 2/2/2
f 74/14/14 10/15/15 11/19/19
f 67/17/17 3/18/18 4/21/21
f 75/20/20 11/19/19 12/23/23
f 68/22/22 4/21/21 5/25/25
f 76/24/24 12/23/23 13/27/27
f 70/29/29 69/26/26 5/25/25
f 78/31/31 77/28/28 13/27/27
f 71/7/7 70/29/29 6/30/30
f 4/21/21 3/18/18 19/33/33
f 11/19/19 27/48/48 28/35/35
f 4/21/21 20/34/34 21/36/36
f 12/23/23 28/35/35 29/37/37
f 6/30/30 5/25/25 21/36/36
f 13/27/27 29/37/37 30/39/39
f 6/30/30 22/38/38 23/40/40
f 14/5/5 30/39/39 31/41/41
f 7/32/32 23/40/40 24/42/42
f 15/6/6 31/41/41 32/43/43
f 8/8/8 24/42/42 25/44/44
f 1/16/16 17/46/46 18/45/45
f 16/10/10 32/43/43 17/46/46
f 9/12/12 25/44/44 26/47/47
f 2/2/2 18/45/45 19/33/33
f 11/19/19 10/15/15 26/47/47
f 50/49/49 49/79/79 40/50/50
f 51/52/52 33/56/56 34/53/53
f 51/52/52 53/80/80 48/55/55
f 54/57/57 50/49/49 41/51/51
f 52/54/54 34/53/53 35/59/59
f 56/61/61 54/57/57 42/58/58
f 55/60/60 35/59/59 36/63/63
f 58/65/65 56/61/61 43/62/62
f 59/67/67 57/64/64 36/63/63
f 58/65/65 44/66/66 45/69/69
f 59/67/67 37/68/68 38/71/71
f 60/70/70 45/69/69 46/73/73
f 61/72/72 38/71/71 39/75/75
f 62/74/74 46/73/73 47/77/77
f 49/79/79 63/76/76 39/75/75
f 64/78/78 47/77/77 48/55/55
f 31/41/41 64/78/78 53/80/80
f 24/42/42 23/40/40 63/76/76
f 30/39/39 62/74/74 64/78/78
f 22/38/38 61/72/72 63/76/76
f 30/39/39 29/37/37 60/70/70
f 21/36/36 59/67/67 61/72/72
f 28/35/35 58/65/65 60/70/70
f 20/34/34 57/64/64 59/67/67
f 27/48/48 56/61/61 58/65/65
f 19/33/33 55/60/60 57/64/64
f 26/47/47 54/57/57 56/61/61
f 18/45/45 52/54/54 55/60/60
f 26/47/47 25/44/44 50/49/49
f 32/43/43 53/80/80 51/52/52
f 17/46/46 51/52/52 52/54/54
f 24/42/42 49/79/79 50/49/49
f 146/81/81 82/121/121 81/82/82
f 95/84/84 94/108/108 158/85/85
f 152/87/87 88/118/118 87/88/88
f 96/90/90 95/84/84 159/86/86
f 89/92/92 88/118/118 152/87/87
f 154/94/94 90/98/98 89/92/92
f 81/82/82 96/90/90 160/91/91
f 83/95/95 82/121/121 146/81/81
f 155/97/97 91/111/111 90/98/98
f 84/99/99 83/95/95 147/96/96
f 92/101/101 91/111/111 155/97/97
f 85/103/103 84/99/99 148/100/100
f 93/105/105 92/101/101 156/102/102
f 150/107/107 86/114/114 85/103/103
f 94/108/108 93/105/105 157/106/106
f 87/88/88 86/114/114 150/107/107
f 100/109/109 99/124/124 83/95/95
f 108/110/110 107/143/143 91/111/111
f 101/112/112 100/109/109 84/99/99
f 109/113/113 108/110/110 92/101/101
f 86/114/114 102/142/142 101/112/112
f 94/108/108 110/141/141 109/113/113
f 103/115/115 102/142/142 86/114/114
f 111/116/116 110/141/141 94/108/108
f 104/117/117 103/115/115 87/88/88
f 112/119/119 111/116/116 95/84/84
f 105/120/120 104/117/117 88/118/118
f 82/121/121 98/144/144 97/122/122
f 81/82/82 97/122/122 112/119/119
f 106/123/123 105/120/120 89/92/92
f 99/124/124 98/144/144 82/121/121
f 91/111/111 107/143/143 106/123/123
f 41/51/51 40/50/50 113/125/125
f 116/127/127 34/53/53 33/56/56
f 115/128/128 33/56/56 48/55/55
f 42/58/58 41/51/51 114/126/126
f 35/59/59 34/53/53 116/127/127
f 120/132/132 43/62/62 42/58/58
f 36/63/63 35/59/59 119/131/131
f 44/66/66 43/62/62 120/132/132
f 37/68/68 36/63/63 121/133/133
f 45/69/69 44/66/66 122/134/134
f 38/71/71 37/68/68 123/135/135
f 46/73/73 45/69/69 124/136/136
f 39/75/75 38/71/71 125/137/137
f 47/77/77 46/73/73 126/138/138
f 40/50/50 39/75/75 127/139/139
f 48/55/55 47/77/77 128/140/140
f 117/129/129 128/140/140 111/116/116
f 113/125/125 127/139/139 103/115/115
f 128/140/140 126/138/138 110/141/141
f 127/139/139 125/137/137 102/142/142
f 126/138/138 124/136/136 109/113/113
f 102/142/142 125/137/137 123/135/135
f 124/136/136 122/134/134 108/110/110
f 123/135/135 121/133/133 100/109/109
f 122/134/134 120/132/132 107/143/143
f 121/133/133 119/131/131 99/124/124
f 120/132/132 118/130/130 106/123/123
f 119/131/131 116/127/127 98/144/144
f 106/123/123 118/130/130 114/126/126
f 115/128/128 117/129/129 112/119/119
f 116/127/127 115/128/128 97/122/122
f 114/126/126 113/125/125 104/117/117
f 130/145/145 129/148/145 142/146/145
f 129/148/145 144/160/145 142/146/145
f 144/160/145 143/159/145 142/146/145
f 142/146/145 141/158/145 138/147/145
f 141/158/145 140/157/145 138/147/145
f 140/157/145 139/156/145 138/147/145
f 138/147/145 137/154/145 136/155/145
f 136/155/145 135/153/145 134/151/145
f 134/151/145 133/152/145 130/145/145
f 133/152/145 132/150/145 130/145/145
f 132/150/145 131/149/145 130/145/145
f 138/147/145 136/155/145 130/145/145
f 136/155/145 134/151/145 130/145/145
f 130/145/145 146/81/81 145/83/83
f 131/149/145 147/96/96 146/81/81
f 131/149/145 132/150/145 148/100/100
f 132/150/145 133/152/145 149/104/104
f 134/151/145 150/107/107 149/104/104
f 135/153/145 151/89/89 150/107/107
f 135/153/145 136/155/145 152/87/87
f 137/154/145 153/93/93 152/87/87
f 138/147/145 154/94/94 153/93/93
f 139/156/145 155/97/97 154/94/94
f 140/157/145 156/102/102 155/97/97
f 140/157/145 141/158/145 157/106/106
f 142/146/145 158/85/85 157/106/106
f 143/159/145 159/86/86 158/85/85
f 143/159/145 144/160/145 160/91/91
f 144/160/145 129/148/145 145/83/83
